/* XPM */
static const char *xpm_bB[] = {
"94 94 91 1",
" 	c None",
".	c #070707",
"+	c #333333",
"@	c #343434",
"#	c #090909",
"$	c #212121",
"%	c #2D2D2D",
"&	c #232323",
"*	c #141414",
"=	c #1E1E1E",
"-	c #131313",
";	c #202020",
">	c #1A1A1A",
",	c #323232",
"'	c #101010",
")	c #1B1B1B",
"!	c #0E0E0E",
"~	c #0D0D0D",
"{	c #1C1C1C",
"]	c #111111",
"^	c #A2A2A2",
"/	c #A5A5A5",
"(	c #949494",
"_	c #161616",
":	c #080808",
"<	c #525252",
"[	c #7F7F7F",
"}	c #0B0B0B",
"|	c #0C0C0C",
"1	c #989898",
"2	c #FFFFFF",
"3	c #121212",
"4	c #4D4D4D",
"5	c #151515",
"6	c #181818",
"7	c #3C3C3C",
"8	c #757575",
"9	c #282828",
"0	c #717171",
"a	c #727272",
"b	c #9D9D9D",
"c	c #6F6F6F",
"d	c #737373",
"e	c #2F2F2F",
"f	c #555555",
"g	c #B2B2B2",
"h	c #B6B6B6",
"i	c #DEDEDE",
"j	c #747474",
"k	c #858585",
"l	c #646464",
"m	c #7C7C7C",
"n	c #808080",
"o	c #626262",
"p	c #656565",
"q	c #E5E5E5",
"r	c #9B9B9B",
"s	c #2B2B2B",
"t	c #FBFBFB",
"u	c #0A0A0A",
"v	c #040404",
"w	c #4C4C4C",
"x	c #F1F1F1",
"y	c #A7A7A7",
"z	c #ACACAC",
"A	c #060606",
"B	c #AFAFAF",
"C	c #0F0F0F",
"D	c #171717",
"E	c #ECECEC",
"F	c #7A7A7A",
"G	c #CECECE",
"H	c #B1B1B1",
"I	c #B5B5B5",
"J	c #D3D3D3",
"K	c #CFCFCF",
"L	c #C8C8C8",
"M	c #424242",
"N	c #3D3D3D",
"O	c #393939",
"P	c #050505",
"Q	c #A6A6A6",
"R	c #C1C1C1",
"S	c #EFEFEF",
"T	c #484848",
"U	c #191919",
"V	c #3E3E3E",
"W	c #242424",
"X	c #2E2E2E",
"Y	c #404040",
"Z	c #6A6A6A",
"                                                                                              ",
"                                                                                              ",
"                                                                                              ",
"                                                                                              ",
"                                                                                              ",
"                                                                                              ",
"                                                                                              ",
"                                                                                              ",
"                                                                                              ",
"                                                                                              ",
"                                                                                              ",
"                                                                                              ",
"                                                                                              ",
"                                                                                              ",
"                                                                                              ",
"                                                                                              ",
"                                                                                              ",
"                                                                                              ",
"                                                                                              ",
"                                        ...........                                           ",
"                                     ......++@++......                                        ",
"                                  ....#$$$$$$$$%@@@+....                                      ",
"                                ....$$$$$$$$$$$$$&@@@@...                                     ",
"                               ..#$$$$$$$$$$$$$$$$$@@@@@...                                   ",
"                             ...****=$$$$$$$$$$$$$$&@@@@@#..                                  ",
"                            ..-*****$$$$$$$$$$$$$$$$@@@@@@+..                                 ",
"                           ..*******$$$$$$$$$$$$$*;$@@@@@@@+..                                ",
"                          ..*******>$$$$$$$$$$$$$**$@@@@@@@@+..                               ",
"                         ..***.****$$$$$$$$$$$$$$$$$,@@@@@@@@..                               ",
"                        ..***.*****$$$$$$$$$$$$$$$=*$+@@@@@$@@..                              ",
"                       ..***..*****$$$$$$$$$$$$$$$;**$$$$$$$$@@..                             ",
"                       ..**..*******$$$$$$$$$$$$$$$**$$$$$$$$+@..                             ",
"                       .***..*******;$$$$$$$$$$$$$$$$$$$$$$$$$@@.                             ",
"                      ..**..*********;$$$$$$$$$$$$$$$$$$$$$$$$+@..                            ",
"                       .**.'***********$$$*$$$$$$$$$$$$$$$$$$$$@*.                            ",
"                       ....**************)*$$$$$$$$$$$$$$$$$$$$@@.                            ",
"                        ...*!***************$$$$$$$$$$$$$$$$$$$$@..                           ",
"                         .**~******************{$$$$$$$$$$$$$$$$@..                           ",
"                        ..*********************..........]$$$$$$@..                           ",
"                        ..******************...........$$$$$$$$$+@.                           ",
"                        .*****************....^/////^....$$$$$$$$@.                           ",
"                        .******~~*******...(///////////..._$$$$$$@.                           ",
"                       ..***-**~*******...///////////////...$$$$$@.                           ",
"                       ..***~~*******:.....<////////////[}|||$$$$@..                          ",
"                       .****~*******..|||||..1///22222/.|||||}$$$@.                           ",
"                       .***********..|~333__..422222225!36666|~$$@.                           ",
"                       .**********..|373889666..22222.]3680a='.$$@.                           ",
"                       .**********..bc338ddde)6+..f2|g368000=':.$'.                           ",
"                       .*********../bc338dd000=3h222i!38j0k0=3:.;..                           ",
"                       .********..l/bc338d000k86;222h!c8j0m0=3'....                           ",
"                       .**~*****.4n^/co388d000p6q222h|*88dd=-:'...                            ",
"                       ..*~~****.nnn^rc3388dds)6222t2~336663u.'...                            ",
"                       ..*--***...nvr/jw33*666_x2...22y3333zA.'..                             ",
"                        ..*****...[nn//Bz||C|DE22.-!F22EGHI2..'..                             ",
"                         ..****.*..nnn/2J||wEE222.-3.2222222....                              ",
"                          ..******..nnn2222222222....K22222:...                               ",
"                           ..******..[nL2L222222h2222222222...                                ",
"                            ...*****...LLHL22222M_cN.F222....                                 ",
"                              ...3***....LLL2222...uO2E....                                   ",
"                               ......**.....PQRS.222T.....                                    ",
"                                  .....................                                       ",
"                                    ..U............u$V.                                       ",
"                                    .U;$.*****$..**$$V..                                      ",
"                                   .UU]$.'***$_..**$$W...                                     ",
"                                   .U]$$.|*}{$U..**$$$.=.                                     ",
"                                  ..UD$$.]**$$...:*$>$M..                                     ",
"                                  ..U$$*.****$....*MM9&...                                    ",
"                                  .....:.;X&&&sMMM&]!-X...                                    ",
"                                  .LL.L...MM&YY,|v|M9Y&v2.                                    ",
"                                 ..LLLL*L.}]]]]]]]:----...                                    ",
"                                  .LLLR2..*$$.C'~#.$$*$...                                    ",
"                                  ..LL2...$$$.$]]].$$$$V.                                     ",
"                                   ..Z.2._$$u.$]]].6$$)$.                                     ",
"                                   ......*6$.:>]]]..$*...                                     ",
"                                      .....:.$]..u].... ..                                    ",
"                                      .................                                       ",
"                                      ....~~~. ....~~~.                                       ",
"                                      ........  .......                                       ",
"                                                                                              ",
"                                                                                              ",
"                                                                                              ",
"                                                                                              ",
"                                                                                              ",
"                                                                                              ",
"                                                                                              ",
"                                                                                              ",
"                                                                                              ",
"                                                                                              ",
"                                                                                              ",
"                                                                                              ",
"                                                                                              ",
"                                                                                              ",
"                                                                                              ",
"                                                                                              "};
