/* XPM */
static const char *xpm_bK[] = {
"94 94 83 1",
" 	c None",
".	c #000000",
"+	c #515151",
"@	c #5B5B5B",
"#	c #646464",
"$	c #373737",
"%	c #747474",
"&	c #535353",
"*	c #080808",
"=	c #303030",
"-	c #464646",
";	c #4E4E4E",
">	c #767676",
",	c #3C3C3C",
"'	c #686868",
")	c #595959",
"!	c #050505",
"~	c #555555",
"{	c #585858",
"]	c #636363",
"^	c #191919",
"/	c #4F4F4F",
"(	c #232323",
"_	c #222222",
":	c #444444",
"<	c #626262",
"[	c #3D3D3D",
"}	c #565656",
"|	c #454545",
"1	c #2C2C2C",
"2	c #2D2D2D",
"3	c #5E5E5E",
"4	c #3F3F3F",
"5	c #323232",
"6	c #0B0B0B",
"7	c #030303",
"8	c #404040",
"9	c #313131",
"0	c #121212",
"a	c #1E1E1E",
"b	c #545454",
"c	c #101010",
"d	c #181818",
"e	c #262626",
"f	c #040404",
"g	c #1D1D1D",
"h	c #0F0F0F",
"i	c #474747",
"j	c #131313",
"k	c #6D6D6D",
"l	c #353535",
"m	c #060606",
"n	c #494949",
"o	c #6E6E6E",
"p	c #2B2B2B",
"q	c #1A1A1A",
"r	c #272727",
"s	c #0A0A0A",
"t	c #424242",
"u	c #606060",
"v	c #010101",
"w	c #505050",
"x	c #333333",
"y	c #898989",
"z	c #868686",
"A	c #171717",
"B	c #090909",
"C	c #292929",
"D	c #787878",
"E	c #2E2E2E",
"F	c #717171",
"G	c #808080",
"H	c #727272",
"I	c #696969",
"J	c #676767",
"K	c #151515",
"L	c #3A3A3A",
"M	c #1F1F1F",
"N	c #4B4B4B",
"O	c #6F6F6F",
"P	c #5D5D5D",
"Q	c #363636",
"R	c #4A4A4A",
"                                                                                              ",
"                                                                                              ",
"                                                                                              ",
"                                                                                              ",
"                                                                                              ",
"                                                                                              ",
"                                                                                              ",
"                                                                                              ",
"                                                                                              ",
"                                                                                              ",
"                                                                                              ",
"                                                                                              ",
"                                                                                              ",
"                                                                                              ",
"                                                                                              ",
"                                                                                              ",
"                                                                                              ",
"                                                                                              ",
"                                                    .                                         ",
"                                                    .                                         ",
"                                                    .                                         ",
"                                                    .                                         ",
"                                    .              ..                                         ",
"                                   ..        ...   ...                                        ",
"                                   ... ...............                                        ",
"                                   .......++++++@#$.%...         .                            ",
"                                   ....+++++&#####*.%....        .                            ",
"                         .        ..=-.;+++#######..%..>...     ..                            ",
"                         ..     ....--..+#########.,'..#>)..    ..                            ",
"                         ..     ..+.---.!#####~###.{{,.##>>..  ...                            ",
"                         ...   ..++.---..####]+##*.{{%.###>>.. ...                            ",
"                         .... ..++^.----..#######..{{%..###>*....                             ",
"                          .-.../++..-(_-:.<######.{{{{..###'>..[.                             ",
"                          .--..+++..-----..}####..{{{{%.####>..%.                             ",
"                          ..-|..++.1---__-..####..,2{{3..###&.{{.                             ",
"                          ..-:4....----__-:.5##..{{{{{{..###..{6.                             ",
"                           .-__-..---..|---7....8{{{)%{{..#..{{..                             ",
"                           .9----........--{{..{{{{{{{{{}...{{{.                              ",
"                           ..-......$$$0..a{{{{{25{{{{{{{%b{{%{.                              ",
"                           .....c$d$$$$--...e{{{2b{{{{{{{%%{{...                              ",
"                           ...$$$$d$$$$----...f{{{{{{{{{{%<...g.                              ",
"                           ..$$^d$$h.....--i{|....{{{{{~....{{..                              ",
"                           ..$$$j......+...-{{{{0...;}...k%{{{..                              ",
"                           .......688+++++...|{{<%{l..1%{%%m....                              ",
"                          ..++|.+++n|++9.:++=...$%{{~.%o....{>..                              ",
"                          .+..+p+++++++....q+++...q{{{]..8###e..                              ",
"                          .+.8.+++++++..***...++++..{{.+##r....                               ",
"                          .+...s++t+++.*..***...+++.l..u]...**.                               ",
"                          .e..8.++++++.......*m...........*..v.                               ",
"                          ...58.++++++.........mm.*...*.m......                               ",
"                           .+.88+++8++a..ooo........u..........                               ",
"                           ..w.8x++++++9.yyzooo(...##A..Booo...                               ",
"                            .++eC+++++++..yyyyDoo.E###.nFyyh..                                ",
"                             .++++++++++#..yyyyy..###@#.yyG.>.                                ",
"                             ..++.+++++###.......######....vF.                                ",
"                               ...+++++#####....#####m####3H..                                ",
"                                 ..-+++###@..a#######]{###I>..                                ",
"                                 ....+++##+#########..7.#J>..                                 ",
"                                 Km....++#+########.*###>>..                                  ",
"                                .*K**....Cb############>...                                   ",
"                                .***!.........b####JF.....                                    ",
"                                .6.*..+B.+................                                    ",
"                               ..**..+]#.+#####3L(1w#..7..                                    ",
"                               .....;+##.A######]####.....                                    ",
"                               .....++##.M.###<#..##BN....                                    ",
"                               ....6+###.5+.....O#wn+>....                                    ",
"                               ....++###./&u{3#>####%>....                                    ",
"                              ... ...P##.+########QC.>.....                                   ",
"                              ..  .+......##########.O.3#.                                    ",
"                                  .++++.R..####q.....!....                                    ",
"                                  .+++u#..............|.=.                                    ",
"                                  ..++#..............RR..                                     ",
"                                   ....g..777777........                                      ",
"                                     ..............5...                                       ",
"                                       ....7.. ...7M...                                       ",
"                                       ....... ........                                       ",
"                                       ...BBB. .....BB.                                       ",
"                                      ......... .......                                       ",
"                                                                                              ",
"                                                                                              ",
"                                                                                              ",
"                                                                                              ",
"                                                                                              ",
"                                                                                              ",
"                                                                                              ",
"                                                                                              ",
"                                                                                              ",
"                                                                                              ",
"                                                                                              ",
"                                                                                              ",
"                                                                                              ",
"                                                                                              ",
"                                                                                              ",
"                                                                                              "};
