/* XPM */
static const char *xpm_bK[] = {
/* columns rows colors chars-per-pixel */
"94 94 74 1 ",
"  c #000000",
". c #080707",
"X c #0B0B0A",
"o c #100F0E",
"O c #12100F",
"+ c #151413",
"@ c #191716",
"# c #1A1817",
"$ c #1C1C1B",
"% c #201E1C",
"& c #23211F",
"* c #242322",
"= c #282523",
"- c #2C2826",
"; c #2D2D2C",
": c #312D2B",
"> c #36322F",
", c #343332",
"< c #3A3633",
"1 c #3D3936",
"2 c #3E3B39",
"3 c #413C37",
"4 c #423D39",
"5 c #46413D",
"6 c #49433F",
"7 c #414141",
"8 c #4B4541",
"9 c #4E4944",
"0 c #514B46",
"q c #534E4A",
"w c #56504C",
"e c #59534E",
"r c #535252",
"t c #5B5651",
"y c #5E5955",
"u c #5B5B5B",
"i c #615B56",
"p c #635E59",
"a c #66615C",
"s c #69635F",
"d c #646463",
"f c #6B6662",
"g c #6E6965",
"h c #6C6C6B",
"j c #706B67",
"k c #736E6A",
"l c #76716D",
"z c #79736F",
"x c #777675",
"c c #7A7672",
"v c #7D7975",
"b c #7B7B7B",
"n c #807B77",
"m c #827D7A",
"M c #85817D",
"N c #878787",
"B c #898581",
"V c #8D8986",
"C c #898989",
"Z c #908C88",
"A c #95918E",
"S c #919191",
"D c #9E9E9E",
"F c #A2A2A2",
"G c #ACACAC",
"H c #B4B4B4",
"J c #BBBBBB",
"K c #C3C3C3",
"L c #CCCCCC",
"P c #D4D4D4",
"I c #E4E4E4",
"U c #EBEBEB",
"Y c #F5F5F5",
"T c none",
/* pixels */
"TTTTTTTTTTTTTTTTTTTTTTTTTTTTTTTTTTTTTTTTTTTTTTTTTTTTTTTTTTTTTTTTTTTTTTTTTTTTTTTTTTTTTTTTTTTTTT",
"TTTTTTTTTTTTTTTTTTTTTTTTTTTTTTTTTTTTTTTTTTTTTTTTTTTTTTTTTTTTTTTTTTTTTTTTTTTTTTTTTTTTTTTTTTTTTT",
"TTTTTTTTTTTTTTTTTTTTTTTTTTTTTTTTTTTTTTTTTTTTTTTTTTTTTTTTTTTTTTTTTTTTTTTTTTTTTTTTTTTTTTTTTTTTTT",
"TTTTTTTTTTTTTTTTTTTTTTTTTTTTTTTTTTTTTTTTTTTTTTTTTTTTTTTTTTTTTTTTTTTTTTTTTTTTTTTTTTTTTTTTTTTTTT",
"TTTTTTTTTTTTTTTTTTTTTTTTTTTTTTTTTTTTTTTTTTTTTTTTTTTTTTTTTTTTTTTTTTTTTTTTTTTTTTTTTTTTTTTTTTTTTT",
"TTTTTTTTTTTTTTTTTTTTTTTTTTTTTTTTTTTTTTTTTTTTTTTTTTTTTTTTTTTTTTTTTTTTTTTTTTTTTTTTTTTTTTTTTTTTTT",
"TTTTTTTTTTTTTTTTTTTTTTTTTTTTTTTTTTTTTTTTTTTTTTTTTTTTTTTTTTTTTTTTTTTTTTTTTTTTTTTTTTTTTTTTTTTTTT",
"TTTTTTTTTTTTTTTTTTTTTTTTTTTTTTTTTTTTTTTTTTTTTTTTTTTTTTTTTTTTTTTTTTTTTTTTTTTTTTTTTTTTTTTTTTTTTT",
"TTTTTTTTTTTTTTTTTTTTTTTTTTTTTTTTTTTTTTTTx            xTTTTTTTTTTTTTTTTTTTTTTTTTTTTTTTTTTTTTTTT",
"TTTTTTTTTTTTTTTTTTTTTTTTTTTTTTTTTTTTTTTT;            ,TTTTTTTTTTTTTTTTTTTTTTTTTTTTTTTTTTTTTTTT",
"TTTTTTTTTTTTTTTTTTTTTTTTTTTTTTTTTTTTTTTT; 2gauw95<>$ ,TTTTTTTTTTTTTTTTTTTTTTTTTTTTTTTTTTTTTTTT",
"TTTTTTTTTTTTTTTTTTTTTTTTTTTTTTTTTTTTTTTT; qNpyteq94- ;TTTTTTTTTTTTTTTTTTTTTTTTTTTTTTTTTTTTTTTT",
"TTTTTTTTTTTTTTTTTTTTTTTTTTTTTTTTTTTTTTTT, rM9900004= ,TTTTTTTTTTTTTTTTTTTTTTTTTTTTTTTTTTTTTTTT",
"TTTTTTTTTTTTTTTTTTTTTTTTTTTTTTTTTTTTTTTT; qB0000094= ;TTTTTTTTTTTTTTTTTTTTTTTTTTTTTTTTTTTTTTTT",
"TTTTTTTTTTTTTTTTTTTTTTTTTTTTTTTTTTTTTTTT, wB0000094= ,TTTTTTTTTTTTTTTTTTTTTTTTTTTTTTTTTTTTTTTT",
"TTTTTTTTTTTTTTTTTTTTTTTTTTTTTTTTTTTTTTTT; rB0000004= ,TTTTTTTTTTTTTTTTTTTTTTTTTTTTTTTTTTTTTTTT",
"TTTTTTTTTTTTTTTTTTTTTTTTTTTTTTTICCCNNCCN# wB0000004& #CCCNCNCCITTTTTTTTTTTTTTTTTTTTTTTTTTTTTTT",
"TTTTTTTTTTTTTTTTTTTTTTTTTTTTTTTu          wk0000004-          dTTTTTTTTTTTTTTTTTTTTTTTTTTTTTTT",
"TTTTTTTTTTTTTTTTTTTTTTTTTTTTTTT0 o-=*%$$##e000000064@@++++++. rTTTTTTTTTTTTTTTTTTTTTTTTTTTTTTT",
"TTTTTTTTTTTTTTTTTTTTTTTTTTTTTTTr 2Anckdpt0000000000000000084% rTTTTTTTTTTTTTTTTTTTTTTTTTTTTTTT",
"TTTTTTTTTTTTTTTTTTTTTTTTTTTTTTTr 2A0000090000000000000000084% rTTTTTTTTTTTTTTTTTTTTTTTTTTTTTTT",
"TTTTTTTTTTTTTTTTTTTTTTTTTTTTTTTr 2A0000000000000000000000084% rTTTTTTTTTTTTTTTTTTTTTTTTTTTTTTT",
"TTTTTTTTTTTTTTTTTTTTTTTTTTTTTTTr 2A0000000000000000000000084% rTTTTTTTTTTTTTTTTTTTTTTTTTTTTTTT",
"TTTTTTTTTTTTTTTTTTTTTTTTTTTTTTTr 2A0000000000000000000000064% rTTTTTTTTTTTTTTTTTTTTTTTTTTTTTTT",
"TTTTTTTTTTTTTTTTTTTTTTTTTTTTTTTr 2c0000000000000006444444444$ rTTTTTTTTTTTTTTTTTTTTTTTTTTTTTTT",
"TTTTTTTTTTTTTTTTTTTTTTTTTTTTTTTr %::::;::6a0000000441-------+ rTTTTTTTTTTTTTTTTTTTTTTTTTTTTTTT",
"TTTTTTTTTTTTTTTTTTTTTTTTTTTTTTTr         om000000064o         rTTTTTTTTTTTTTTTTTTTTTTTTTTTTTTT",
"TTTTTTTTTTTTTTTTTTTTTTTTTTTTTTTH;******+ .m000000064. +******;HTTTTTTTTTTTTTTTTTTTTTTTTTTTTTTT",
"TTTTTTTTTTTTTTTTTTTTTTTTTTTTTTTTTTTTTTTD .m000000064. FTTTTTTTTTTTTTTTTTTTTTTTTTTTTTTTTTTTTTTT",
"TTTTTTTTTTTTTTTTTTTTTTTTTTTTTTTTTTTTTTTD .mq00000064. DTTTTTTTTTTTTTTTTTTTTTTTTTTTTTTTTTTTTTTT",
"TTTTTTTTTTTTTTTTTTTTTTTTTTTTTTTTTTTTTTTD .v900000044. DTTTTTTTTTTTTTTTTTTTTTTTTTTTTTTTTTTTTTTT",
"TTTTTTTTTTTTTTTTTTTTTTTTTTTTTTTTTTTTTTTD .<-------==. DTTTTTTTTTTTTTTTTTTTTTTTTTTTTTTTTTTTTTTT",
"TTTTTTTTTTTTTTTTTTTTTTTTTTTTTTTTTTUGbr;.              .;tbGUTTTTTTTTTTTTTTTTTTTTTTTTTTTTTTTTTT",
"TTTTTTTTTTTTTTTTTTTTTTTTTTTTTTYHd=          .               =dHYTTTTTTTTTTTTTTTTTTTTTTTTTTTTTT",
"TTTTTTTTTTTTTTTTTTTTTTTTTTTTJuX     O$-<3606000000q0643-$o.    XuJTTTTTTTTTTTTTTTTTTTTTTTTTTTT",
"TTTTTTTTTTTTTTTTTTTTTTTTTYC*    +-29000qetyteee000000990008<-+    *SYTTTTTTTTTTTTTTTTTTTTTTTTT",
"TTTTTTTTTTTTTTTTTTTTTTTTC+   O>800qtpsffsspiytewq00000000000006-O   +CYTTTTTTTTTTTTTTTTTTTTTTT",
"TTTTTTTTTTTTTTTTTTTTTTH$   %5000ijlkkjgfspiitewq000000000000000091$   *HTTTTTTTTTTTTTTTTTTTTTT",
"TTTTTTTTTTTTTTTTTTTTYu   *800ejvnllljgfsspiyteqq00000000000000000091%   dUTTTTTTTTTTTTTTTTTTTT",
"TTTTTTTTTTTTTTTTTTTK$  +600ylmmvcclkjjfspiyyeeqq000000000000000000006<+  $KTTTTTTTTTTTTTTTTTTT",
"TTTTTTTTTTTTTTTTTTG.  -00wzBMMnncllkjssspiteq00000000000000000000000064-. .FTTTTTTTTTTTTTTTTTT",
"TTTTTTTTTTTTTTTTTS  X600jBMMMmnvclkkjspew0000000000000000000000000000064<.  STTTTTTTTTTTTTTTTT",
"TTTTTTTTTTTTTTTTD  +800cZBBMMmvvzlksi0000000000000000000000000000000000541+  FTTTTTTTTTTTTTTTT",
"TTTTTTTTTTTTTTTI. +900gZZVMMmmczlke0000000000000000000000000000000000006441+ .ITTTTTTTTTTTTTTT",
"TTTTTTTTTTTTTTTU+ +000zZBBMMnnnzj000000000000000000000000000000000000006444+ +UTTTTTTTTTTTTTTT",
"TTTTTTTTTTTTTTTTH  =00gVVBMMnnzkq00000000000000000000000000000000000008444*  GTTTTTTTTTTTTTTTT",
"TTTTTTTTTTTTTTTTTh  30wMBMMmnvzp00000000000000000000000000000000000000444,  hTTTTTTTTTTTTTTTTT",
"TTTTTTTTTTTTTTTTTY, X90fMMMnnzze00000000000000000000000000000000000004444. ,YTTTTTTTTTTTTTTTTT",
"TTTTTTTTTTTTTTTTTTP. &00cMmnnllw0000000000000000000000000000000000006444% .PTTTTTTTTTTTTTTTTTT",
"TTTTTTTTTTTTTTTTTTTN  10tMnnnzlw000000000000000000000000000000000008444>  NTTTTTTTTTTTTTTTTTTT",
"TTTTTTTTTTTTTTTTTTTT, X00jnvzzlt000000000000000000000000000000000004444X ,TTTTTTTTTTTTTTTTTTTT",
"TTTTTTTTTTTTTTTTTTTTL. ;0wvczzki00000000000000000000000000000000006444-  LTTTTTTTTTTTTTTTTTTTT",
"TTTTTTTTTTTTTTTTTTTTTh  60sczlks0000000000000000000000000000000009444<. hTTTTTTTTTTTTTTTTTTTTT",
"TTTTTTTTTTTTTTTTTTTTTU# $0qllljgq000000000000000000000000000000004444# +YTTTTTTTTTTTTTTTTTTTTT",
"TTTTTTTTTTTTTTTTTTTTTTD  40plkjge00000000000000000000000000000008444<  DTTTTTTTTTTTTTTTTTTTTTT",
"TTTTTTTTTTTTTTTTTTTTTTT; #0qkjjgp00000000000000000000000000000006444+ =TTTTTTTTTTTTTTTTTTTTTTT",
"TTTTTTTTTTTTTTTTTTTTTTTF  30pjjfs0000000000000000000000000000008444,  GTTTTTTTTTTTTTTTTTTTTTTT",
"TTTTTTTTTTTTTTTTTTTTTTTT, @0qgffsw000000000000000000000000000094444@ ,TTTTTTTTTTTTTTTTTTTTTTTT",
"TTTTTTTTTTTTTTTTTTTTTTTTH  40afsae00000000000000000000000000008444,  HTTTTTTTTTTTTTTTTTTTTTTTT",
"TTTTTTTTTTTTTTTTTTTTTTTTT; $0esspi00000000000000000000000000004444# ;TTTTTTTTTTTTTTTTTTTTTTTTT",
"TTTTTTTTTTTTTTTTTTTTTTTTTD  60ssai00000000000000000000000000084441  FTTTTTTTTTTTTTTTTTTTTTTTTT",
"TTTTTTTTTTTTTTTTTTTTTTTTTY+ -0taiiq000000000000000000000000006444- +YTTTTTTTTTTTTTTTTTTTTTTTTT",
"TTTTTTTTTTTTTTTTTTTTTTTTTTh o0wpiie000000000000000000000000094444X hTTTTTTTTTTTTTTTTTTTTTTTTTT",
"TTTTTTTTTTTTTTTTTTTTTTTTTTL  40iiye00000000000000000000000008444<  LTTTTTTTTTTTTTTTTTTTTTTTTTT",
"TTTTTTTTTTTTTTTTTTTTTTTTTTT$ -0tiee00000000000000000000000004444- $TTTTTTTTTTTTTTTTTTTTTTTTTTT",
"TTTTTTTTTTTTTTTTTTTTTTTTTTTh +0wyie00000000000000000000000004444+ hTTTTTTTTTTTTTTTTTTTTTTTTTTT",
"TTTTTTTTTTTTTTTTTTTTTTTTTTTG  0qtee00000000000000000000000094444  HTTTTTTTTTTTTTTTTTTTTTTTTTTT",
"TTTTTTTTTTTTTTTTTTTTTTTTTTTI  30yee0000000000000000000000008444<  UTTTTTTTTTTTTTTTTTTTTTTTTTTT",
"TTTTTTTTTTTTTTTTTTTTTTTTTTTT# :qeew0000000000000000000000006443- $TTTTTTTTTTTTTTTTTTTTTTTTTTTT",
"TTTTTTTTTTTTTTTTTTTTTTTTTTTT2 =0ew00000000000000000000000006444* 7TTTTTTTTTTTTTTTTTTTTTTTTTTTT",
"TTTTTTTTTTTTTTTTTTTTTTTTTTTTu $qwwq0000000000000000000000006444$ uTTTTTTTTTTTTTTTTTTTTTTTTTTTT",
"TTTTTTTTTTTTTTTTTTTTTTTTTTTTd $0qq00000000000000000000000008444# hTTTTTTTTTTTTTTTTTTTTTTTTTTTT",
"TTTTTTTTTTTTTTTTTTTTTTTTTTTJ$ .+++++@++++++++++@@@+++++++++++++. $JTTTTTTTTTTTTTTTTTTTTTTTTTTT",
"TTTTTTTTTTTTTTTTTTTTTTTTTUu                                        uUTTTTTTTTTTTTTTTTTTTTTTTTT",
"TTTTTTTTTTTTTTTTTTTTTTTTT,  *;;===*****&*%%%%$$$$$$$#@@@@@@++++++O  ,TTTTTTTTTTTTTTTTTTTTTTTTT",
"TTTTTTTTTTTTTTTTTTTTTTTTT@ ,vvccclcllkkjjjggffsssapipteewqq0098988& +TTTTTTTTTTTTTTTTTTTTTTTTT",
"TTTTTTTTTTTTTTTTTTTTTTTTT# >00000000000000000000000004334333433444- #TTTTTTTTTTTTTTTTTTTTTTTTT",
"TTTTTTTTTTTTTTTTTTTTTTTTT# :00000000000000000000000004434343344334- +TTTTTTTTTTTTTTTTTTTTTTTTT",
"TTTTTTTTTTTTTTTTTTTTTTTTT# >00000000000000000000000004443344434443- #TTTTTTTTTTTTTTTTTTTTTTTTT",
"TTTTTTTTTTTTTTTTTTTTTTTTT# :00000000000000000000000053333433343434; #TTTTTTTTTTTTTTTTTTTTTTTTT",
"TTTTTTTTTTTTTTTTTTTTTTTTT# +2000000000000000000000843444344434444<X #TTTTTTTTTTTTTTTTTTTTTTTTT",
"TTTTTTTTTTTTTTTTTTTTTTTTTb                                          bTTTTTTTTTTTTTTTTTTTTTTTTT",
"TTTTTTTTTTTTTTTTTTTTTTTTTTK+                                      +KTTTTTTTTTTTTTTTTTTTTTTTTTT",
"TTTTTTTTTTTTTTTTTTTTTTTTTTTx $hfdputrq9874<<,>>>>>>>>>>,>>>>>>>,X xTTTTTTTTTTTTTTTTTTTTTTTTTTT",
"TTTTTTTTTTTTTTTTTTTTTTTTTTTb *mvckhdpytq9851<<<<<<1<<<<<<<1<<<<<O xTTTTTTTTTTTTTTTTTTTTTTTTTTT",
"TTTTTTTTTTTTTTTTTTTTTTTTTTTx                                      xTTTTTTTTTTTTTTTTTTTTTTTTTTT",
"TTTTTTTTTTTTTTTTTTTTTTTTTTTJ.                                    .JTTTTTTTTTTTTTTTTTTTTTTTTTTT",
"TTTTTTTTTTTTTTTTTTTTTTTTTTTTTTTTTTTTTTTTTTTTTTTTTTTTTTTTTTTTTTTTTTTTTTTTTTTTTTTTTTTTTTTTTTTTTT",
"TTTTTTTTTTTTTTTTTTTTTTTTTTTTTTTTTTTTTTTTTTTTTTTTTTTTTTTTTTTTTTTTTTTTTTTTTTTTTTTTTTTTTTTTTTTTTT",
"TTTTTTTTTTTTTTTTTTTTTTTTTTTTTTTTTTTTTTTTTTTTTTTTTTTTTTTTTTTTTTTTTTTTTTTTTTTTTTTTTTTTTTTTTTTTTT",
"TTTTTTTTTTTTTTTTTTTTTTTTTTTTTTTTTTTTTTTTTTTTTTTTTTTTTTTTTTTTTTTTTTTTTTTTTTTTTTTTTTTTTTTTTTTTTT",
"TTTTTTTTTTTTTTTTTTTTTTTTTTTTTTTTTTTTTTTTTTTTTTTTTTTTTTTTTTTTTTTTTTTTTTTTTTTTTTTTTTTTTTTTTTTTTT",
"TTTTTTTTTTTTTTTTTTTTTTTTTTTTTTTTTTTTTTTTTTTTTTTTTTTTTTTTTTTTTTTTTTTTTTTTTTTTTTTTTTTTTTTTTTTTTT",
"TTTTTTTTTTTTTTTTTTTTTTTTTTTTTTTTTTTTTTTTTTTTTTTTTTTTTTTTTTTTTTTTTTTTTTTTTTTTTTTTTTTTTTTTTTTTTT"
};
