/* XPM */
static const char *xpm_bN[] = {
"94 94 99 2",
"  	c None",
". 	c #0D0D0D",
"+ 	c #1B1B1B",
"@ 	c #353535",
"# 	c #161616",
"$ 	c #0E0E0E",
"% 	c #2E2E2E",
"& 	c #282828",
"* 	c #242424",
"= 	c #232323",
"- 	c #323232",
"; 	c #303030",
"> 	c #2D2D2D",
", 	c #292929",
"' 	c #191919",
") 	c #101010",
"! 	c #343434",
"~ 	c #272727",
"{ 	c #4E4E4E",
"] 	c #4B4B4B",
"^ 	c #2F2F2F",
"/ 	c #202020",
"( 	c #121212",
"_ 	c #333333",
": 	c #111111",
"< 	c #1D1D1D",
"[ 	c #141414",
"} 	c #3C3C3C",
"| 	c #838383",
"1 	c #848484",
"2 	c #1F1F1F",
"3 	c #393939",
"4 	c #7C7C7C",
"5 	c #4A4A4A",
"6 	c #818181",
"7 	c #171717",
"8 	c #606060",
"9 	c #686868",
"0 	c #383838",
"a 	c #828282",
"b 	c #7D7D7D",
"c 	c #2C2C2C",
"d 	c #222222",
"e 	c #313131",
"f 	c #7E7E7E",
"g 	c #6E6E6E",
"h 	c #5B5B5B",
"i 	c #797979",
"j 	c #373737",
"k 	c #7F7F7F",
"l 	c #747474",
"m 	c #2B2B2B",
"n 	c #5D5D5D",
"o 	c #3D3D3D",
"p 	c #131313",
"q 	c #3A3A3A",
"r 	c #212121",
"s 	c #6C6C6C",
"t 	c #777777",
"u 	c #7A7A7A",
"v 	c #5F5F5F",
"w 	c #555555",
"x 	c #5C5C5C",
"y 	c #0F0F0F",
"z 	c #1E1E1E",
"A 	c #3B3B3B",
"B 	c #262626",
"C 	c #626262",
"D 	c #868686",
"E 	c #6A6A6A",
"F 	c #2A2A2A",
"G 	c #363636",
"H 	c #7B7B7B",
"I 	c #1A1A1A",
"J 	c #151515",
"K 	c #252525",
"L 	c #434343",
"M 	c #414141",
"N 	c #0C0C0C",
"O 	c #505050",
"P 	c #444444",
"Q 	c #717171",
"R 	c #757575",
"S 	c #1C1C1C",
"T 	c #3E3E3E",
"U 	c #535353",
"V 	c #424242",
"W 	c #656565",
"X 	c #464646",
"Y 	c #5A5A5A",
"Z 	c #585858",
"` 	c #4F4F4F",
" .	c #3F3F3F",
"..	c #474747",
"+.	c #575757",
"@.	c #454545",
"#.	c #565656",
"$.	c #525252",
"%.	c #595959",
"                                                                                                                                                                                            ",
"                                                                                                                                                                                            ",
"                                                                                                                                                                                            ",
"                                                                                                                                                                                            ",
"                                                                                                                                                                                            ",
"                                                                                                                                                                                            ",
"                                                                                                                                                                                            ",
"                                                                                                                                                                                            ",
"                                                                                                                                                                                            ",
"                                                                                            . .                                                                                             ",
"                                                                                            . . . .           . .                                                                           ",
"                                                                          .                 . + . . . .     . . .                                                                           ",
"                                                                          . . . . . . . . . . . @ @ @ # . . . . $ .                                                                         ",
"                                                                          . % & * = @ - ; > . . @ @ @ @ , . . ' @ . .                                                                       ",
"                                                                          . ) & @ @ @ @ @ @ @ @ @ @ @ @ @ @ . ! @ $ .                                                                       ",
"                                                                          . . ~ ! @ @ @ @ @ @ @ @ @ @ @ @ @ @ @ @ { .                                                                       ",
"                                                                          . . ~ ~ ~ @ ~ @ @ @ @ @ @ @ @ @ @ @ @ @ ] { .     .                                                               ",
"                                                                        . . . ~ ~ ~ ~ ~ ~ ^ @ @ @ @ @ @ @ @ @ @ @ @ { .   . .                                                               ",
"                                                                      . . ~ ~ ~ ~ ~ ~ ~ ~ ~ @ @ @ @ @ @ @ @ @ @ @ @ { . . . .                                                               ",
"                                                                      . $ / ( . ~ ~ ~ ~ ~ ~ & @ ~ _ @ @ @ @ @ @ @ @ @ . . @ .                                                               ",
"                                                                      . : . . . . : ~ ~ ~ ~ ~ ~ < . @ @ @ @ @ @ @ @ @ { { [ .         .                                                     ",
"                                                                    . . . } | 1 . . ~ ~ ~ ~ 2 . . . ~ - @ @ @ @ @ @ @ 3 @ . .       . .                                                     ",
"                                                                  . . . ' 4 4 1 5 . . . . . . . + . ~ ~ @ @ @ @ @ @ @ @ @ . . . . . . .                                                     ",
"                                                                      . 4 4 4 6 1 7 . . . . . 8 9 . ~ ~ ^ @ @ $ 2 @ @ @ 0 . . . . ! 4 .                                                     ",
"                                                                    . & 4 4 4 4 4 a 1 1 1 1 b 4 . . . . ~ c d . . e @ @ { . 5 1 f 4 g .                                                     ",
"                                                                    . h 4 4 4 4 4 4 4 4 4 4 4 i . . . . . ) . . . . # j { . k 4 4 l m                                                       ",
"                                                                  . . n n 4 4 4 4 4 4 4 4 4 n n . . # o . . . ; o . . < p 0 4 4 4 h .                                                       ",
"                                                                  . . n n 4 4 4 4 4 4 4 4 8 n $ . . q o o > r o o o ) . . s 4 8 n . .                                                       ",
"                                                                  . . / n n n t 4 4 u v n n . . o _ o o o o o o o o o . . $ n n n . .                                                       ",
"                                                                  . . . @ n n n n n n n n n . . o o o o o o o o o o o o w . n n . .                                                         ",
"                                                                  . . . . & x n n n n n : . . o o o o o o o o o o o o o w . x . .                                                           ",
"                                                                  . [ . . . . . . . . . . . o o o o o o o o o o o o o o w . . .                                                             ",
"                                                                  . y o . . . . . . . . 3 . > q o o o o o o o o o o o o w . .                                                               ",
"                                                                . . . o o . . . > o o o . . . . . y o o o o o o o o o y . . .                                                               ",
"                                                                . . . @ o o ) . & o o o . . : . . . . . z o o o o . . . . . .                                                               ",
"                                                              . . . . > q o o 3 . o o o . ) o o o A . . . . o . . . . } o o .                                                               ",
"                                                              . d . . > > 0 o o . B o o . e o o o o o o p . o . . o o o o o $                                                               ",
"                                                            . . # ! . > > > > > % % o o . . . e o o o o . . o . . o o o o . .                                                               ",
"                                                            . . . < $ . > > > > > > o o + . . . . * o o . . o . . o o . . . .                                                               ",
"                                                                . @ @ . $ > > > > > o o # . C ) . . . [ . . o . . / . . . . .                                                               ",
"                                                                . @ @ . . . ' > > > o o - . D D D E . . . : o [ . . . D D . .                                                               ",
"                                                              . . @ & : . . p > > F G o o . D D D D D H . o o o # [ D D D .                                                                 ",
"                                                              . I ~ ~ ~ . 2 > > > > F A o . a D D D D . % o o o o . D D D .                                                                 ",
"                                                              . . . . J r . c > > > > > o 0 . H D D . . . . p . . . $ D G .                                                                 ",
"                                                                  . . 2 ~ . . > > > > > > o . . . . . . . . . . . . . . . .                                                                 ",
"                                                                    . ~ ~ $ . . > > . # ! o o y . . 3 . K A L L L . % y #                                                                   ",
"                                                                  . . $ . ~ . . > > . . q o o o o o o . J K K K M . o o .                                                                   ",
"                                                                  . . N . . . . . F > > > o o o o o o $ . . K = . [ o ) .                                       .                           ",
"                                                                      . . . . . . . > > > > o o o o o o y . . . . o o . .                                   . . . .                         ",
"                                                                    . ( > > > > . . . $ > > q o o o o o o A . . ! o o .                                   . . $ M .                         ",
"                                                                    . > > o o o . . . . . F > > o o o o o o o o o o o .                             . . . . z . O p .                       ",
"                                                                  . . . o o o o . . P J . . J > > _ o o o o o o o o y                               . 7 . y ~ & O O .                       ",
"                                                                  . . . o o o o . . P P 0 . . . . ' ^ o o o o o o ^ .                             . Q R . . & & q O . .                     ",
"                                                                  . c > o o o o . S P P P P ( . . . . K o o o o o . .                           . . 7 R . y & & K O . .                     ",
"                                                                  . y > o o o o . P P P P P P P P G . . o . o o . . .                           . . . 9 . . > = . * q .                     ",
"                                                                  d F } o o o ; . P P P P P P P P P P . . . . % . . .                         . J j . J 9 . j & & . O .                     ",
"                                                                . > > o o o o . T P P P P P P P P P P P . . . . . . .                     . . . j j . . 9 . , , & y O .                     ",
"                                                                . > > o o o o . P P P P P P P P P P P P 2 . . . . . .                   . . . . ! . y . 9 U . & & & . .                     ",
"                                                              . . > > o o o o . P P P P P P P P P P P P P P V . . . .                 . . R . . . ^ j . v 9 . . & J . .                     ",
"                                                              . . > > o o o # . P P P P P P P P P P P P P P P / J . $ . . .           . . R . . j j j j . { . . . .                         ",
"                                                              . . S > o o o . . P P P P P P P P P P P P P P P e O . . . . .           . . 9 W . j j ! j . c X . .                           ",
"                                                          . * e . . . y * } . . P P P P P P P P P P P P P P P ] Y . . R .             . . h 9 . < j & , . . . .                             ",
"                                                          . # { { [ . . . . . . 0 P P P P P P P P P P P P P Z Y 0 . 9 R .         . . , > . 9 9 . & & & . . . .                             ",
"                                                            . { { . I . ` . . . _ _  .P P P P P P P ..] Y Y Y Y . . 9 . .         . . j , . Z 9 . . . . .                                   ",
"                                                            . . / . +.. 9 R y r . _ _ _ M P P P P P P P X @.Y #.. . B . . . . . . = j & j . . 9 . . . .                                     ",
"                                                            . . . . . . 9 R . # . _ _ _ P P P P P P P P P P Y ( . . . z o $ . . . j & c & : . . { .                                         ",
"                                                            . j . . . . . . . . _ _ _ @ P P P P P P P P P $.Y . . . . o o o . 7 j & & = . . . . . .                                         ",
"                                                          . . o o @ y . . . . - _ _ _ P P P P P P _ P P P +.- . . * o o o o . ! & & J . . .   . . .                                         ",
"                                                          . > o o o o o o . . . . . . . . . . . . . . . . . . . . . o o o o . [ r . .                                                       ",
"                                                          . > o o o o o o % . . . . . . . . . . . . . . . : } } } . o q > o } . . .                                                         ",
"                                                          $ > o o o o o o o . . > > > > } } } 0 . . . . } ^ . . . . o > > o o . .                                                           ",
"                                                          + > o o o o o o G . . . . . . . . . . G . . ^ . . . . . y > > > > o .                                                             ",
"                                                          S > o o o o o o . . . . . . . . . . } . . . } . . P Y . > > > > > B .                                                             ",
"                                                          7 > > > o o o o . K P P P P P P P q } 3 z y . . P P Y . > > > > z .                                                               ",
"                                                          . > > > o o o o . ; P P P P P P P [ . P P P . . o %.[ . > > > > . .                                                               ",
"                                                          . > > > ^ G _ z . _ _ o _ P P P P . < P P P ~ . P Y . . < > > 7 .                                                                 ",
"                                                          . . . p p . . . # _ _ _ _ A P _ ! P P P P ..Y P P J . . . > . .                                                                   ",
"                                                            . . . . . . . . p _ _ ( - _ _ _ P P P P , [ Y Y . . o . . . .                                                                   ",
"                                                                        . . . . . . . y ; $ . ' P ; . . . . . } o . .                                                                       ",
"                                                                        . > $ . . j . . . . . . . . ( > . . A o o .                                                                         ",
"                                                                        . . . . . . . . .     . . . . . . . . . . .                                                                         ",
"                                                                        . . . . . . . . .       . . . . . . . . . .                                                                         ",
"                                                                      . . + K K K K K L . .     . . + + K K K K L .                                                                         ",
"                                                                      . . + K K K K K c . .     . . + + K K . K c . .                                                                       ",
"                                                                      . . . . . . . . . . .     . . . . . . . . . . .                                                                       ",
"                                                                        . . . . . . . . . .     . . . . . . . . . . .                                                                       ",
"                                                                                                                                                                                            ",
"                                                                                                                                                                                            ",
"                                                                                                                                                                                            ",
"                                                                                                                                                                                            ",
"                                                                                                                                                                                            ",
"                                                                                                                                                                                            ",
"                                                                                                                                                                                            ",
"                                                                                                                                                                                            "};
