/* XPM */
static const char *xpm_bN[] = {
/* columns rows colors chars-per-pixel */
"94 94 75 1 ",
"  c #000000",
". c #080707",
"X c #080807",
"o c #0C0B0B",
"O c #100F0E",
"+ c #11100F",
"@ c #151413",
"# c #181716",
"$ c #1A1917",
"% c #1C1B1A",
"& c #211F1D",
"* c #23211E",
"= c #242322",
"- c #292624",
"; c #2C2927",
": c #2E2C2A",
"> c #322E2B",
", c #35312E",
"< c #353332",
"1 c #3A3633",
"2 c #3D3936",
"3 c #3C3B3A",
"4 c #403B37",
"5 c #413C38",
"6 c #46413D",
"7 c #49433F",
"8 c #454443",
"9 c #4B4641",
"0 c #4E4944",
"q c #4C4C4B",
"w c #514B46",
"e c #534E4A",
"r c #55514D",
"t c #59534E",
"y c #535251",
"u c #5A5551",
"i c #5E5955",
"p c #5C5C5C",
"a c #615B57",
"s c #635E5A",
"d c #65615D",
"f c #69635F",
"g c #646363",
"h c #6B6662",
"j c #6E6965",
"k c #6D6D6C",
"l c #706B67",
"z c #726E6A",
"x c #76726E",
"c c #78736F",
"v c #747474",
"b c #7A7672",
"n c #7E7975",
"m c #7B7A7A",
"M c #817D79",
"N c #86827E",
"B c #848484",
"V c #898581",
"C c #8D8986",
"Z c #8A8A8A",
"A c #949493",
"S c #9B9794",
"D c #9B9B9B",
"F c #A1A1A1",
"G c #AAAAAA",
"H c #B5B5B5",
"J c #BCBCBC",
"K c #C3C3C3",
"L c #CCCCCC",
"P c #D5D5D5",
"I c #DCDCDC",
"U c #E2E2E2",
"Y c #EDEDED",
"T c #F4F4F4",
"R c none",
/* pixels */
"RRRRRRRRRRRRRRRRRRRRRRRRRRRRRRRRRRRRRRRRRRRRRRRRRRRRRRRRRRRRRRRRRRRRRRRRRRRRRRRRRRRRRRRRRRRRRR",
"RRRRRRRRRRRRRRRRRRRRRRRRRRRRRRRRRRRRRRRRRRRRRRRRRRRRRRRRRRRRRRRRRRRRRRRRRRRRRRRRRRRRRRRRRRRRRR",
"RRRRRRRRRRRRRRRRRRRRRRRRRRRRRRRRRRRRRRRRRRRRRRRRRRRRRRRRRRRRRRRRRRRRRRRRRRRRRRRRRRRRRRRRRRRRRR",
"RRRRRRRRRRRRRRRRRRRRRRRRRRRRRRRRRRRRRRRRRRRRRRRRRRRRRRRRRRRRRRRRRRRRRRRRRRRRRRRRRRRRRRRRRRRRRR",
"RRRRRRRRRRRRRRRRRRRRRRRRRRRRRRRRRRRRRRRRRRRRRRRRRRRRRRRRRRRRRRRRRRRRRRRRRRRRRRRRRRRRRRRRRRRRRR",
"RRRRRRRRRRRRRRRRRRRRRRRRRRRRRRRRRRRRRRRRRRRRRRRRRRRRRRRRRRRRRRRRRRRRRRRRRRRRRRRRRRRRRRRRRRRRRR",
"RRRRRRRRRRRRRRRRRRRRRRRRRRRRRRRRRRRRRRRRRRRRRRRRRRRRRRRRRRRRRRRRRRRRRRRRRRRRRRRRRRRRRRRRRRRRRR",
"RRRRRRRRRRRRRRRRRRRRRRRRRRRRRRRRRRRRRRRRRRRRRRRRRRRRRRRRRRRRRRRRRRRRRRRRRRRRRRRRRRRRRRRRRRRRRR",
"RRRRRRRRRRRRRRRRRRRRRRRRRRRRRRRRRRRRRRRRRRRRRRRRRRRRRRRRRRRRRRRRRRRRRRRRRRRRRRRRRRRRRRRRRRRRRR",
"RRRRRRRRRRRRRRRRRRRRRRRRRRRRRRRRRRRRRRRRRRRRRRRRRRRRRRRRRRRRRRRRRRRRRRRRRRRRRRRRRRRRRRRRRRRRRR",
"RRRRRRRRRRRRRRRRRRRRRRRRRRRRRRRRRRRRRRRRRRRRRRRRRRRRRRRRRRRRRRRRRRRRRRRRRRRRRRRRRRRRRRRRRRRRRR",
"RRRRRRRRRRRRRRRRRRRRRRRRRRRRRRRRRRRRRRRRRRRRRRRRRRRRRRRRRRRRRRRRRRRRRRRRRRRRRRRRRRRRRRRRRRRRRR",
"RRRRRRRRRRRRRRRRRRRRRRRRRRRRRRRRRRRRRRRRRRRRRRRRRRRRRRRRRRRRRRRRRRRRRRRRRRRRRRRRRRRRRRRRRRRRRR",
"RRRRRRRRRRRRRRRRRRRRRRRRRRRRRRRRRRRRRRRRRRRRRRRRRRRRRRRRRRRRRRRRRRRRRRRRRRRRRRRRRRRRRRRRRRRRRR",
"RRRRRRRRRRRRRRRRRRRRRRRRRRRRRRRRRRRRRRRRRRRRRRRRRRRRRRRRRRRRRRRRRRRRRRRRRRRRRRRRRRRRRRRRRRRRRR",
"RRRRRRRRRRRRRRRRRRRRRRRRRRRRRRRRRRRRRRRRRRRRRRRRRRTmmGURRRRRRRRRRRRRRRRRRRRRRRRRRRRRRRRRRRRRRR",
"RRRRRRRRRRRRRRRRRRRRRRRRRRRRRRRRRRRRRRRRRRRRRRRRRRp    %yZKTRRRRRRRRRRRRRRRRRRRRRRRRRRRRRRRRRR",
"RRRRRRRRRRRRRRRRRRRRRRRRRRRRRRRRRRRRRRRRRRRRRRRRRm  +      .<kFPRRRRRRRRRRRRRRRRRRRRRRRRRRRRRR",
"RRRRRRRRRRRRRRRRRRRRRRRRRRRRRRRRRRRRRRRRRRRRRRRRD  &ww4;%X      @yPIIIRRRRRRRRRRRRRRRRRRRRRRRR",
"RRRRRRRRRRRRRRRRRRRRRRRRRRRRRRRRRRRRRRRRRRRRUJDv  #0w0o               yRRRRRRRRRRRRRRRRRRRRRRR",
"RRRRRRRRRRRRRRRRRRRRRRRRRRRRRRRRRRRRYLGBg8=.     O0ww>                <RRRRRRRRRRRRRRRRRRRRRRR",
"RRRRRRRRRRRRRRRRRRRRRRRRRRRRTPHAvy:o          X#=9wwwO 5Mnzhsurw0966@ pRRRRRRRRRRRRRRRRRRRRRRR",
"RRRRRRRRRRRRRRRRRRRRRTKDmp3%          .#=>39etttewwww*ozeewwwwwwwww5  GRRRRRRRRRRRRRRRRRRRRRRR",
"RRRRRRRRRRRRRRRRRRRRmX        .#;28yshhdateewwwwwwwwwwewwwwwwwwwww0@ =TRRRRRRRRRRRRRRRRRRRRRRR",
"RRRRRRRRRRRRRRRRRRRv   #>8rszMNnzhauwwwww0541,>=*$*wwwwwwwwwwwwww9+  HRRRRRRRRRRRRRRRRRRRRRRRR",
"RRRRRRRRRRRRRRRRRRP  0DSCnxgiewww0wwwwwww9,#    O>5wwwwwwwwwwwww,X  DRRRRRRRRRRRRRRRRRRRRRRRRR",
"RRRRRRRRRRRRRRRRRRg #SawwwwwwwwwwwwwwwwwwwwwO   -wwwwwwwwwwww0>@   kRRRRRRRRRRRRRRRRRRRRRRRRRR",
"RRRRRRRRRRRRRRRRRR% ss5>,wwwwwwwwwwwwwwwwwww4@o*9wwwwwwww02;#    . vRRRRRRRRRRRRRRRRRRRRRRRRRR",
"RRRRRRRRRRRRRRRRRP  g4  ;wwwwwwwwwwwwwwwwwwwwwwwwwwwwwwww-     %4* qRRRRRRRRRRRRRRRRRRRRRRRRRR",
"RRRRRRRRRRRRRRRRRH  t& $wwwwwwwwwwwwwwwwwwwwwwwwwwwwwwwww> o%,9ww; %RRRRRRRRRRRRRRRRRRRRRRRRRR",
"RRRRRRRRRRRRRRRRRD Xw45wwwwwwwwwwwwwwwwwwwwwwwwwwwwwwwwwwwwwwwwww2  TRRRRRRRRRRRRRRRRRRRRRRRRR",
"RRRRRRRRRRRRRRRRRB +wwwwwwwwwwwwwwwwwwwwwwwwwwwwwwwwwwwwwwwwwwwww9  LRRRRRRRRRRRRRRRRRRRRRRRRR",
"RRRRRRRRRRRRRRRRRZ +wwwwwwwwwwwwwwwwwwwwwwwwwwwwwwwwwwwwwwwwwwww07. FRRRRRRRRRRRRRRRRRRRRRRRRR",
"RRRRRRRRRRRRRRRRRZ o;-:1wwwwwwwwwwwwwwwwwwwwwwwwwwwwwwwwwwwwwww745+ vRRRRRRRRRRRRRRRRRRRRRRRRR",
"RRRRRRRRRRRRRRRRRZ      @9wwwwwwwwwwwwwwwwwwwwwwwwwwwwwwwwwwww5555% qRRRRRRRRRRRRRRRRRRRRRRRRR",
"RRRRRRRRRRRRRRRRRP%%:3@  ;wwwwwwwwwwwwwwwwwwwwwwwwww0wwwwwwww75555- =RRRRRRRRRRRRRRRRRRRRRRRRR",
"RRRRRRRRRRRRRRRRRRL8*    @wwwwwwwwwwwwwwwwwwwwwwwww5wwwwwwww755545> .TRRRRRRRRRRRRRRRRRRRRRRRR",
"RRRRRRRRRRRRRRRRRRk     X:wwwwwwwwwwwwwwwwwwwwwwww77wwwwwwww555555:  URRRRRRRRRRRRRRRRRRRRRRRR",
"RRRRRRRRRRRRRRRRRRZ .15wwwwwwwwwwwwwwwwwwwwwwwwww95wwwwwwww7555555@ qRRRRRRRRRRRRRRRRRRRRRRRRR",
"RRRRRRRRRRRRRRRRRRK  797777666667700wwwwwwwwwwww755wwwwwwww555555>  KRRRRRRRRRRRRRRRRRRRRRRRRR",
"RRRRRRRRRRRRRRRRRRT% %555552>-***-,55679wwwwww05557wwwwwwww555555+ qRRRRRRRRRRRRRRRRRRRRRRRRRR",
"RRRRRRRRRRRRRRRRRRRZ  #*$o.        X*3555575755556wwwwwwww7555552  HRRRRRRRRRRRRRRRRRRRRRRRRRR",
"RRRRRRRRRRRRRRRRRRRRy        =<33%   X<55555755550wwwwwwww655555= %RRRRRRRRRRRRRRRRRRRRRRRRRRR",
"RRRRRRRRRRRRRRRRRRRRRDy3pmGPTRRRRRImX  ;555555556wwwwwwwww555555. BRRRRRRRRRRRRRRRRRRRRRRRRRRR",
"RRRRRRRRRRRRRRRRRRRRRRRRRRRRRRRRRRRRI<  >5555555wwwwwwwwww55555,  IRRRRRRRRRRRRRRRRRRRRRRRRRRR",
"RRRRRRRRRRRRRRRRRRRRRRRRRRRRRRRRRRRRRY> .5555550wwwwwwwww055545* :RRRRRRRRRRRRRRRRRRRRRRRRRRRR",
"RRRRRRRRRRRRRRRRRRRRRRRRRRRRRRRRRRRRRRUO $55570wwwwwwwwww755555+ vRRRRRRRRRRRRRRRRRRRRRRRRRRRR",
"RRRRRRRRRRRRRRRRRRRRRRRRRRRRRRRRRRRRRRRD  59ewwwwwwwwwwww755555  JRRRRRRRRRRRRRRRRRRRRRRRRRRRR",
"RRRRRRRRRRRRRRRRRRRRRRRRRRRRRRRRRRRRRRRP  -wwwwwwwwwwwwww75555,  TRRRRRRRRRRRRRRRRRRRRRRRRRRRR",
"RRRRRRRRRRRRRRRRRRRRRRRRRRRRRRRRRRRRRRT< .7wwwwwwwwwwwwww75555- :RRRRRRRRRRRRRRRRRRRRRRRRRRRRR",
"RRRRRRRRRRRRRRRRRRRRRRRRRRRRRRRRRRRRRRy  2wwwwwwwwwwwwwww75554& pRRRRRRRRRRRRRRRRRRRRRRRRRRRRR",
"RRRRRRRRRRRRRRRRRRRRRRRRRRRRRRRRRRRRRp  ;wwwwwwwwwwwwwwww65555O BRRRRRRRRRRRRRRRRRRRRRRRRRRRRR",
"RRRRRRRRRRRRRRRRRRRRRRRRRRRRRRRRRRRRk  =wwwwwwwwwwwwwwwww65545. GRRRRRRRRRRRRRRRRRRRRRRRRRRRRR",
"RRRRRRRRRRRRRRRRRRRRRRRRRRRRRRRRRRRv  &wwwwwwwwwwwwwwwwww74555  LRRRRRRRRRRRRRRRRRRRRRRRRRRRRR",
"RRRRRRRRRRRRRRRRRRRRRRRRRRRRRRRRRRm  &wwwwwwwwwwwwwwwwwww65451  IRRRRRRRRRRRRRRRRRRRRRRRRRRRRR",
"RRRRRRRRRRRRRRRRRRRRRRRRRRRRRRRRRD  $etwwwwwwwwwwwwwwwwww65551  TRRRRRRRRRRRRRRRRRRRRRRRRRRRRR",
"RRRRRRRRRRRRRRRRRRRRRRRRRRRRRRRRH  #eaewwwwwwwwwwwwwwwwww6554,  RRRRRRRRRRRRRRRRRRRRRRRRRRRRRR",
"RRRRRRRRRRRRRRRRRRRRRRRRRRRRRRRLo +wfiwwwwwwwwwwwwwwwwwww6545> XRRRRRRRRRRRRRRRRRRRRRRRRRRRRRR",
"RRRRRRRRRRRRRRRRRRRRRRRRRRRRRRT- X9jfewwwwwwwwwwwwwwwwwww6455> XRRRRRRRRRRRRRRRRRRRRRRRRRRRRRR",
"RRRRRRRRRRRRRRRRRRRRRRRRRRRRRRg  5lzawwwwwwwwwwwwwwwwwwww6555, XRRRRRRRRRRRRRRRRRRRRRRRRRRRRRR",
"RRRRRRRRRRRRRRRRRRRRRRRRRRRRRK  ;sbltwwwwwwwwwwwwwwwwwwww6555>  RRRRRRRRRRRRRRRRRRRRRRRRRRRRRR",
"RRRRRRRRRRRRRRRRRRRRRRRRRRRRR3 +tMcfwwwwwwwwwwwwwwwwwwwww74551  YRRRRRRRRRRRRRRRRRRRRRRRRRRRRR",
"RRRRRRRRRRRRRRRRRRRRRRRRRRRRH  4cMxiwwwwwwwwwwwwwwwwwwwww65451  IRRRRRRRRRRRRRRRRRRRRRRRRRRRRR",
"RRRRRRRRRRRRRRRRRRRRRRRRRRRRe @tNMztwwwwwwwwwwwwwwwwwwwww75545  KRRRRRRRRRRRRRRRRRRRRRRRRRRRRR",
"RRRRRRRRRRRRRRRRRRRRRRRRRRRYX <zNMltwwwwwwwwwwwwwwwwwwwww65554. FRRRRRRRRRRRRRRRRRRRRRRRRRRRRR",
"RRRRRRRRRRRRRRRRRRRRRRRRRRRG  wNMcjewwwwwwwwwwwwwwwwwwwww65555+ BRRRRRRRRRRRRRRRRRRRRRRRRRRRRR",
"RRRRRRRRRRRRRRRRRRRRRRRRRRRk @tCMcftwwwwwwwwwwwwwwwwwwwww65555$ pRRRRRRRRRRRRRRRRRRRRRRRRRRRRR",
"RRRRRRRRRRRRRRRRRRRRRRRRRRR3 =sVMzftwwwwwwwwwwwwwwwwwwwww75445* 3RRRRRRRRRRRRRRRRRRRRRRRRRRRRR",
"RRRRRRRRRRRRRRRRRRRRRRRRRRR= >hNnlstwwwwwwwwwwwwwwwwwwwww74554: XRRRRRRRRRRRRRRRRRRRRRRRRRRRRR",
"RRRRRRRRRRRRRRRRRRRRRRRRRRR@ 1lNclstwwwwwwwwwwwwwwwwwwwww655542  LRRRRRRRRRRRRRRRRRRRRRRRRRRRR",
"RRRRRRRRRRRRRRRRRRRRRRRRRRRo 1lMcjaewwwwwwwwwwwwwwwwwwwww755455X DRRRRRRRRRRRRRRRRRRRRRRRRRRRR",
"RRRRRRRRRRRRRRRRRRRRRRRRRRR# >lMzfawwwwwwwwwwwwwwwwwwwwww554555# yRRRRRRRRRRRRRRRRRRRRRRRRRRRR",
"RRRRRRRRRRRRRRRRRRRRRRRRRRR= X%=%%%@@@#@@@@@@@@#@@@@#@@@@@OO+++X .HRRRRRRRRRRRRRRRRRRRRRRRRRRR",
"RRRRRRRRRRRRRRRRRRRRRRRRRYp                                        pYRRRRRRRRRRRRRRRRRRRRRRRRR",
"RRRRRRRRRRRRRRRRRRRRRRRRR3  ;yyreeeqq0888988655353221<<,<,>;>;;-=@  <RRRRRRRRRRRRRRRRRRRRRRRRR",
"RRRRRRRRRRRRRRRRRRRRRRRRR# <nnbbbcvxzxzzljjhhhfffsssauttreeew0w909= #RRRRRRRRRRRRRRRRRRRRRRRRR",
"RRRRRRRRRRRRRRRRRRRRRRRRR# ,wwwwwwwwwwwwwwwwwwwwwwwww5555455455555; #RRRRRRRRRRRRRRRRRRRRRRRRR",
"RRRRRRRRRRRRRRRRRRRRRRRRR% >wwwwwwwwwwwwwwwwwwwwwwwww5545545555445; #RRRRRRRRRRRRRRRRRRRRRRRRR",
"RRRRRRRRRRRRRRRRRRRRRRRRR% ,wwwwwwwwwwwwwwwwwwwwwwwww5555555454554; #RRRRRRRRRRRRRRRRRRRRRRRRR",
"RRRRRRRRRRRRRRRRRRRRRRRRR# >wwwwwwwwwwwwwwwwwwwwwww065554545555555; #RRRRRRRRRRRRRRRRRRRRRRRRR",
"RRRRRRRRRRRRRRRRRRRRRRRRR% O5wwwwwwwwwwwwwwwwwweww955555555555554<@ %RRRRRRRRRRRRRRRRRRRRRRRRR",
"RRRRRRRRRRRRRRRRRRRRRRRRRm                                          mRRRRRRRRRRRRRRRRRRRRRRRRR",
"RRRRRRRRRRRRRRRRRRRRRRRRRRK@                                      @JRRRRRRRRRRRRRRRRRRRRRRRRRR",
"RRRRRRRRRRRRRRRRRRRRRRRRRRRm %kjgdpuueq96521,,,,,,,<,,,,,,,<,,,,o vRRRRRRRRRRRRRRRRRRRRRRRRRRR",
"RRRRRRRRRRRRRRRRRRRRRRRRRRRm =Nnnxkhgsire09555545555545555555455+ mRRRRRRRRRRRRRRRRRRRRRRRRRRR",
"RRRRRRRRRRRRRRRRRRRRRRRRRRRm                                      mRRRRRRRRRRRRRRRRRRRRRRRRRRR",
"RRRRRRRRRRRRRRRRRRRRRRRRRRRH.                                    .HRRRRRRRRRRRRRRRRRRRRRRRRRRR",
"RRRRRRRRRRRRRRRRRRRRRRRRRRRRRRRRRRRRRRRRRRRRRRRRRRRRRRRRRRRRRRRRRRRRRRRRRRRRRRRRRRRRRRRRRRRRRR",
"RRRRRRRRRRRRRRRRRRRRRRRRRRRRRRRRRRRRRRRRRRRRRRRRRRRRRRRRRRRRRRRRRRRRRRRRRRRRRRRRRRRRRRRRRRRRRR",
"RRRRRRRRRRRRRRRRRRRRRRRRRRRRRRRRRRRRRRRRRRRRRRRRRRRRRRRRRRRRRRRRRRRRRRRRRRRRRRRRRRRRRRRRRRRRRR",
"RRRRRRRRRRRRRRRRRRRRRRRRRRRRRRRRRRRRRRRRRRRRRRRRRRRRRRRRRRRRRRRRRRRRRRRRRRRRRRRRRRRRRRRRRRRRRR",
"RRRRRRRRRRRRRRRRRRRRRRRRRRRRRRRRRRRRRRRRRRRRRRRRRRRRRRRRRRRRRRRRRRRRRRRRRRRRRRRRRRRRRRRRRRRRRR",
"RRRRRRRRRRRRRRRRRRRRRRRRRRRRRRRRRRRRRRRRRRRRRRRRRRRRRRRRRRRRRRRRRRRRRRRRRRRRRRRRRRRRRRRRRRRRRR",
"RRRRRRRRRRRRRRRRRRRRRRRRRRRRRRRRRRRRRRRRRRRRRRRRRRRRRRRRRRRRRRRRRRRRRRRRRRRRRRRRRRRRRRRRRRRRRR"
};
