/* XPM */
static const char *xpm_bP[] = {
"94 94 118 2",
"  	c None",
". 	c #0A0A0A",
"+ 	c #0E0E0E",
"@ 	c #424242",
"# 	c #434343",
"$ 	c #2B2B2B",
"% 	c #2C2C2C",
"& 	c #3B3B3B",
"* 	c #1C1C1C",
"= 	c #252525",
"- 	c #1D1D1D",
"; 	c #292929",
"> 	c #3D3D3D",
", 	c #222222",
"' 	c #2E2E2E",
") 	c #1B1B1B",
"! 	c #2D2D2D",
"~ 	c #262626",
"{ 	c #323232",
"] 	c #383838",
"^ 	c #191919",
"/ 	c #414141",
"( 	c #404040",
"_ 	c #131313",
": 	c #141414",
"< 	c #1F1F1F",
"[ 	c #202020",
"} 	c #272727",
"| 	c #282828",
"1 	c #2A2A2A",
"2 	c #0D0D0D",
"3 	c #0C0C0C",
"4 	c #0B0B0B",
"5 	c #161616",
"6 	c #737373",
"7 	c #727272",
"8 	c #1E1E1E",
"9 	c #4A4A4A",
"0 	c #A0A0A0",
"a 	c #ABABAB",
"b 	c #747474",
"c 	c #151515",
"d 	c #D8D8D8",
"e 	c #A3A3A3",
"f 	c #AAAAAA",
"g 	c #BBBBBB",
"h 	c #A4A4A4",
"i 	c #989898",
"j 	c #C0C0C0",
"k 	c #101010",
"l 	c #1A1A1A",
"m 	c #919191",
"n 	c #D4D4D4",
"o 	c #959595",
"p 	c #B3B3B3",
"q 	c #585858",
"r 	c #7F7F7F",
"s 	c #B9B9B9",
"t 	c #121212",
"u 	c #181818",
"v 	c #303030",
"w 	c #7C7C7C",
"x 	c #BDBDBD",
"y 	c #575757",
"z 	c #686868",
"A 	c #EEEEEE",
"B 	c #BEBEBE",
"C 	c #BCBCBC",
"D 	c #111111",
"E 	c #A2A2A2",
"F 	c #4B4B4B",
"G 	c #B4B4B4",
"H 	c #929292",
"I 	c #515151",
"J 	c #E0E0E0",
"K 	c #CACACA",
"L 	c #A5A5A5",
"M 	c #0F0F0F",
"N 	c #8D8D8D",
"O 	c #8C8C8C",
"P 	c #5F5F5F",
"Q 	c #7D7D7D",
"R 	c #393939",
"S 	c #232323",
"T 	c #8F8F8F",
"U 	c #CDCDCD",
"V 	c #DFDFDF",
"W 	c #4F4F4F",
"X 	c #656565",
"Y 	c #333333",
"Z 	c #3E3E3E",
"` 	c #C3C3C3",
" .	c #5D5D5D",
"..	c #C1C1C1",
"+.	c #C2C2C2",
"@.	c #C5C5C5",
"#.	c #C9C9C9",
"$.	c #090909",
"%.	c #767676",
"&.	c #A9A9A9",
"*.	c #8A8A8A",
"=.	c #878787",
"-.	c #4D4D4D",
";.	c #666666",
">.	c #868686",
",.	c #717171",
"'.	c #525252",
").	c #545454",
"!.	c #4C4C4C",
"~.	c #454545",
"{.	c #050505",
"].	c #939393",
"^.	c #7E7E7E",
"/.	c #3C3C3C",
"(.	c #777777",
"_.	c #676767",
":.	c #2F2F2F",
"<.	c #3A3A3A",
"                                                                                                                                                                                            ",
"                                                                                                                                                                                            ",
"                                                                                                                                                                                            ",
"                                                                                                                                                                                            ",
"                                                                                                                                                                                            ",
"                                                                                                                                                                                            ",
"                                                                                                                                                                                            ",
"                                                                                                                                                                                            ",
"                                                                                                                                                                                            ",
"                                                                                                                                                                                            ",
"                                                                                                                                                                                            ",
"                                                                                                                                                                                            ",
"                                                                                                                                                                                            ",
"                                                                                                                                                                                            ",
"                                                                                                                                                                                            ",
"                                                                                                                                                                                            ",
"                                                                                                                                                                                            ",
"                                                                                                                                                                                            ",
"                                                                                            . .                                                                                             ",
"                                                                                . . . . . . . . . . . . .                                                                                   ",
"                                                                          . . . . . + @ # # # # # # $ . . . . .                                                                             ",
"                                                                      . . . . % % % % % % % % % % & # # # # . . .                                                                           ",
"                                                                  . . . * % % % % % % % % % % % % % % # # # # # . . .                                                                       ",
"                                                              . . . = - - ; % % % % % % % % % % % % % % > # # # # @ . .                                                                     ",
"                                                            . . . - - - - - % % % % % % % % % % % % % % % # # # # # # . . .                                                                 ",
"                                                          . . - - - - - - , % % % % % % % % % % % % % % % ' # # # # # # . . .                                                               ",
"                                                        . . - - - - - - - % % % % % % % % % % % % % - - % % # # # # # # # . .                                                               ",
"                                                      . . - - - ) - - - - % % % % % % % % % % % % % % - % ! # # # # # # # # . .                                                             ",
"                                                    . . - - - . - - - - , % % % % % % % % % % % % % % % % % # # # # # # # # # . .                                                           ",
"                                                  . . - - - . * - - - - ~ % % % % % % % % % % % % % % % - = % # # # # # { % # ] .                                                           ",
"                                                  . ^ - - . . - - - - - - % % % % % % % % % % % % % % % - - % % % % % % % % # # . .                                                         ",
"                                                . . - - + . - - - - - - - % % % % % % % % % % % % % % % % - % % % % % % % % % # / .                                                         ",
"                                                . * - - . . - - - - - - - - % % % % % % % % % % % % % % % % % % % % % % % % % ( # . .                                                       ",
"                                                . - - . . - - - - - - - - - - % % % % % % % % % % % % % % % % % % % % % % % % % # _ .                                                       ",
"                                                . . - . . - - - - - - - - - - - - % % - , % % % % % % % % % % % % % % % % % % % # # . .                                                     ",
"                                                  . . . - - - - - - - - - - - - - - - - % % % % % % % % % % % % % % % % % % % % % # . .                                                     ",
"                                                    . . - : : - - - - - - - - - - - - - - < % % % % % % % % % % % % % % % % % % % # + .                                                     ",
"                                                    . * - : ) - - - - - - - - - - - - - - - - - - [ % % } | 1 % % % % % % % % % % # # .                                                     ",
"                                                  . . - - - - - - - - - - - - - - - - - - - - 2 . . . . . . . . + } % % % % % % % > # . .                                                   ",
"                                                  . . - - - - - - - - - - - - - - - - - 3 . . . . . . . . . . . 4 % % % % % % % % % # . .                                                   ",
"                                                  . 2 - - - - - - 5 - - - - - - - - * . . . * 6 6 6 6 6 6 6 7 . . . ; % % % % % % % # . .                                                   ",
"                                                  . - - - - - - : : - - - - - - - . . . 6 6 6 6 6 6 6 6 6 6 6 6 6 . . . % % % % % % # . .                                                   ",
"                                                . . - - - : : - - - - - - - - ) . . . 6 6 6 6 6 6 6 6 6 6 6 6 6 6 6 8 . . % % % % % # . .                                                   ",
"                                                . . - - - : : - - - - - - - 4 . . 6 6 6 6 6 6 6 6 6 6 6 6 6 6 6 6 6 6 6 . . % % % % # . .                                                   ",
"                                                . 4 - - - : - - - - - - - . . . . . . 9 6 6 6 6 6 0 a a a a a a b 6 6 6 6 . . % % % # . .                                                   ",
"                                                . c - - - - - - - - - - . . . . d d ( . . > e a a a a a a a a a a a f . . . . . % % # . .                                                   ",
"                                                . - - - - - - - - - - 4 . . . g h i d d j . . < a a a a a a a a a . . . d d . . k % # . .                                                   ",
"                                                . - - - - - - - - - l . . 6 . m m m m m n d o . . 4 . . a . . . . . d e m p . . . % # .                                                     ",
"                                                . ) - - - - - - - - . . 6 6 . q r . . . . m m d s . d . a . d . d m m 2 3 m . t . 4 ~ .                                                     ",
"                                                . : - u - - - - - . . 6 6 6 v . . w x x . . . . m m 7 . a . m m 2 . . . . y . ) . . . .                                                     ",
"                                                . . - : : - - - - . z 6 6 6 6 : . A A B x x C . . . . i a D . . . x x E . . 3 ) . . .                                                       ",
"                                                . . - : : - - - - . D 6 6 6 6 6 . . A A A A e E x . . a a a . F x A A G . . : ) . . .                                                       ",
"                                                  . . - - - - - c . . 6 6 6 6 6 H . I A A A J K 3 . a a a a L . A A A . 7 . ) ) . . .                                                       ",
"                                                  . . - - - - - M - . . 6 6 6 6 a a . . . z k . . a a a a N a . . . . . O . ) ) . .                                                         ",
"                                                    . . - - - - l - . . 4 6 6 6 a a a P . . . . a a a a a a Q a a R . M . . ) . .                                                           ",
"                                                      . . - - - - - - . . . 6 6 a a a I . . a a a a a a a a a a a a a a . . . .                                                             ",
"                                                        . . . - - - - - . . . 6 a a a a a a a a a a a a a a a a a a a . . . .                                                               ",
"                                                            . . 4 - - - - k . . S a a a a a a a a a a a . a a a a @ . . . .                                                                 ",
"                                                              . . . . k - - - . . . . a a a a a a a a a a a a k . . . .                                                                     ",
"                                                                  . . . . . . . ^ . . . . . ' T a a a b . . . . . .                                                                         ",
"                                                                . U d d v . . . . . . . . . . . . . . . . . . . U .                                                                         ",
"                                                                k d V + . . S t . ^ . . . . . . . . . k % W . - U .                                                                         ",
"                                                                U d d X . S | % . ^ ^ ^ % % % % ^ . . % % Y . d U Z                                                                         ",
"                                                              . ` k U . [ S % % . + ^ ^ % % [ % 1 . . % % % .  .U ..                                                                        ",
"                                                              . +.U Q . S S % % . k ^ 2 % % % % % . . % % % . 2 U @..                                                                       ",
"                                                              . C C . k S % % % . _ ^ ^ % % % % % . . % % % @ . C #..                                                                       ",
"                                                              l C . . S S % % % . 5 ^ l % % % % % . . ; % % W . . C .                                                                       ",
"                                                              F .   . . . ; % % . ^ , % % % % % % . $.. , %.%.k . &..                                                                       ",
"                                                              .     . *.. . . . . . =.=.-.P Q ;.>.=.,.'.).!.~.{.].. .                                                                       ",
"                                                                    . *.*.*.*.t ^.. ^ ^ $ : $ /.[ { (.>.8 % % . . .                                                                         ",
"                                                                    . *.*.*.h a . . ^ % % % % % % =.2  ._.^ % W . .                                                                         ",
"                                                                    . . *.*.a . 4 . ^ $ , % % % . :.2 Z =.% % % .                                                                           ",
"                                                                      . . 2 4 <.. ^ ^ * % % % % . k ^ ^ {.. . % .                                                                           ",
"                                                                      . . . . . 4 2 ^ ^ % % % % . ^ ^ ^ . . . . . .                                                                         ",
"                                                                            . . . . . 4 ) % % . . . . . . . .                                                                               ",
"                                                                              . . . $.. . . . . . . . . . . .                                                                               ",
"                                                                            . . t t ) ) ) .   . . t ) ) ) ) .                                                                               ",
"                                                                            . . . . . . . . .   . . . . . . .                                                                               ",
"                                                                                                                                                                                            ",
"                                                                                                                                                                                            ",
"                                                                                                                                                                                            ",
"                                                                                                                                                                                            ",
"                                                                                                                                                                                            ",
"                                                                                                                                                                                            ",
"                                                                                                                                                                                            ",
"                                                                                                                                                                                            ",
"                                                                                                                                                                                            ",
"                                                                                                                                                                                            ",
"                                                                                                                                                                                            ",
"                                                                                                                                                                                            ",
"                                                                                                                                                                                            ",
"                                                                                                                                                                                            ",
"                                                                                                                                                                                            ",
"                                                                                                                                                                                            "};
