/* XPM */
static const char *xpm_bQ[] = {
"94 94 93 2",
"  	c None",
". 	c #0A0A0A",
"+ 	c #292929",
"@ 	c #2C2C2C",
"# 	c #2F2F2F",
"$ 	c #2A2A2A",
"% 	c #3D3D3D",
"& 	c #202020",
"* 	c #1F1F1F",
"= 	c #2B2B2B",
"- 	c #252525",
"; 	c #3A3A3A",
"> 	c #373737",
", 	c #191919",
"' 	c #363636",
") 	c #0F0F0F",
"! 	c #0D0D0D",
"~ 	c #2D2D2D",
"{ 	c #1D1D1D",
"] 	c #131313",
"^ 	c #272727",
"/ 	c #1B1B1B",
"( 	c #0B0B0B",
"_ 	c #7B7B7B",
": 	c #212121",
"< 	c #303030",
"[ 	c #171717",
"} 	c #959595",
"| 	c #323232",
"1 	c #969696",
"2 	c #949494",
"3 	c #282828",
"4 	c #3C3C3C",
"5 	c #393939",
"6 	c #737373",
"7 	c #1C1C1C",
"8 	c #313131",
"9 	c #3B3B3B",
"0 	c #4D4D4D",
"a 	c #939393",
"b 	c #898989",
"c 	c #383838",
"d 	c #4F4F4F",
"e 	c #686868",
"f 	c #919191",
"g 	c #121212",
"h 	c #2E2E2E",
"i 	c #424242",
"j 	c #161616",
"k 	c #0E0E0E",
"l 	c #0C0C0C",
"m 	c #101010",
"n 	c #141414",
"o 	c #6A6A6A",
"p 	c #151515",
"q 	c #262626",
"r 	c #585858",
"s 	c #111111",
"t 	c #787878",
"u 	c #777777",
"v 	c #484848",
"w 	c #404040",
"x 	c #656565",
"y 	c #1E1E1E",
"z 	c #090909",
"A 	c #242424",
"B 	c #333333",
"C 	c #434343",
"D 	c #3E3E3E",
"E 	c #353535",
"F 	c #4B4B4B",
"G 	c #5B5B5B",
"H 	c #696969",
"I 	c #545454",
"J 	c #444444",
"K 	c #5A5A5A",
"L 	c #494949",
"M 	c #595959",
"N 	c #636363",
"O 	c #646464",
"P 	c #5C5C5C",
"Q 	c #515151",
"R 	c #5F5F5F",
"S 	c #1A1A1A",
"T 	c #414141",
"U 	c #4C4C4C",
"V 	c #181818",
"W 	c #232323",
"X 	c #222222",
"Y 	c #454545",
"Z 	c #575757",
"` 	c #3F3F3F",
" .	c #474747",
"                                                                                                                                                                                            ",
"                                                                                                                                                                                            ",
"                                                                                                                                                                                            ",
"                                                                                                                                                                                            ",
"                                                                                                                                                                                            ",
"                                                                                                                                                                                            ",
"                                                                                                                                                                                            ",
"                                                                              . . . . .                                                                                                     ",
"                                                                              . . . . . . .                                                                                                 ",
"                                                                            . . + + @ # . . . .                                                                                             ",
"                                                                            . . + + $ % % & . . .                                                                                           ",
"                                                                          . . * + + % % % % % . . .                                                                                         ",
"                                                                          . . + + + % % % % % % . . .                                                                                       ",
"                                                                        . . + + + % % % % % % % % = . . .                                                                                   ",
"                                                                      . . - + + ; % % % % % % % % % > . . .                                                                                 ",
"                                                                    . . , + + ' % % % % % % % % % % % % ) . . .                                                                             ",
"                                                                  . . ! + + = % % % % % % % % % % % % % % ; . . .                                                                           ",
"                                                                  . . + + ~ % % % % % % % % % % % % % % { . % ] . .                                                                         ",
"                                                                . . ^ + + % % % % % % % % % % % % % % % / . ( % _ . .                                                                       ",
"                                                              . . : + + % % % % % % % % % % % % % % % % % < [ % % } . .                                                                     ",
"                                                              . . + + < % % % % % % % % % % % % % % % % % % % % | 1 2 . .                                                                   ",
"                                                            . . 3 + + % % % % % % % % % % % % % % % % % % % % % . 1 1 4 .                                                                   ",
"                                                            . . + + + % % % % 5 + + + + + > % % % % % % % % % % % 6 1 1 . .                                                                 ",
"                                                            . 7 + + 8 % % 9 + + + + + + + + + 4 % % % % % % % % 0 a 1 1 b .                                                                 ",
"                                                            . + + + ' % c + ( . * + + + + + + + % % % % % d 1 e . f 1 1 1 . .                                                               ",
"                                                          . . + + + 5 8 + + . . . . . . g - + + $ % % % 1 1 1 . . . 1 1 1 . .                                                               ",
"                                                          . . + + + + + + + . . . . . . . . . / + h i 1 j . . . . . . 1 1 _ .                                                               ",
"                                                          . . + + 3 { + + + . . ) ) k l . . . . m + 1 & . . . . ) . . = 1 1 . .                                                             ",
"                                                          . . + + . n + + , . ! ) ) ) ) ) ) l . . . i . . ) ) ) ) ) . . o 1 . .                                                             ",
"                                                          . m l 7 n + + + . . ) ) ) ) ) ) ) ) ) . . . . ) ) ) ) ) ) ) . . 1 m .                                                             ",
"                                                          . - . g + + + + . . ) ) ) ) ) m j p ) ) . . . ) ) ) j ) ) ) . . 1 - .                                                             ",
"                                                        . . + . q + + + & . . ) ) ) ) j j j j j ) . . ! ) ) j j j ) ) . . 1 r .                                                             ",
"                                                        . ( + + + + + + . . ) ) ) ) j j j j j j j s . ) ) j j j j ) ) ! . t u .                                                             ",
"                                                      . . ^ + + ) + + + . . ) ) ) j j j j j j j j j ] m j j j j j m ) ) . r 6 .                                                             ",
"                                                      . . + + 7 : + + ! . k ) ) j j j j j j j j j j j j j j j j j ] ) ) . : v .                                                             ",
"                                                    . . - + + + + + + . . ) ) ) j j j j j j j j j j j j j j j j j j ) ) . j ] .                                                             ",
"                                                    . ] + + + + + + + . . ) ) p j j j j j j j j j j j j j j j j j j ) ) . . . .                                                             ",
"                                                    . . + + + + + . . . ! ) ) j j j n ] n j j j j j j j j j j j j j ) ) . : . .                                                             ",
"                                                    . . 3 + + + + . . . ) ) ) j j . . . . . . . j j j j j j j p n p ) ) . w . .                                                             ",
"                                                      . ( + + + + . . . ) ) ) j ( . . . . . . . . j j j j j . . . . . k . x . .                                                             ",
"                                                      . . + + + + { . . k ) ) j . . y q # | * . . p j j j . . . . . . ( . 1 .                                                               ",
"                                                      . . g + + + + + . . ) ) j . z A ~ > % % c . z j j j . . @ B ~ . z . n .                                                               ",
"                                                        . . + + + + + . . ) ) j . n ^ 8 4 i C D . . j j j . ( E D 4 . z . . .                                                               ",
"                                                          . . + + + + . . ) ) g . A 4 F G e H I . . j j j . ! J K K . . . . .                                                               ",
"                                                          . . & + + + . . ) ) ) . ) 9 L M N O P . . j j j . ! Q R G . z . .                                                                 ",
"                                                            . . : + + S . ( ) ) . . E C Q M K @ . ( j j j . . T U < . . . .                                                                 ",
"                                                              . . + + 3 . . . ! . . g % v d 0 . . j j j j . . * & . . . . .                                                                 ",
"                                                                . . A + ^ . . . . . . . . . . . ! j j j j j . . . . z . .                                                                   ",
"                                                                . . . q + + , . . . . . . . . . j j j j j j ] . z . . . .                                                                   ",
"                                                                    . . ( + + + + V . . j j j j j j j j j j ) . . ! . .                                                                     ",
"                                                                      . . . W + + + . . . j j j j j j j j p . . ; . . .                                                                     ",
"                                                                        . . . . ( . . . . . ) j j j j j . . . B . . .                                                                       ",
"                                                                            . . . . . . ( . . . j j n . . . . . . .                                                                         ",
"                                                                              . . % | . z . . . . . . . . . . . .                                                                           ",
"                                                                            . . 4 % | . . . . . . . . . . . z                                                                               ",
"                                                                      . . . . 3 % % . . h z . ( . . . ( 7 : .                                                                               ",
"                                                                      . . . . X % % . . . . . % 8 . . | % E . z . .                                                                         ",
"                                                                      . . . . . - : . z . . + % % ) . ) . l . . . . .                                                                       ",
"                                                                      . . ; ' . . . . . g % % % . . . . . . . . [ s .                                                                       ",
"                                                                      . * I I $ . z z . ] y % ( . . . . . . . . ( . . .                                                                     ",
"                                                                    . . I I I I . . . [ . . . . . . > . . W | [ . . .                                                                       ",
"                                                                    . k I X ! @ . . 7 . . . . . . . % . . . I . .                                                                           ",
"                                                                    . s . . . . . . . . E . . r ] . % . . . . . .                                                                           ",
"                                                                    . . .     . z ^ . . Y F * Z / . % . . . . .                                                                             ",
"                                                                      .       . . . . | ; `  .. . . 9 .                                                                                     ",
"                                                                              . ] . . @ . > . . . . = .                                                                                     ",
"                                                                            . . ! . n . . . . .   . ( .                                                                                     ",
"                                                                            . ( . . . . . . .     . . .                                                                                     ",
"                                                                          . . + . . .   . .       . .                                                                                       ",
"                                                                        . . n . . .     .         . .                                                                                       ",
"                                                                        . . . . .                                                                                                           ",
"                                                                      . . . . .                                                                                                             ",
"                                                                      . . .                                                                                                                 ",
"                                                                                                                                                                                            ",
"                                                                                                                                                                                            ",
"                                                                                                                                                                                            ",
"                                                                                                                                                                                            ",
"                                                                                                                                                                                            ",
"                                                                                                                                                                                            ",
"                                                                                                                                                                                            ",
"                                                                                                                                                                                            ",
"                                                                                                                                                                                            ",
"                                                                                                                                                                                            ",
"                                                                                                                                                                                            ",
"                                                                                                                                                                                            ",
"                                                                                                                                                                                            ",
"                                                                                                                                                                                            ",
"                                                                                                                                                                                            ",
"                                                                                                                                                                                            ",
"                                                                                                                                                                                            ",
"                                                                                                                                                                                            ",
"                                                                                                                                                                                            ",
"                                                                                                                                                                                            ",
"                                                                                                                                                                                            "};
