/* XPM */
static const char *xpm_bQ[] = {
/* columns rows colors chars-per-pixel */
"94 94 77 1 ",
"  c #010101",
". c #080707",
"X c #080807",
"o c #0C0B0B",
"O c #100F0E",
"+ c #11100F",
"@ c #141313",
"# c #191715",
"$ c #1A1817",
"% c #1C1B1A",
"& c #211E1C",
"* c #23211E",
"= c #252424",
"- c #292623",
"; c #2C2926",
": c #2D2C2A",
"> c #312D2B",
", c #35312E",
"< c #353332",
"1 c #3A3632",
"2 c #3D3936",
"3 c #3D3C3C",
"4 c #403B37",
"5 c #413C38",
"6 c #46413D",
"7 c #49433F",
"8 c #434342",
"9 c #4B4641",
"0 c #4E4944",
"q c #4C4B4B",
"w c #514B46",
"e c #544E4A",
"r c #56514D",
"t c #59534E",
"y c #545353",
"u c #5B5651",
"i c #5D5954",
"p c #5B5B5B",
"a c #615B57",
"s c #635E5A",
"d c #66615D",
"f c #68635F",
"g c #646464",
"h c #6B6662",
"j c #6E6965",
"k c #6B6B6B",
"l c #706B67",
"z c #726D69",
"x c #76716D",
"c c #78736F",
"v c #747474",
"b c #7A7672",
"n c #7E7975",
"m c #7C7C7C",
"M c #827E7A",
"N c #85817E",
"B c #838383",
"V c #898582",
"C c #8D8986",
"Z c #8C8B8B",
"A c #95928F",
"S c #949393",
"D c #9B9895",
"F c #9B9B9B",
"G c #A5A29F",
"H c #A3A3A3",
"J c #ABABAB",
"K c #B4B4B4",
"L c #BBBBBB",
"P c #C4C4C4",
"I c #CCCCCC",
"U c #D3D3D3",
"Y c #DBDBDB",
"T c #E3E3E3",
"R c #EEEEEE",
"E c #F4F4F4",
"W c none",
/* pixels */
"WWWWWWWWWWWWWWWWWWWWWWWWWWWWWWWWWWWWWWWWWWWWWWWWWWWWWWWWWWWWWWWWWWWWWWWWWWWWWWWWWWWWWWWWWWWWWW",
"WWWWWWWWWWWWWWWWWWWWWWWWWWWWWWWWWWWWWWWWWWWWWWWWWWWWWWWWWWWWWWWWWWWWWWWWWWWWWWWWWWWWWWWWWWWWWW",
"WWWWWWWWWWWWWWWWWWWWWWWWWWWWWWWWWWWWWWWWWWWWWWWWWWWWWWWWWWWWWWWWWWWWWWWWWWWWWWWWWWWWWWWWWWWWWW",
"WWWWWWWWWWWWWWWWWWWWWWWWWWWWWWWWWWWWWWWWWWWWWWWWWWWWWWWWWWWWWWWWWWWWWWWWWWWWWWWWWWWWWWWWWWWWWW",
"WWWWWWWWWWWWWWWWWWWWWWWWWWWWWWWWWWWWWWWWWWWWWWWWWWWWWWWWWWWWWWWWWWWWWWWWWWWWWWWWWWWWWWWWWWWWWW",
"WWWWWWWWWWWWWWWWWWWWWWWWWWWWWWWWWWWWWWWWWWWWWWWWWWWWWWWWWWWWWWWWWWWWWWWWWWWWWWWWWWWWWWWWWWWWWW",
"WWWWWWWWWWWWWWWWWWWWWWWWWWWWWWWWWWWWWWWWWWWWWWWWWWWWWWWWWWWWWWWWWWWWWWWWWWWWWWWWWWWWWWWWWWWWWW",
"WWWWWWWWWWWWWWWWWWWWWWWWWWWWWWWWWWWWWWWWWWWWWWWWWWWWWWWWWWWWWWWWWWWWWWWWWWWWWWWWWWWWWWWWWWWWWW",
"WWWWWWWWWWWWWWWWWWWWWWWWWWWWWWWWWWWWWWWWWWWWWWWWWWWWWWWWWWWWWWWWWWWWWWWWWWWWWWWWWWWWWWWWWWWWWW",
"WWWWWWWWWWWWWWWWWWWWWWWWWWWWWWWWWWWWWWWWWWWWWWWWWWWWWWWWWWWWWWWWWWWWWWWWWWWWWWWWWWWWWWWWWWWWWW",
"WWWWWWWWWWWWWWWWWWWWWWWWWWWWWWWWWWWWWWWWWWWWTp==gTWWWWWWWWWWWWWWWWWWWWWWWWWWWWWWWWWWWWWWWWWWWW",
"WWWWWWWWWWWWWWWWWWWWWWWWWWWWWWWWWWWWWWWWWWWUo    OUWWWWWWWWWWWWWWWWWWWWWWWWWWWWWWWWWWWWWWWWWWW",
"WWWWWWWWWWWWWWWWWWWWWWWWWEHvZUWWWWWWWWWWWWW< :h:. 2WWWWWWWWWWWWWUZvHEWWWWWWWWWWWWWWWWWWWWWWWWW",
"WWWWWWWWWWWWWWWWWWWWWWWWI=   .BWWWWWWWWWWWT  nHe>  RWWWWWWWWWWWB.   =UWWWWWWWWWWWWWWWWWWWWWWWW",
"WWWWWWWWWWWWWWWWWWWWWWWE=  #X  KWWWWWWWWWWI  es01  UWWWWWWWWWWJ  @@. =EWWWWWWWWWWWWWWWWWWWWWWW",
"WWWWWWWWWWWWWWWWWWWWWWWJ =Cs6@ 8WWWWWWWWWWE. -w0& XEWWWWWWWWWW3 <Ge1  JWWWWWWWWWWWWWWWWWWWWWWW",
"WWWWWWWWWWWWWWWWWWWWWWWm 1Fd7; #WWWWWWWWWWWv  oo  mWWWWWWWWWWW@ 1sw5+ mWWWWWWWWWWWWWWWWWWWWWWW",
"WWWWWWWWWWWWWWWWWWWWWWWD X9w6* :WWWWWWWWWWWEp    gEWWWWWWWWWWW= =ww4X HWWWWWWWWWWWWWWWWWWWWWWW",
"WWWWWWWWIvqvUWWWWWWWWWWTo @:&  BWWWWWWWWWWWWWg  kWWWWWWWWWWWWWB  *:o oTWWWWWWWWWWUvqvIWWWWWWWW",
"WWWWWWWZ.   .DWWWWWWWWWWF     8EWWWWWWWWWWWWWp  pWWWWWWWWWWWWWE3    .HWWWWWWWWWWS.   .ZWWWWWWW",
"WWWWWWP  +*o .UWWWWWWWWWWIp   RWWWWWWWWWWWWWW3  3WWWWWWWWWWWWWWT  .pIWWWWWWWWWWI  %-o  IWWWWWW",
"WWWWWWg qGs7X mWWWWWWWWWWWW#  HWWWWWWWWWWWWWW=  =WWWWWWWWWWWWWWH  %WWWWWWWWWWWWv oAbwo kWWWWWW",
"WWWWWW3 0Ai9% yWWWWWWWWWWWW=  yWWWWWWWWWWWWWW.  oWWWWWWWWWWWWWWy  :WWWWWWWWWWWWq *ue7% 8WWWWWW",
"WWWWWWg +ww6o kWWWWWWWWWWWW<  XEWWWWWWWWWWWWR    RWWWWWWWWWWWWEX  <WWWWWWWWWWWWk +965o kWWWWWW",
"WWWWWWP  @*o  IWWWWWWWWWWWW3   JWWWWWWWWWWWWU    UWWWWWWWWWWWWJ   8WWWWWWWWWWWWI  o%o  IWWWWWW",
"WWWWWWWB     BWWWWWWWWWWWWWq   pWWWWWWWWWWWWK    LWWWWWWWWWWWWy   yWWWWWWWWWWWWWm    .ZWWWWWWW",
"WWWWWWWWPk$  pWWWWWWWWWWWWWp   oEWWWWWWWWWWWF XX FWWWWWWWWWWWEX   pWWWWWWWWWWWWWy  $kIWWWWWWWW",
"WWWWWWWWWWm   IWWWWWWWWWWWWg @  KWWWWWWWWWWWm @@ BWWWWWWWWWWWJ  @ kWWWWWWWWWWWWI   mWWWWWWWWWW",
"WWWWWWWWWWK   3WWWWWWWWWWWWv #@ pWWWWWWWWWWWg %$ kWWWWWWWWWWWp @@ vWWWWWWWWWWWW3   KWWWWWWWWWW",
"WWWWWWWWWWR    KWWWWWWWWWWWm $: @EWWWWWWWWWWq -& qWWWWWWWWWWE@ >@ BWWWWWWWWWWWJ    EWWWWWWWWWW",
"WWWWWWWWWWW:   =EWWWWWWWWWWZ %9  KWWWWWWWWWW: >; <WWWWWWWWWWK  7+ ZWWWWWWWWWWE=   :WWWWWWWWWWW",
"WWWWWWWWWWWg X  DWWWWWWWWWWF @r@ gWWWWWWWWWW@ 1> $WWWWWWWWWWp @wX FWWWWWWWWWWS  . kWWWWWWWWWWW",
"WWWWWWWWWWWF .& @RWWWWWWWWWH oi: @EWWWWWWWWE  52  EWWWWWWWWE@ >e. JWWWWWWWWWE@ &. HWWWWWWWWWWW",
"WWWWWWWWWWWY  1  mWWWWWWWWWK  a9  LWWWWWWWWY  96  TWWWWWWWWK  7w  KWWWWWWWWWb  <  TWWWWWWWWWWW",
"WWWWWWWWWWWW$ >= XTWWWWWWWWL  swo gWWWWWWWWP  e0  PWWWWWWWWg @w0  PWWWWWWWWTX -- %WWWWWWWWWWWW",
"WWWWWWWWWWWWy :0X gWWWWWWWWI  dw; @WWWWWWWWH .rw  JWWWWWWWE$ ;w9  IWWWWWWWWp X0@ yWWWWWWWWWWWW",
"WWWWWWWWWWWWZ Os:  IWWWWWWWY  sw6  PWWWWWWWZ #rwo SWWWWWWWL  6w6  YWWWWWWWI. >w. SWWWWWWWWWWWW",
"WWWWWWWWWWWWI  swo 8WWWWWWWT  dwwo kWWWWWWWv =ew@ vWWWWWWWk Oww5  RWWWWWWW8 ow5  IWWWWWWWWWWWW",
"WWWWWWWWWWWWEo pw1  KWWWWWWE  dww= @WWWWWWWy <ee$ pWWWWWWE$ ;ww4  EWWWWWWK  1w; oEWWWWWWWWWWWW",
"WWWWWWWWWWWWW3 2sw@ :WWWWWWE  dww4  PWWWWWW2 5ew& 3WWWWWWP  6ww1 .WWWWWWW: @ww% 8WWWWWWWWWWWWW",
"WWWWWWWWWWWWWm @bw5  FWWWWWWX sewwo vWWWWWW% eew= =WWWWWWk @www> OWWWWWWF  5w0o BWWWWWWWWWWWWW",
"WWWWWWWWWWWWWK  bew$ $EWWWWW$ ieww& $WWWWWWX ie0> XWWWWWW% <www- %WWWWWE$ %ww7  LWWWWWWWWWWWWW",
"WWWWWWWWWWWWWR  isw6  BWWWWW= yrww1  IWWWWR  hew>  RWWWWP  eww0= :WWWWWm  6ww,  EWWWWWWWWWWWWW",
"WWWWWWWWWWWWWW: 2bww* oTWWWW< qiww9X vWWWWI  xww2  UWWWWv @aww7* <WWWWTo -www& <WWWWWWWWWWWWWW",
"WWWWWWWWWWWWWWk $Mrw9. gWWWW3 9iww0& =WWWWK  nww4  KWWWW% 5tww7% 8WWWWg X0ww0+ kWWWWWWWWWWWWWW",
"WWWWWWWWWWWWWWH .xsww-  UWWWq 3awww,  IWWWD @nw04X FWWWI  heww5$ yWWWY  1eww9  HWWWWWWWWWWWWWW",
"WWWWWWWWWWWWWWY  izww9X qWWWp <dwww5X mWWWm :bew5o BWWWv @cwww5$ pWWW8 Ouwww1  TWWWWWWWWWWWWWW",
"WWWWWWWWWWWWWWW% 2brww:  LWWg >fwww6% =WWWg 2b005@ hWWW= 9lww75@ kWWL  0ewww= %WWWWWWWWWWWWWWW",
"WWWWWWWWWWWWWWWy %baww9O >WWv =hwww9>  UWW8 ecw05% qWWI  bsww64+ vWW> %hwww0@ pWWWWWWWWWWWWWWW",
"WWWWWWWWWWWWWWWS Xjhwww>  HWm %jwww95X vUP= szww5= =PUv +Srww55o BWH  drwww7. SWWWWWWWWWWWWWWW",
"WWWWWWWWWWWWWWWI  ijeww7@ %EZ #lwwww5%      hzw75;      0Ceww45o SE% <jwwww1  IWWWWWWWWWWWWWWW",
"WWWWWWWWWWWWWWWEX 2jiwww1  ZD ohwwww94    .o9uww97O     hb0w755X DC  ntwwww- oWWWWWWWWWWWWWWWW",
"WWWWWWWWWWWWWWWW8 *jawww9% X  Xswwwwwteeissssattewwww757wwww766X .. 0cwwww7$ 9WWWWWWWWWWWWWWWW",
"WWWWWWWWWWWWWWWWm Odseww92.   -eafxbMnbbxzzjhfdsaittewwwwwwwwww-   oAtwwww5o BWWWWWWWWWWWWWWWW",
"WWWWWWWWWWWWWWWWL  tsrwww71&2sxNNMMnbcxzljhfssaittewwwwwwwwwwwww0,*2fwwwww2  LWWWWWWWWWWWWWWWW",
"WWWWWWWWWWWWWWWWE  4iewwwwaxVVNMMnbcxzljhditrewwwwwwwwwwwwwwwwwwwwwwwwwww5>  EWWWWWWWWWWWWWWWW",
"WWWWWWWWWWWWWWWWW: ;wwwwsMVNMMMMbcxzlhstwwwwwwwwwwwwwwwwwwwwwwwwwwwwwwww05% <WWWWWWWWWWWWWWWWW",
"WWWWWWWWWWWWWWWWWk @wwwzVNNMMMxcxzlstewwwwwwwwwwwwwwwwwwwwwwwwwwwwwwwwww75+ zWWWWWWWWWWWWWWWWW",
"WWWWWWWWWWWWWWWWWH  wwhVNMMMccxllftwwwwwwwwwwwwwwwwwwwwwwwwwwwwwwwwwwww054  JWWWWWWWWWWWWWWWWW",
"WWWWWWWWWWWWWWWWWT  5wbMMMccxllhawwwwwwwwwwwwwwwwwwwwwwwwwwwwwwwwwwwwww74,  TWWWWWWWWWWWWWWWWW",
"WWWWWWWWWWWWWWWWWW% ;wlMccxllhfaewwwwwwwwwwwwwwwwwwwwwwwwwwwwwwwwwwwww055* =WWWWWWWWWWWWWWWWWW",
"WWWWWWWWWWWWWWWWWWp &wsxllllfdsewwwwwwwwwwwwwwwwwwwwwwwwwwwwwwwwwwwwww554@ pWWWWWWWWWWWWWWWWWW",
"WWWWWWWWWWWWWWWWWWD  wwjlfddsatwwwwwwwwwwwwwwwwwwwwwwwwwwwwwwwwwwwwww7552  FWWWWWWWWWWWWWWWWWW",
"WWWWWWWWWWWWWWWWWWR. ,wrfdsaatrwwwwwwwwwwwwwwwwwwwwwwwwwwwwwwwwwwwww0555- XRWWWWWWWWWWWWWWWWWW",
"WWWWWWWWWWWWWWWWWWWy owwtaitteewwwwwwwwwwwwwwwwwwwwwwwwwwwwwwwwwwwww4544X pWWWWWWWWWWWWWWWWWWW",
"WWWWWWWWWWWWWWWWWWWU  :wwrreewwwwwwwwwwwwwwwwwwwwwwwwwwwwwwwwwwwwww5455*  YWWWWWWWWWWWWWWWWWWW",
"WWWWWWWWWWWWWWWWWWWWg .5wwwwwwwwwwwwwwwwwwwwwwwwwwwwwwwwwwwwwwwwww4444,  kWWWWWWWWWWWWWWWWWWWW",
"WWWWWWWWWWWWWWWWWWWWE= X7wwwwwwwwwwwwwwwwwwwwwwwwwwwwwwwwwwwwwww954442X =EWWWWWWWWWWWWWWWWWWWW",
"WWWWWWWWWWWWWWWWWWWWWIo o5wwwwwwwwwwwwwwwwwwwwwwwwwwwwwwwwwwwww75554,X OUWWWWWWWWWWWWWWWWWWWWW",
"WWWWWWWWWWWWWWWWWWWWWWLX .2wwwwwwwwwwwwwwwwwwwwwwwwwwwwwwwwww945545;. XLWWWWWWWWWWWWWWWWWWWWWW",
"WWWWWWWWWWWWWWWWWWWWWWWP#  $6wwwwwwwwwwwwwwwwwwwwwwwwwwwwww9554441@  $IWWWWWWWWWWWWWWWWWWWWWWW",
"WWWWWWWWWWWWWWWWWWWWWWWWT8   $1wwwwwwww0wwwwwwwwwwwwwwww9755544>@   qTWWWWWWWWWWWWWWWWWWWWWWWW",
"WWWWWWWWWWWWWWWWWWWWWWWWWWH%    .. .. .. ......... .. . . ...     XZWWWWWWWWWWWWWWWWWWWWWWWWWW",
"WWWWWWWWWWWWWWWWWWWWWWWWWWYq                                       .vEWWWWWWWWWWWWWWWWWWWWWWWW",
"WWWWWWWWWWWWWWWWWWWWWWWWWE@  1yyyeqeqq0998985855322211<<<,>>:::-;-o  gWWWWWWWWWWWWWWWWWWWWWWWW",
"WWWWWWWWWWWWWWWWWWWWWWWWWR  0MMMMnnbbxzzzzjjhhhffddssattrreeewww096# 3WWWWWWWWWWWWWWWWWWWWWWWW",
"WWWWWWWWWWWWWWWWWWWWWWWWWR  5wwwwwwwwwwwwwwwwwwwwwwwww5555545555555* 3WWWWWWWWWWWWWWWWWWWWWWWW",
"WWWWWWWWWWWWWWWWWWWWWWWWWR  5wwwwwwwwwwwwwwwwwwwwwwwww5545554555555* 8WWWWWWWWWWWWWWWWWWWWWWWW",
"WWWWWWWWWWWWWWWWWWWWWWWWWR  5wwwwwwwwwwwwwwwwwwwwwwww05554545454555* 3WWWWWWWWWWWWWWWWWWWWWWWW",
"WWWWWWWWWWWWWWWWWWWWWWWWWE  5wwwwwwwwwwwwwwwwwwwwwww055555555555454* 8WWWWWWWWWWWWWWWWWWWWWWWW",
"WWWWWWWWWWWWWWWWWWWWWWWWWE  #6wwwwwwwwwwwwwwwwwwwww755555554555555,X 8WWWWWWWWWWWWWWWWWWWWWWWW",
"WWWWWWWWWWWWWWWWWWWWWWWWWWy                                         .FWWWWWWWWWWWWWWWWWWWWWWWW",
"WWWWWWWWWWWWWWWWWWWWWWWWWWWHX                                      =UWWWWWWWWWWWWWWWWWWWWWWWWW",
"WWWWWWWWWWWWWWWWWWWWWWWWWWWWq >khgsiuye095321,,,,,,<,,,,,,<,,,,,,. FWWWWWWWWWWWWWWWWWWWWWWWWWW",
"WWWWWWWWWWWWWWWWWWWWWWWWWWWWy 2Bnbvzhdapye06555555454554554545545. HWWWWWWWWWWWWWWWWWWWWWWWWWW",
"WWWWWWWWWWWWWWWWWWWWWWWWWWWWy                                      HWWWWWWWWWWWWWWWWWWWWWWWWWW",
"WWWWWWWWWWWWWWWWWWWWWWWWWWWWS                                     oUWWWWWWWWWWWWWWWWWWWWWWWWWW",
"WWWWWWWWWWWWWWWWWWWWWWWWWWWWWERRRRRRRRRRRRRRRRRRRRRRRRRRRRRRRRRRREEWWWWWWWWWWWWWWWWWWWWWWWWWWW",
"WWWWWWWWWWWWWWWWWWWWWWWWWWWWWWWWWWWWWWWWWWWWWWWWWWWWWWWWWWWWWWWWWWWWWWWWWWWWWWWWWWWWWWWWWWWWWW",
"WWWWWWWWWWWWWWWWWWWWWWWWWWWWWWWWWWWWWWWWWWWWWWWWWWWWWWWWWWWWWWWWWWWWWWWWWWWWWWWWWWWWWWWWWWWWWW",
"WWWWWWWWWWWWWWWWWWWWWWWWWWWWWWWWWWWWWWWWWWWWWWWWWWWWWWWWWWWWWWWWWWWWWWWWWWWWWWWWWWWWWWWWWWWWWW",
"WWWWWWWWWWWWWWWWWWWWWWWWWWWWWWWWWWWWWWWWWWWWWWWWWWWWWWWWWWWWWWWWWWWWWWWWWWWWWWWWWWWWWWWWWWWWWW",
"WWWWWWWWWWWWWWWWWWWWWWWWWWWWWWWWWWWWWWWWWWWWWWWWWWWWWWWWWWWWWWWWWWWWWWWWWWWWWWWWWWWWWWWWWWWWWW",
"WWWWWWWWWWWWWWWWWWWWWWWWWWWWWWWWWWWWWWWWWWWWWWWWWWWWWWWWWWWWWWWWWWWWWWWWWWWWWWWWWWWWWWWWWWWWWW"
};
