/* XPM */
static const char *xpm_bR[] = {
"94 94 78 1",
" 	c None",
".	c #202020",
"+	c #484848",
"@	c #353535",
"#	c #0E0E0E",
"$	c #1B1B1B",
"%	c #444444",
"&	c #282828",
"*	c #242424",
"=	c #2F2F2F",
"-	c #474747",
";	c #2B2B2B",
">	c #171717",
",	c #101010",
"'	c #212121",
")	c #0F0F0F",
"!	c #1F1F1F",
"~	c #414141",
"{	c #434343",
"]	c #393939",
"^	c #292929",
"/	c #222222",
"(	c #686868",
"_	c #5D5D5D",
":	c #494949",
"<	c #383838",
"[	c #151515",
"}	c #4D4D4D",
"|	c #FEFEFE",
"1	c #323232",
"2	c #3C3C3C",
"3	c #181818",
"4	c #333333",
"5	c #121212",
"6	c #161616",
"7	c #3F3F3F",
"8	c #3E3E3E",
"9	c #5A5A5A",
"0	c #8B8B8B",
"a	c #272727",
"b	c #111111",
"c	c #343434",
"d	c #A0A0A0",
"e	c #727272",
"f	c #6E6E6E",
"g	c #1A1A1A",
"h	c #252525",
"i	c #626262",
"j	c #1E1E1E",
"k	c #5B5B5B",
"l	c #515151",
"m	c #7A7A7A",
"n	c #BDBDBD",
"o	c #535353",
"p	c #232323",
"q	c #141414",
"r	c #666666",
"s	c #F3F3F3",
"t	c #A3A3A3",
"u	c #575757",
"v	c #565656",
"w	c #313131",
"x	c #1C1C1C",
"y	c #2E2E2E",
"z	c #EDEDED",
"A	c #131313",
"B	c #B5B5B5",
"C	c #DFDFDF",
"D	c #8F8F8F",
"E	c #949494",
"F	c #3B3B3B",
"G	c #E2E2E2",
"H	c #191919",
"I	c #828282",
"J	c #898989",
"K	c #6C6C6C",
"L	c #DCDCDC",
"M	c #606060",
"                                                                                              ",
"                                                                                              ",
"                                                                                              ",
"                                                                                              ",
"                                                                                              ",
"                                                                                              ",
"                                                                                              ",
"                                                                                              ",
"                                                                                              ",
"                                                                                              ",
"                                                                                              ",
"                                                                                              ",
"                                                                                              ",
"                                                                                              ",
"                                                                                              ",
"                                                                                              ",
"                                                                                              ",
"                                                                                              ",
"                                                                                              ",
"                                                                                              ",
"                                 ..                                                           ",
"                                 .+  .@      ###                                              ",
"                                 .+ .+     ###$###                                            ",
"                            .  % &+*.=## ###-=;>>##                                           ",
"                             + % +;+#######+,;;>';### ##                                      ",
"                             .+. .)##%+!+.;,,;;;;;;######                                     ",
"                              '~####{];^+;;,,,>;;;;;;;;;##                                    ",
"                               .#;..;>;/-((_,,;;;;;;;;;!##                                    ",
"                               ##;+.;;;..:<(,[;;;#,;;;;)###                                   ",
"                               ##;+.;;;;',,;,;+;;},,;;;,#|#                                   ",
"                              ##/.1.;;2;,,3,!;+;;4#,,,5,#|##                                  ",
"                             ##;~>=.;;;;,;;&;6;;;((#),,)#(|##                                 ",
"                            ##;;7;<.;;;;3;+#8(;;((((9##(((0a#                                 ",
"                            #^;4^..;;)#;;+bc|d(((((((((((((|##                                ",
"                           ##;;;+.';/,#;;+,*e(((((;((((((((f|##                               ",
"                           ##g;;+.a;#(ch;%/#((((((i(((((((((||##                              ",
"                           #.#;;]ja;&k;,;;.,((;;((((((((((|||||#                              ",
"                          ##.#;f;;;;;;,,;^.,#(;_((((+|((((((|||##                             ",
"                          #>.#;;;$;;;>>;;+;/#(((((((((((((((|||#                              ",
"                          #,/+$j;[##;>>;;;;;,#(((((((((((;(|||l#                              ",
"                          #,&;+a>;,#;;;;##j(((((m((((((n((||||##                              ",
"                          #5,;>&.;;,#;;o#n###(((|(((((|(|(||||#                               ",
"                          ###,>p!;;,#;;##;i0##)(((((((((((#####                               ",
"                           ##,,+$;;q#;;###;;;r###((((7:####||##                               ",
"                           ##,,+;;(}h;^35####;cs###(###)t;;;###                               ",
"                           #),/+;;;#;;;3,3;&###;1|#[##-;;######                               ",
"                           #5,,.;>((#;;b###);^###[#,u#####v__##                               ",
"                           ##^,5;;w(#5;b#|,###x;###b(,#$_l#####                               ",
"                           ##;;;;;.;(#;3#||||*###,;;(;#####|##                                ",
"                            #####y.;,*;##|||||||###((_#+||||##                                ",
"                                #+,,[[;3#i|||||||##((8#z||||##                                ",
"                                #+;,;;=yq#||||||,#r(((A#|||#                                  ",
"                                #+;8;;+.6###|||##&((((~######                                 ",
"                                #%;/3;+.A#)#####*;;((((w$#9##                                 ",
"                                #.;&>;+#;b,;;;*((9(((((###|##                                 ",
"                               ##.;,,,./#(;;;<###((((((#p####                                 ",
"                                ##a;,,.;;######x#############                                 ",
"                                 ####g;/;;;;>#####!Bdo8(k7###                                 ",
"                                   ####;;>3;;#];;;&,########                                  ",
"                                    /##&;;;,,###############                                  ",
"                                    ####################                                      ",
"                                   #)+.;##i#######/C|#)#                                      ",
"                                   #+^;;#)((((((;;(D|#(#                                      ",
"                                  ##+;;(##&(((((((((|#E##                                     ",
"                                  #37;(;|#,,;((((((||##=#                                     ",
"                                  #.p-((B#Fw;(((((G|||G###                                    ",
"                                +##H;((|g#(;y(((I(J||||###                                    ",
"                                 ##&;#(|##;;(((((((m|||###                                    ",
"                                 #########;(((((((K|K|##,##                                   ",
"                                 #,&;%i,##;(k((((((((L##;##                                   ",
"                                 #3^;(|||#(((((((((((######                                   ",
"                                  #>;;(|##;((((c((((|#u((#                                    ",
"                                  ##q;;M##,;((((((;(|#####                                    ",
"                                    #####)##M(##((||L##                                       ",
"                                    # #################                                       ",
"                                      #>;;(((q##>;;;(L#                                       ",
"                                      #>>;;(;;##>;;;(((#                                      ",
"                                      ##################                                      ",
"                                        #       ##                                            ",
"                                                                                              ",
"                                                                                              ",
"                                                                                              ",
"                                                                                              ",
"                                                                                              ",
"                                                                                              ",
"                                                                                              ",
"                                                                                              ",
"                                                                                              ",
"                                                                                              ",
"                                                                                              ",
"                                                                                              ",
"                                                                                              ",
"                                                                                              ",
"                                                                                              "};
