/* XPM */
static const char *xpm_bR[] = {
/* columns rows colors chars-per-pixel */
"94 94 75 1 ",
"  c #000000",
". c #080707",
"X c #080807",
"o c #0B0B0A",
"O c #100F0E",
"+ c #11100F",
"@ c #151413",
"# c #191715",
"$ c #1A1817",
"% c #1B1A19",
"& c #201E1C",
"* c #24211F",
"= c #262421",
"- c #292624",
"; c #2C2927",
": c #2D2B29",
"> c #312E2B",
", c #35312E",
"< c #333333",
"1 c #393633",
"2 c #3C3936",
"3 c #3C3B3A",
"4 c #423D39",
"5 c #45413D",
"6 c #49443F",
"7 c #454442",
"8 c #4A4642",
"9 c #4C4946",
"0 c #4B4A4A",
"q c #514B46",
"w c #544E4A",
"e c #56514D",
"r c #59534E",
"t c #565555",
"y c #5B5652",
"u c #5F5955",
"i c #5A5959",
"p c #605B56",
"a c #635E59",
"s c #65605C",
"d c #68635F",
"f c #636363",
"g c #6B6662",
"h c #6D6864",
"j c #6C6C6B",
"k c #706B67",
"l c #746F6B",
"z c #75716D",
"x c #78736F",
"c c #767676",
"v c #7B7773",
"b c #7F7A77",
"n c #7C7C7C",
"m c #827E7A",
"M c #87837F",
"N c #848484",
"B c #8A8682",
"V c #8D8986",
"C c #8B8B8B",
"Z c #908D89",
"A c #959493",
"S c #989491",
"D c #9E9B99",
"F c #A6A6A6",
"G c #ACACAC",
"H c #B4B4B4",
"J c #BCBCBC",
"K c #C2C2C2",
"L c #CCCCCC",
"P c #D3D3D3",
"I c #DCDCDC",
"U c #E2E2E2",
"Y c #EBEBEB",
"T c #F3F3F3",
"R c none",
/* pixels */
"RRRRRRRRRRRRRRRRRRRRRRRRRRRRRRRRRRRRRRRRRRRRRRRRRRRRRRRRRRRRRRRRRRRRRRRRRRRRRRRRRRRRRRRRRRRRRR",
"RRRRRRRRRRRRRRRRRRRRRRRRRRRRRRRRRRRRRRRRRRRRRRRRRRRRRRRRRRRRRRRRRRRRRRRRRRRRRRRRRRRRRRRRRRRRRR",
"RRRRRRRRRRRRRRRRRRRRRRRRRRRRRRRRRRRRRRRRRRRRRRRRRRRRRRRRRRRRRRRRRRRRRRRRRRRRRRRRRRRRRRRRRRRRRR",
"RRRRRRRRRRRRRRRRRRRRRRRRRRRRRRRRRRRRRRRRRRRRRRRRRRRRRRRRRRRRRRRRRRRRRRRRRRRRRRRRRRRRRRRRRRRRRR",
"RRRRRRRRRRRRRRRRRRRRRRRRRRRRRRRRRRRRRRRRRRRRRRRRRRRRRRRRRRRRRRRRRRRRRRRRRRRRRRRRRRRRRRRRRRRRRR",
"RRRRRRRRRRRRRRRRRRRRRRRRRRRRRRRRRRRRRRRRRRRRRRRRRRRRRRRRRRRRRRRRRRRRRRRRRRRRRRRRRRRRRRRRRRRRRR",
"RRRRRRRRRRRRRRRRRRRRRRRRRRRRRRRRRRRRRRRRRRRRRRRRRRRRRRRRRRRRRRRRRRRRRRRRRRRRRRRRRRRRRRRRRRRRRR",
"RRRRRRRRRRRRRRRRRRRRRRRRRRRRRRRRRRRRRRRRRRRRRRRRRRRRRRRRRRRRRRRRRRRRRRRRRRRRRRRRRRRRRRRRRRRRRR",
"RRRRRRRRRRRRRRRRRRRRRRRRRRRRRRRRRRRRRRRRRRRRRRRRRRRRRRRRRRRRRRRRRRRRRRRRRRRRRRRRRRRRRRRRRRRRRR",
"RRRRRRRRRRRRRRRRRRRRRRRRRRRRRRRRRRRRRRRRRRRRRRRRRRRRRRRRRRRRRRRRRRRRRRRRRRRRRRRRRRRRRRRRRRRRRR",
"RRRRRRRRRRRRRRRRRRRRRRRRRRRRRRRRRRRRRRRRRRRRRRRRRRRRRRRRRRRRRRRRRRRRRRRRRRRRRRRRRRRRRRRRRRRRRR",
"RRRRRRRRRRRRRRRRRRRRRRRRRRRRRRRRRRRRRRRRRRRRRRRRRRRRRRRRRRRRRRRRRRRRRRRRRRRRRRRRRRRRRRRRRRRRRR",
"RRRRRRRRRRRRRRRRRRRRRRRRRRRRRRRRRRRRRRRRRRRRRRRRRRRRRRRRRRRRRRRRRRRRRRRRRRRRRRRRRRRRRRRRRRRRRR",
"RRRRRRRRRRRRRRRRRRRRRRRRRRRRRRRRRRRRRRRRRRRRRRRRRRRRRRRRRRRRRRRRRRRRRRRRRRRRRRRRRRRRRRRRRRRRRR",
"RRRRRRRRRRRRRRRRRRRRRRRRRRRRRRRRRRRRRRRRRRRRRRRRRRRRRRRRRRRRRRRRRRRRRRRRRRRRRRRRRRRRRRRRRRRRRR",
"RRRRRRRRRRRRRRRRRRRRRRRRRRRRRRRRRRRRRRRRRRRRRRRRRRRRRRRRRRRRRRRRRRRRRRRRRRRRRRRRRRRRRRRRRRRRRR",
"RRRRRRRRRRRRRRRRRRRRRRRRRJ3<<<<<<<<3HRRRRL3<<<<<<<<3LRRRRH2<<<<<<<<3JRRRRRRRRRRRRRRRRRRRRRRRRR",
"RRRRRRRRRRRRRRRRRRRRRRRRRi          0RRRRj          jRRRR0          iRRRRRRRRRRRRRRRRRRRRRRRRR",
"RRRRRRRRRRRRRRRRRRRRRRRRRt -it952>@ 0RRRRj &it951,o jRRRR0 ;y0741,+ iRRRRRRRRRRRRRRRRRRRRRRRRR",
"RRRRRRRRRRRRRRRRRRRRRRRRRt 9Zgspye= 0RRRRj 2Zkdaye% jRRRR0 ebspure% iRRRRRRRRRRRRRRRRRRRRRRRRR",
"RRRRRRRRRRRRRRRRRRRRRRRRRt 9Bqqqqq* 0RRRRj 1Bqqqqq$ jRRRR0 ehqqqqq& tRRRRRRRRRRRRRRRRRRRRRRRRR",
"RRRRRRRRRRRRRRRRRRRRRRRRRt 0Bqqqqq= 0RRRRj 3Bqqqqq$ jRRRR0 whwqqqq& iRRRRRRRRRRRRRRRRRRRRRRRRR",
"RRRRRRRRRRRRRRRRRRRRRRRRRt 9Bqqqqq* =cccc< 2Bqqqqq$ <cccc& ehqqqqq% iRRRRRRRRRRRRRRRRRRRRRRRRR",
"RRRRRRRRRRRRRRRRRRRRRRRRRt 9Bqqqqq=        3Mqqqqq%        tgqqqqq* tRRRRRRRRRRRRRRRRRRRRRRRRR",
"RRRRRRRRRRRRRRRRRRRRRRRRRt 0Bqqqqq4$@@@@@@#9rqqqqq2#@@@@@@$ewqqqqq* iRRRRRRRRRRRRRRRRRRRRRRRRR",
"RRRRRRRRRRRRRRRRRRRRRRRRRt 9Bqqqqqqqqqqqqqqqqqqqqqqqqqqqqqqqqqqqqq& tRRRRRRRRRRRRRRRRRRRRRRRRR",
"RRRRRRRRRRRRRRRRRRRRRRRRRt 9Bqqqqqqqqqqqqqqqqqqqqqqqqqqqqqqqqqqqqq& iRRRRRRRRRRRRRRRRRRRRRRRRR",
"RRRRRRRRRRRRRRRRRRRRRRRRRt 0Bqqqqqqqqqqqqqqqqqqqqqqqqqqqqqqqqqqqqq% iRRRRRRRRRRRRRRRRRRRRRRRRR",
"RRRRRRRRRRRRRRRRRRRRRRRRRt 0m9qqqqqqqqqqqqqqqqqqqqqqqqqqqqqqqqqqqq& iRRRRRRRRRRRRRRRRRRRRRRRRR",
"RRRRRRRRRRRRRRRRRRRRRRRRRt 9yqqqqqqqqqqqqqqqqqqqqqqqqqqqqqqqqqqqqw& tRRRRRRRRRRRRRRRRRRRRRRRRR",
"RRRRRRRRRRRRRRRRRRRRRRRRRt @======================================o iRRRRRRRRRRRRRRRRRRRRRRRRR",
"RRRRRRRRRRRRRRRRRRRRRRRRRi                                          iRRRRRRRRRRRRRRRRRRRRRRRRR",
"RRRRRRRRRRRRRRRRRRRRRRRRRKO  X@@@@@@@+@@@@@@@@+@@@@@@@@@@@@@+@@@X  oKRRRRRRRRRRRRRRRRRRRRRRRRR",
"RRRRRRRRRRRRRRRRRRRRRRRRRRU3  +8qqqqqqqqqqqqqqqqqqqqqqqqqqqqqq6@  <URRRRRRRRRRRRRRRRRRRRRRRRRR",
"RRRRRRRRRRRRRRRRRRRRRRRRRRRTc  .1qqqqqqqqqqqqqqqqqqqqqqqqqqqq2X  jTRRRRRRRRRRRRRRRRRRRRRRRRRRR",
"RRRRRRRRRRRRRRRRRRRRRRRRRRRRRH@  -qqqqqqqqqqqqqqqqqqqqqqqqqq:  OGRRRRRRRRRRRRRRRRRRRRRRRRRRRRR",
"RRRRRRRRRRRRRRRRRRRRRRRRRRRRRRI<  X%%%%##$$$#%#%%#$$$$#$$$%X  <URRRRRRRRRRRRRRRRRRRRRRRRRRRRRR",
"RRRRRRRRRRRRRRRRRRRRRRRRRRRRRRRTj                            jTRRRRRRRRRRRRRRRRRRRRRRRRRRRRRRR",
"RRRRRRRRRRRRRRRRRRRRRRRRRRRRRRRRU  %*&&&&&%%%%%%%%%%%%%%%$#  URRRRRRRRRRRRRRRRRRRRRRRRRRRRRRRR",
"RRRRRRRRRRRRRRRRRRRRRRRRRRRRRRRRJ  9uqqqqqq8444444444444444  JRRRRRRRRRRRRRRRRRRRRRRRRRRRRRRRR",
"RRRRRRRRRRRRRRRRRRRRRRRRRRRRRRRRA Xqmzrqqqqqq85444444444444X DRRRRRRRRRRRRRRRRRRRRRRRRRRRRRRRR",
"RRRRRRRRRRRRRRRRRRRRRRRRRRRRRRRRc @emvkrqqqqqqq645444454444@ cRRRRRRRRRRRRRRRRRRRRRRRRRRRRRRRR",
"RRRRRRRRRRRRRRRRRRRRRRRRRRRRRRRR0 &pmvldqqqqqqqqq5444444444& 0RRRRRRRRRRRRRRRRRRRRRRRRRRRRRRRR",
"RRRRRRRRRRRRRRRRRRRRRRRRRRRRRRRR; ;dmvlkrqqqqqqqqq644444444- -RRRRRRRRRRRRRRRRRRRRRRRRRRRRRRRR",
"RRRRRRRRRRRRRRRRRRRRRRRRRRRRRRRR. 1kmvzgaqqqqqqqqqq64444444> XRRRRRRRRRRRRRRRRRRRRRRRRRRRRRRRR",
"RRRRRRRRRRRRRRRRRRRRRRRRRRRRRRRI  4vmvlhswqqqqqqqqqq64444441  IRRRRRRRRRRRRRRRRRRRRRRRRRRRRRRR",
"RRRRRRRRRRRRRRRRRRRRRRRRRRRRRRRH  qmmvlhsrqqqqqqqqqqq6454444  JRRRRRRRRRRRRRRRRRRRRRRRRRRRRRRR",
"RRRRRRRRRRRRRRRRRRRRRRRRRRRRRRRC oqBmvzgsyqqqqqqqqqqqq644444X ARRRRRRRRRRRRRRRRRRRRRRRRRRRRRRR",
"RRRRRRRRRRRRRRRRRRRRRRRRRRRRRRRj #yBmxlhapqqqqqqqqqqqqq44444@ lRRRRRRRRRRRRRRRRRRRRRRRRRRRRRRR",
"RRRRRRRRRRRRRRRRRRRRRRRRRRRRRRR0 *aBmmlhapwqqqqqqqqqqqq95444& 0RRRRRRRRRRRRRRRRRRRRRRRRRRRRRRR",
"RRRRRRRRRRRRRRRRRRRRRRRRRRRRRRR= >kBmxlhapwqqqqqqqqqqqqq6444- =RRRRRRRRRRRRRRRRRRRRRRRRRRRRRRR",
"RRRRRRRRRRRRRRRRRRRRRRRRRRRRRRT  1vmmmlhapwqqqqqqqqqqqqqq544> .TRRRRRRRRRRRRRRRRRRRRRRRRRRRRRR",
"RRRRRRRRRRRRRRRRRRRRRRRRRRRRRRP  4mBmxkgapeqqqqqqqqqqqqqq8441  IRRRRRRRRRRRRRRRRRRRRRRRRRRRRRR",
"RRRRRRRRRRRRRRRRRRRRRRRRRRRRRRH .qVBmmlhdpeqqqqqqqqqqqqqqq644  HRRRRRRRRRRRRRRRRRRRRRRRRRRRRRR",
"RRRRRRRRRRRRRRRRRRRRRRRRRRRRRRC OeZBmxlhapeqqqqqqqqqqqqqqq944o CRRRRRRRRRRRRRRRRRRRRRRRRRRRRRR",
"RRRRRRRRRRRRRRRRRRRRRRRRRRRRRRf #aZBmmlhapeqqqqqqqqqqqqqqqq64@ jRRRRRRRRRRRRRRRRRRRRRRRRRRRRRR",
"RRRRRRRRRRRRRRRRRRRRRRRRRRRRRR7 *kZMmxlkaarqqqqqqqqqqqqqqqqq4& 7RRRRRRRRRRRRRRRRRRRRRRRRRRRRRR",
"RRRRRRRRRRRRRRRRRRRRRRRRRRRRRR% >xZBmmlgapeqqqqqqqqqqqqqqqqq4; &RRRRRRRRRRRRRRRRRRRRRRRRRRRRRR",
"RRRRRRRRRRRRRRRRRRRRRRRRRRRRRT  4mZBmvlkapeqqqqqqqqqqqqqqqqq8>  TRRRRRRRRRRRRRRRRRRRRRRRRRRRRR",
"RRRRRRRRRRRRRRRRRRRRRRRRRRRRRL  5VZBmvlgapeqqqqqqqqqqqqqqqqqq2  PRRRRRRRRRRRRRRRRRRRRRRRRRRRRR",
"RRRRRRRRRRRRRRRRRRRRRRRRRRRRRG .qSZBmvlkapeqqqqqqqqqqqqqqqqqq5. GRRRRRRRRRRRRRRRRRRRRRRRRRRRRR",
"RRRRRRRRRRRRRRRRRRRRRRRRRRRRRN opSZBmvlgapeqqqqqqqqqqqqqqqqqq6o CRRRRRRRRRRRRRRRRRRRRRRRRRRRRR",
"RRRRRRRRRRRRRRRRRRRRRRRRRRRRRa &dSZBmvlksprqqqqqqqqqqqqqqqqqq9# fRRRRRRRRRRRRRRRRRRRRRRRRRRRRR",
"RRRRRRRRRRRRRRRRRRRRRRRRRRRRR3 *zSZMmvlgapeqqqqqqqqqqqqqqqqqqq* 3RRRRRRRRRRRRRRRRRRRRRRRRRRRRR",
"RRRRRRRRRRRRRRRRRRRRRRRRRRRRR@ ,mSZBmvlkapeqqqqqqqqqqqqqqqqqqq> %RRRRRRRRRRRRRRRRRRRRRRRRRRRRR",
"RRRRRRRRRRRRRRRRRRRRRRRRRRRRT  2VSZBmvzgapeqqqqqqqqqqqqqqqqqqq1  TRRRRRRRRRRRRRRRRRRRRRRRRRRRR",
"RRRRRRRRRRRRRRRRRRRRRRRRRRRRL  8SSZBmvzkapeqqqqqqqqqqqqqqqqqqq6  LRRRRRRRRRRRRRRRRRRRRRRRRRRRR",
"RRRRRRRRRRRRRRRRRRRRRRRRRRRRF .rDSZBmvlgapeqqqqqqqqqqqqqqqqqqqq. FRRRRRRRRRRRRRRRRRRRRRRRRRRRR",
"RRRRRRRRRRRRRRRRRRRRRRRRRRRRn +aDSZBmvlhapeqqqqqqqqqqqqqqqqqqqqO NRRRRRRRRRRRRRRRRRRRRRRRRRRRR",
"RRRRRRRRRRRRRRRRRRRRRRRRRRRRi &kDSZBmclhaprqqqqqqqqqqqqqqqqqqqq& iRRRRRRRRRRRRRRRRRRRRRRRRRRRR",
"RRRRRRRRRRRRRRRRRRRRRRRRRRRR< -mDSZBmvlhapeqqqqqqqqqqqqqqqqqqqq= 2RRRRRRRRRRRRRRRRRRRRRRRRRRRR",
"RRRRRRRRRRRRRRRRRRRRRRRRRRRR@ ,BDSZBmvlhdpeqqqqqqqqqqqqqqqqqqqq> +RRRRRRRRRRRRRRRRRRRRRRRRRRRR",
"RRRRRRRRRRRRRRRRRRRRRRRRRRRG  .XXXXXX....... ...... . .... ... .  GRRRRRRRRRRRRRRRRRRRRRRRRRRR",
"RRRRRRRRRRRRRRRRRRRRRRRRRYi                                        iYRRRRRRRRRRRRRRRRRRRRRRRRR",
"RRRRRRRRRRRRRRRRRRRRRRRRR<  =9999977774543343321111<><>>>::::---=@  <RRRRRRRRRRRRRRRRRRRRRRRRR",
"RRRRRRRRRRRRRRRRRRRRRRRRR$ ,zzljkkkhhghgggdddaspppppurewwwqq8qq688= @RRRRRRRRRRRRRRRRRRRRRRRRR",
"RRRRRRRRRRRRRRRRRRRRRRRRR$ ,qqqqqqqqqqqqqqqqqqqqqqqqq4444444441444; #RRRRRRRRRRRRRRRRRRRRRRRRR",
"RRRRRRRRRRRRRRRRRRRRRRRRR% >qqqqqqqqqqqqqqqqqqqqqqqqq4444444244444; @RRRRRRRRRRRRRRRRRRRRRRRRR",
"RRRRRRRRRRRRRRRRRRRRRRRRR$ ,qqqqqqqqqqqqqqqqqqqqqqqqq4444444444442; %RRRRRRRRRRRRRRRRRRRRRRRRR",
"RRRRRRRRRRRRRRRRRRRRRRRRR$ ,qqqqqqqqqqqqqqqqqqqqqqqq54444424444444; $RRRRRRRRRRRRRRRRRRRRRRRRR",
"RRRRRRRRRRRRRRRRRRRRRRRRR% @3qqqqqqqqqqqqqqqqqqqqq8444444444444441o %RRRRRRRRRRRRRRRRRRRRRRRRR",
"RRRRRRRRRRRRRRRRRRRRRRRRRn                                          nRRRRRRRRRRRRRRRRRRRRRRRRR",
"RRRRRRRRRRRRRRRRRRRRRRRRRRK@                                      @KRRRRRRRRRRRRRRRRRRRRRRRRRR",
"RRRRRRRRRRRRRRRRRRRRRRRRRRRc #fpuytew9854311,,,,,,<,,,,,,,<,,,,,o cRRRRRRRRRRRRRRRRRRRRRRRRRRR",
"RRRRRRRRRRRRRRRRRRRRRRRRRRRn %vljgsaiyewq95444444444444444444444@ nRRRRRRRRRRRRRRRRRRRRRRRRRRR",
"RRRRRRRRRRRRRRRRRRRRRRRRRRRn                                      nRRRRRRRRRRRRRRRRRRRRRRRRRRR",
"RRRRRRRRRRRRRRRRRRRRRRRRRRRJX                                    .HRRRRRRRRRRRRRRRRRRRRRRRRRRR",
"RRRRRRRRRRRRRRRRRRRRRRRRRRRRRRRRRRRRRRRRRRRRRRRRRRRRRRRRRRRRRRRRRRRRRRRRRRRRRRRRRRRRRRRRRRRRRR",
"RRRRRRRRRRRRRRRRRRRRRRRRRRRRRRRRRRRRRRRRRRRRRRRRRRRRRRRRRRRRRRRRRRRRRRRRRRRRRRRRRRRRRRRRRRRRRR",
"RRRRRRRRRRRRRRRRRRRRRRRRRRRRRRRRRRRRRRRRRRRRRRRRRRRRRRRRRRRRRRRRRRRRRRRRRRRRRRRRRRRRRRRRRRRRRR",
"RRRRRRRRRRRRRRRRRRRRRRRRRRRRRRRRRRRRRRRRRRRRRRRRRRRRRRRRRRRRRRRRRRRRRRRRRRRRRRRRRRRRRRRRRRRRRR",
"RRRRRRRRRRRRRRRRRRRRRRRRRRRRRRRRRRRRRRRRRRRRRRRRRRRRRRRRRRRRRRRRRRRRRRRRRRRRRRRRRRRRRRRRRRRRRR",
"RRRRRRRRRRRRRRRRRRRRRRRRRRRRRRRRRRRRRRRRRRRRRRRRRRRRRRRRRRRRRRRRRRRRRRRRRRRRRRRRRRRRRRRRRRRRRR",
"RRRRRRRRRRRRRRRRRRRRRRRRRRRRRRRRRRRRRRRRRRRRRRRRRRRRRRRRRRRRRRRRRRRRRRRRRRRRRRRRRRRRRRRRRRRRRR"
};
