/* XPM */
static const char *xpm_wB[] = {
"94 94 52 1",
" 	c None",
".	c #171717",
"+	c #EDEDED",
"@	c #F0F0F0",
"#	c #212121",
"$	c #B1B1B1",
"%	c #DCDCDC",
"&	c #B7B7B7",
"*	c #787878",
"=	c #A3A3A3",
"-	c #747474",
";	c #ADADAD",
">	c #969696",
",	c #AAAAAA",
"'	c #5A5A5A",
")	c #9D9D9D",
"!	c #535353",
"~	c #494949",
"{	c #A0A0A0",
"]	c #676767",
"^	c #FFFFFF",
"/	c #828282",
"(	c #6E6E6E",
"_	c #1A1A1A",
":	c #101010",
"<	c #3C3C3C",
"[	c #464646",
"}	c #4C4C4C",
"|	c #6A6A6A",
"1	c #7B7B7B",
"2	c #505050",
"3	c #8C8C8C",
"4	c #CBCBCB",
"5	c #DFDFDF",
"6	c #999999",
"7	c #3F3F3F",
"8	c #606060",
"9	c #D5D5D5",
"0	c #2B2B2B",
"a	c #000000",
"b	c #7F7F7F",
"c	c #060606",
"d	c #565656",
"e	c #858585",
"f	c #FAFAFA",
"g	c #939393",
"h	c #646464",
"i	c #BEBEBE",
"j	c #353535",
"k	c #BBBBBB",
"l	c #D2D2D2",
"m	c #8F8F8F",
"                                                                                              ",
"                                                                                              ",
"                                                                                              ",
"                                                                                              ",
"                                                                                              ",
"                                                                                              ",
"                                                                                              ",
"                                                                                              ",
"                                                                                              ",
"                                                                                              ",
"                                                                                              ",
"                                                                                              ",
"                                                                                              ",
"                                                                                              ",
"                                                                                              ",
"                                                                                              ",
"                                                                                              ",
"                                                                                              ",
"                                                                                              ",
"                                        ...........                                           ",
"                                     ......++@++......                                        ",
"                                  ....#$$$$$$$$%@@@+....                                      ",
"                                ....$$$$$$$$$$$$$&@@@@...                                     ",
"                               ..#$$$$$$$$$$$$$$$$$@@@@@...                                   ",
"                             ...****=$$$$$$$$$$$$$$&@@@@@#..                                  ",
"                            ..-*****$$$$$$$$$$$$$$$$@@@@@@+..                                 ",
"                           ..*******$$$$$$$$$$$$$*;$@@@@@@@+..                                ",
"                          ..*******>$$$$$$$$$$$$$**$@@@@@@@@+..                               ",
"                         ..***.****$$$$$$$$$$$$$$$$$+@@@@@@@@..                               ",
"                        ..***.*****$$$$$$$$$$$$$$$=*$+@@@@@$@@..                              ",
"                       ..***..*****$$$$$$$$$$$$$$$,**$$$$$$$$@@..                             ",
"                       ..**..*******$$$$$$$$$$$$$$$**$$$$$$$$+@..                             ",
"                       .***..*******;$$$$$$$$$$$$$$$$$$$$$$$$$@@.                             ",
"                      ..**..*********;$$$$$$$$$$$$$$$$$$$$$$$$+@..                            ",
"                       .**.'***********$$$*$$$$$$$$$$$$$$$$$$$$@*.                            ",
"                       ....**************)*$$$$$$$$$$$$$$$$$$$$@@.                            ",
"                        ...*!***************$$$$$$$$$$$$$$$$$$$$@..                           ",
"                         .**~******************{$$$$$$$$$$$$$$$$@..                           ",
"                        ..*********************..........]$$$$$$@..                           ",
"                        ..******************...........$$$$$$$$$+@.                           ",
"                        .*****************....^^^^^^^....$$$$$$$$@.                           ",
"                        .******~~*******...^^^^^^^^^^^^.../$$$$$$@.                           ",
"                       ..***(**~*******...^^^^^^^^^^^^^^^...$$$$$@.                           ",
"                       ..***~~*******_:....^^^^^^^^^^^^^^<[[[$$$$@..                          ",
"                       .****~*******.:[[[[[..^^^^^^^^^^.[[[[[<$$$@.                           ",
"                       .***********..[}|||//..^^^^^^^^12|3333[~$$@.                           ",
"                       .**********..[|^|^^4333..^^^^^.]|3^^^='.$$@.                           ",
"                       .**********..^^||^^^^563+..^^7^|3^^^^=8_.$'.                           ",
"                       .*********..^^^||^^^^^^=|^^^^^2|^^^^^=|#.;..                           ",
"                       .********..^^^^||^^^^^^^3,^^^^2^^^^^^=|8....                           ",
"                       .**~*****.^^^^^^|^^^^^^^3^^^^^[*^^^^=(_8...                            ",
"                       ..*~~****.^^^^^^||^^^^9)3^^^^^}||333|0.8...                            ",
"                       ..*((***...^a^^^^||*333b^^...^^^||||^c.8..                             ",
"                        ..*****...^^^^^^^[[d[e^^^.(!^^^^^^^^..8..                             ",
"                         ..****.*..^^^^^^[[^^^^^^.(|.^^^^^^^....                              ",
"                          ..******..^^^^^^^^^^^^^....^^^^^^_...                               ",
"                           ..******..^^^^^^^^^^^^^^^^^^^^^^...                                ",
"                            ...*****...^^^^^^^^^^b^^.^^^^....                                 ",
"                              ...|***....^^^^^^^...0f^^....                                   ",
"                               ......**.....a^^^.^^^^.....                                    ",
"                                  .....................                                       ",
"                                    ..g............0$^.                                       ",
"                                    .g,$.*****$..**$$^..                                      ",
"                                   .ggh$.'***$b..**$$i...                                     ",
"                                   .g]$$.7*j{$g..**$$$.=.                                     ",
"                                  ..ge$$.h**$$..._*$>$^..                                     ",
"                                  ..g$$*.****$....*^^4k...                                    ",
"                                  .....#.;%kkkl^^^k]!(%...                                    ",
"                                  .^^.^...^^k^^+7a7^4^ka^.                                    ",
"                                 ..^^^^*^.<]]]]]]]_((((...                                    ",
"                                  .^^^^^..*$$.d'~#.$$*$...                                    ",
"                                  ..^^^...$$$.$hhh.$$$$^.                                     ",
"                                   ..^.^./$$0.$hhh.m$$6$.                                     ",
"                                   ......*m$.#>hhh..$*...                                     ",
"                                      .....#.$h..0h.... ..                                    ",
"                                      .................                                       ",
"                                      ..::}}}. ..:.}}}.                                       ",
"                                      ........  .......                                       ",
"                                                                                              ",
"                                                                                              ",
"                                                                                              ",
"                                                                                              ",
"                                                                                              ",
"                                                                                              ",
"                                                                                              ",
"                                                                                              ",
"                                                                                              ",
"                                                                                              ",
"                                                                                              ",
"                                                                                              ",
"                                                                                              ",
"                                                                                              ",
"                                                                                              ",
"                                                                                              "};
