/* XPM */
static const char *xpm_wK[] = {
"94 94 103 2",
"  	c None",
". 	c #525252",
"+ 	c #4D4D4D",
"@ 	c #C0C0C0",
"# 	c #C1C1C1",
"$ 	c #C5C5C5",
"% 	c #D0D0D0",
"& 	c #515151",
"* 	c #545454",
"= 	c #B7B7B7",
"- 	c #D1D1D1",
"; 	c #DBDBDB",
"> 	c #B8B8B8",
", 	c #898989",
"' 	c #DDDDDD",
") 	c #C6C6C6",
"! 	c #DCDCDC",
"~ 	c #797979",
"{ 	c #818181",
"] 	c #505050",
"^ 	c #969696",
"/ 	c #CECECE",
"( 	c #5B5B5B",
"_ 	c #B4B4B4",
": 	c #ADADAD",
"< 	c #878787",
"[ 	c #B1B1B1",
"} 	c #979797",
"| 	c #676767",
"1 	c #A2A2A2",
"2 	c #DADADA",
"3 	c #C4C4C4",
"4 	c #A4A4A4",
"5 	c #9E9E9E",
"6 	c #8F8F8F",
"7 	c #D4D4D4",
"8 	c #C8C8C8",
"9 	c #606060",
"0 	c #9F9F9F",
"a 	c #6D6D6D",
"b 	c #B6B6B6",
"c 	c #A0A0A0",
"d 	c #AAAAAA",
"e 	c #8B8B8B",
"f 	c #858585",
"g 	c #959595",
"h 	c #BFBFBF",
"i 	c #5E5E5E",
"j 	c #828282",
"k 	c #BCBCBC",
"l 	c #ABABAB",
"m 	c #626262",
"n 	c #BDBDBD",
"o 	c #686868",
"p 	c #C7C7C7",
"q 	c #B3B3B3",
"r 	c #BEBEBE",
"s 	c #CBCBCB",
"t 	c #C9C9C9",
"u 	c #CACACA",
"v 	c #777777",
"w 	c #656565",
"x 	c #949494",
"y 	c #767676",
"z 	c #6E6E6E",
"A 	c #727272",
"B 	c #5F5F5F",
"C 	c #696969",
"D 	c #747474",
"E 	c #707070",
"F 	c #646464",
"G 	c #555555",
"H 	c #666666",
"I 	c #D7D7D7",
"J 	c #CCCCCC",
"K 	c #616161",
"L 	c #6A6A6A",
"M 	c #787878",
"N 	c #E9E9E9",
"O 	c #7D7D7D",
"P 	c #D8D8D8",
"Q 	c #A9A9A9",
"R 	c #8D8D8D",
"S 	c #D9D9D9",
"T 	c #8E8E8E",
"U 	c #7B7B7B",
"V 	c #717171",
"W 	c #CDCDCD",
"X 	c #838383",
"Y 	c #6B6B6B",
"Z 	c #CFCFCF",
"` 	c #575757",
" .	c #595959",
"..	c #7F7F7F",
"+.	c #6C6C6C",
"@.	c #BABABA",
"#.	c #A1A1A1",
"$.	c #D6D6D6",
"%.	c #989898",
"&.	c #888888",
"*.	c #636363",
"=.	c #BBBBBB",
"-.	c #9A9A9A",
"                                                                                                                                                                                            ",
"                                                                                                                                                                                            ",
"                                                                                                                                                                                            ",
"                                                                                                                                                                                            ",
"                                                                                                                                                                                            ",
"                                                                                                                                                                                            ",
"                                                                                                                                                                                            ",
"                                                                                                                                                                                            ",
"                                                                                                                                                                                            ",
"                                                                                                                                                                                            ",
"                                                                                                                                                                                            ",
"                                                                                                                                                                                            ",
"                                                                                                                                                                                            ",
"                                                                                                                                                                                            ",
"                                                                                                                                                                                            ",
"                                                                                                                                                                                            ",
"                                                                                                                                                                                            ",
"                                                                                                                                                                                            ",
"                                                                                                                                                                                            ",
"                                                                                                        .                                                                                   ",
"                                                                                                        .                                                                                   ",
"                                                                      .                               . .                                                                                   ",
"                                                                      .                               . .                                                                                   ",
"                                                                      . .                             . .                                                                                   ",
"                                                                      . .       . . . . . . . . . . . . . .                                                                                 ",
"                                                                      . . . . . + + @ # # # # # $ % & . * . .                     .                                                         ",
"                                                                      . = . . # # # # # # - - - - - . . ; . . . .                 .                                                         ",
"                                                  .                 . . > . . # # # # - - - - - - - . , ; . % ' . . .           . .                                                         ",
"                                                  .               . + . > > . . # % - - - - - - - - . ) ; . . - ' . . .         . .                                                         ",
"                                                  . .           . + # . > > = . - - - - - - % - - - . ) ) . . - - ' ! . .     . . .                                                         ",
"                                                  . . .       . + # ~ . > > > . . - - - - # # - - . . ) ) ; . - - - ' ! . .   . . .                                                         ",
"                                                  . . . .   . + # # . . > > > > . $ - - - - - - - . { ) ) ; . % - - - ' . . . . .                                                           ",
"                                                    . = .   ] # # # . . > ^ ^ > . . - - - - - - - . ) ) ) / . . - - - ! ' . . ) .                                                           ",
"                                                    . > ( . + # # # . . > = _ > > . . # - - - - . . ) ) ) ) : . - - - - ' . . ; .                                                           ",
"                                                    . = > . . < # # . = > > > ^ [ > . } - - - - . | 1 1 ) ) 2 . 3 - - - . . ) 4 .                                                           ",
"                                                    . . > > . . . . . > > > > ^ ^ > . . - - - . . ) ) ) ) ) ) . . - - - . . ) . .                                                           ",
"                                                      . > ^ 5 = . . = > > 6 . > > > > . . . . . $ ) ) ) 7 8 ) ) . 9 - . . ) ) . .                                                           ",
"                                                      . > > > > > 0 . . . . . . a > > ) ) . . ) ) ) ) ) ) ) ) ) b . . . ) ) ) .                                                             ",
"                                                      . . > > . . . . . c d d . . . > ) ) ) ) ) 1 ) ) ) ) ) ) ) ) ; 2 ) ) ; ) .                                                             ",
"                                                      . . . . . . d e d d d d > > . . . ) ) ) ) 1 $ ) ) ) ) ) ) ) ; ; ) ) . . .                                                             ",
"                                                      . . . f d d d e d d d d > > > > . . . @ ) ) ) ) ) ) ) ) ) ) ; g . . . } .                                                             ",
"                                                      . . d d e e d d d . . . . . > > h ) i . . . j ) ) ) ) ) k . . . . ) ) . .                                                             ",
"                                                      . . d d d c . . . . . . l . . . > ) ) ) ) . . . . ) ) . . . 2 ; ) ) ) . .                                                             ",
"                                                      . . . m . . . . = n # # # # # . . . ) ) ) 2 ; ) o . . p ; ) ; ; . . . . .                                                             ",
"                                                    . . # # . . # # # q q # # r . # # # . . . . s ; ) ) @ . ; - . . . . % ' . .                                                             ",
"                                                    . # . . # . # # # # # # # . . . . k # # # . . . @ ) ) ) t . . u - - ) ~ . .                                                             ",
"                                                    . # . q . # # # # # # # . . v v w . . x # # # # . i ) ) . # - - y . . . .                                                               ",
"                                                    . # . . . # # # k # # # . v z A v v B . . } # # # . $ . . % / . . C v v .                                                               ",
"                                                    . # . . q . # # # # # # . C C C C C A v D . . . . . . . . . . | y C C E .                                                               ",
"                                                    . . . . q . # # # # # # . o F . . . . C C y A . v . . . v G y C H . . C .                                                               ",
"                                                      . # . q q # # # q # # H . . I I I . . . . | C * . J . o K . . . L . . .                                                               ",
"                                                      . . M . q k # # # # # # m . N N ; I I I H . . . - - O . . j I I P . . .                                                               ",
"                                                        . # # Q ~ # # # # # # # . R N N N N S I I . T - - - . = S N N U . .                                                                 ",
"                                                        . . # # # # # # # # # # - . R N N N N N . . - - - s - . N N I . ! .                                                                 ",
"                                                          . . # # V # # # # # % - W . . . n . . . - - - - - - . . . . X ' .                                                                 ",
"                                                            . . . . # # # # # - - - - W . . . * - - - - - Y - - - - - ! * .                                                                 ",
"                                                                  . . # # # # - - - - > . B - - - - - - - u Z - - - - ' . .                                                                 ",
"                                                                  . . . + # # # - - # - - - - - - - - - G . m ` - - ' . .                                                                   ",
"                                                                  , v . . . + # # - # - - - - - - - -  .H - - - ! ' . . .                                                                   ",
"                                                                . v , v v . . & + # J - - - - - - - - - - - - ' . . . .                                                                     ",
"                                                                . v v v v . . . . . & + + f - - - - - - ! . . . . .                                                                         ",
"                                                                m v m v . . # . . # . . . . . . & & . . . . . . m .                                                                         ",
"                                                              . m v v m . # W - . # - - - - - - ... +.@.- . . v . .                                                                         ",
"                                                              . m . m . #.# - - . ~ - - - - - - - - - - - . . . m .                                                                         ",
"                                                              . m m G . # # - - . ~ . - - - - - . . - - @.3 . m m .                                                                         ",
"                                                              . . . . . # - - - . g # . . . . . $.- # g # ' . . . .                                                                         ",
"                                                              . . . . # # - - - . k # t # $ - ' - - - - ' ' . . . . .                                                                       ",
"                                                            . . .   . . . - - - . # - - - - - - - - - ... ' . . . . .                                                                       ",
"                                                            . .     . # . . . . . . - - - - - - - - - - . 2 . V - . .                                                                       ",
"                                                                    . # # # # . # . . - - - - %.. . . . &.- . . . .                                                                         ",
"                                                                    . # # # - - . . . . . . . . . *.*.. . . H . . .                                                                         ",
"                                                                    . . # # - . y . o . . . . . . *.*.. . =.=.. .                                                                           ",
"                                                                      . . | . - . *.V V V V V V . 9 . . . . . .                                                                             ",
"                                                                          . . . . . . . . . . . . . . e . . .                                                                               ",
"                                                                              . *.. . V . .   . *.. V -.. . .                                                                               ",
"                                                                              . . . . . . .   . . . V . . . .                                                                               ",
"                                                                              . o o v v v .   . . . . . v v .                                                                               ",
"                                                                            . . . . . . . . .   . . . . . . .                                                                               ",
"                                                                                                                                                                                            ",
"                                                                                                                                                                                            ",
"                                                                                                                                                                                            ",
"                                                                                                                                                                                            ",
"                                                                                                                                                                                            ",
"                                                                                                                                                                                            ",
"                                                                                                                                                                                            ",
"                                                                                                                                                                                            ",
"                                                                                                                                                                                            ",
"                                                                                                                                                                                            ",
"                                                                                                                                                                                            ",
"                                                                                                                                                                                            ",
"                                                                                                                                                                                            ",
"                                                                                                                                                                                            ",
"                                                                                                                                                                                            ",
"                                                                                                                                                                                            "};
