/* XPM */
static const char *xpm_wQ[] = {
"94 94 112 2",
"  	c None",
". 	c #000000",
"+ 	c #868686",
"@ 	c #A8A8A8",
"# 	c #3C3C3C",
"$ 	c #6A6A6A",
"% 	c #A1A1A1",
"& 	c #E3E3E3",
"* 	c #B7B7B7",
"= 	c #303030",
"- 	c #6D6D6D",
"; 	c #020202",
"> 	c #FFFFFF",
", 	c #FBFBFB",
"' 	c #F4F4F4",
") 	c #E6E6E6",
"! 	c #8A8A8A",
"~ 	c #A5A5A5",
"{ 	c #F8F8F8",
"] 	c #DFDFDF",
"^ 	c #6E6E6E",
"/ 	c #FCFCFC",
"( 	c #CACACA",
"_ 	c #D6D6D6",
": 	c #D7D7D7",
"< 	c #B5B5B5",
"[ 	c #151515",
"} 	c #080808",
"| 	c #D4D4D4",
"1 	c #494949",
"2 	c #1E1E1E",
"3 	c #747474",
"4 	c #333333",
"5 	c #C3C3C3",
"6 	c #808080",
"7 	c #111111",
"8 	c #5F5F5F",
"9 	c #626262",
"0 	c #8D8D8D",
"a 	c #2D2D2D",
"b 	c #939393",
"c 	c #4E4E4E",
"d 	c #050505",
"e 	c #525252",
"f 	c #1B1B1B",
"g 	c #686868",
"h 	c #545454",
"i 	c #242424",
"j 	c #424242",
"k 	c #5C5C5C",
"l 	c #797979",
"m 	c #3A3A3A",
"n 	c #5B5B5B",
"o 	c #787878",
"p 	c #878787",
"q 	c #585858",
"r 	c #212121",
"s 	c #171717",
"t 	c #464646",
"u 	c #9E9E9E",
"v 	c #9C9C9C",
"w 	c #202020",
"x 	c #929292",
"y 	c #818181",
"z 	c #343434",
"A 	c #A7A7A7",
"B 	c #F7F7F7",
"C 	c #F1F1F1",
"D 	c #C7C7C7",
"E 	c #0D0D0D",
"F 	c #717171",
"G 	c #A2A2A2",
"H 	c #D1D1D1",
"I 	c #EEEEEE",
"J 	c #EBEBEB",
"K 	c #CDCDCD",
"L 	c #484848",
"M 	c #BDBDBD",
"N 	c #646464",
"O 	c #909090",
"P 	c #BABABA",
"Q 	c #CFCFCF",
"R 	c #6F6F6F",
"S 	c #4F4F4F",
"T 	c #AFAFAF",
"U 	c #ACACAC",
"V 	c #7D7D7D",
"W 	c #232323",
"X 	c #656565",
"Y 	c #DCDCDC",
"Z 	c #555555",
"` 	c #313131",
" .	c #BBBBBB",
"..	c #777777",
"+.	c #2C2C2C",
"@.	c #292929",
"#.	c #0C0C0C",
"$.	c #121212",
"%.	c #454545",
"&.	c #0F0F0F",
"*.	c #141414",
"=.	c #010101",
"-.	c #B8B8B8",
";.	c #ABABAB",
">.	c #8F8F8F",
",.	c #9B9B9B",
"'.	c #A4A4A4",
").	c #AEAEAE",
"!.	c #2A2A2A",
"~.	c #838383",
"{.	c #969696",
"].	c #090909",
"                                                                                                                                                                                            ",
"                                                                                                                                                                                            ",
"                                                                                                                                                                                            ",
"                                                                                                                                                                                            ",
"                                                                                                                                                                                            ",
"                                                                                                                                                                                            ",
"                                                                                                                                                                                            ",
"                                                                                                                                                                                            ",
"                                                                                                                                                                                            ",
"                                                          . . . . . . .                                                                                                                     ",
"                                                        . . . . . . . . . . .                                                                                                               ",
"                                                        . . . + @ @ # . . . .                                                                                                               ",
"                                                          . . $ % & & & & . . . . . . .                                                                                                     ",
"                                                            . . % % & & * . . . . . . . . . . . . .                                                                                         ",
"                                                          . . . % % & & & = = - - = ; . . . . . . . . . .                                                                                   ",
"                                                          . . % % & & & & & & & & > , & & & & & & # . . . . .                                                                               ",
"                                                          . % % % & & & & & & & & & & & > > ' & & & & & . . . . .                                                                           ",
"                                                          . . % % & & & & & & & & & & & ) > > > & . . & > > ! . . .                                                                         ",
"                                                          . . . % % ~ & & & & & % % & & > > > & & . . - { > > & . . .                                                                       ",
"                                                            . . . % % % % & & & & ] % % & & & > ^ . . . / > , & & . .                                                                       ",
"                                                              . . . % % % % & & & & ( % % & & & . . . . & & ) > & _ .                                                                       ",
"                                                                . . . % % % : & & & & < % % & & . . [ . @ & & & & . .                                                                       ",
"                                                                  . . } % % | & & & & & % % % & . . > . . & & & . . .                                                                       ",
"                                                                    . . % % & & : % % % % % % < . . > . . . & & . . . . .                                                                   ",
"                                                                  . . . % & & % % % 1 2 3 % % 4 . . ) . . . & & & . . . . .                                                                 ",
"                                                                . . . % ~ & % % . . . . . . . . . * > . . & 5 | & & & & . .                                                                 ",
"                                                              . . . % % & % % . . . . . . . . . 6 @ & > . . . . . 7 & & . .                                                                 ",
"                                                            . . . % % % ] % . . . 8 8 8 9 0 . . % & & & . . . . . . ; & . .                                                                 ",
"                                                            . . % % % % % . . . 8 8 8 0 0 0 . . % ~ & & . . & & & . . & . .                                                                 ",
"                                                          . . % % % % % % . . 8 8 8 0 0 0 0 a . . 8 ! . . . 0 b & ; . c . .                                                                 ",
"                                                          . . % % % % % . . 8 8 8 0 0 0 0 0 0 . . . . . . 0 0 0 0 & . . .                                                                   ",
"                                                          . . . % % % 1 . . 8 8 8 0 0 0 0 0 0 0 d . . . 0 0 0 0 0 & . . .                                                                   ",
"                                                          . . . % % % . . 8 8 8 0 0 0 0 0 0 0 0 0 0 0 0 0 0 0 0 0 | & . .                                                                   ",
"                                                        . . . . % % % . . 8 . 8 0 0 0 0 0 0 0 0 0 0 0 0 0 0 0 0 0 0 & . .                                                                   ",
"                                                        . . % % % % % . . e f g 0 0 0 0 0 0 0 0 0 0 0 0 0 0 0 0 0 0 & . .                                                                   ",
"                                                        . % % % % % 1 . 8 . 8 0 0 0 0 0 0 0 0 0 0 0 0 0 0 0 0 0 0 0 & . .                                                                   ",
"                                                        . . % % % % . . 8 . 8 0 0 0 0 0 0 0 0 0 0 0 0 0 0 0 0 0 0 0 & . .                                                                   ",
"                                                        . . h % % % . . 8 8 8 0 0 0 0 0 0 0 0 0 0 0 0 0 0 0 0 0 0 0 & . .                                                                   ",
"                                                          . . . % % . . 8 . 8 0 0 . . . . . . . 0 0 0 0 0 0 0 0 0 0 & . .                                                                   ",
"                                                            . . . . . . 8 8 8 0 . . . . . . . . . 0 0 0 0 0 . . . . . . .                                                                   ",
"                                                              . . . . . 8 8 8 0 . . i j k g . . . 0 0 0 0 . . . . . . . .                                                                   ",
"                                                                  . . . 8 8 8 l . . m n o p + h . 7 0 0 0 . . q - . . . .                                                                   ",
"                                                                . . . . r 8 8 . . s t g ! u v p . . 0 0 0 . w o x y . . .                                                                   ",
"                                                                . . % . . 8 8 . . z 3 A : B C u . . 0 0 g . c v _ D . . .                                                                   ",
"                                                                . . . . . 8 8 E . 4 F G H I J K . . 0 0 l . L M & D . .                                                                     ",
"                                                                  . . . . 8 8 8 . . N O P Q K . . R 0 0 0 . . ! A . . .                                                                     ",
"                                                                      . . . . 8 . . S o u T U . . 0 0 0 0 . . # = . . .                                                                     ",
"                                                                          . . . . . . . . . . . e 0 0 0 0 0 . . . . .                                                                       ",
"                                                                            . . . . . . . . . . 0 0 0 0 0 0 d . . . .                                                                       ",
"                                                                                  . . . V 0 + 8 0 0 0 0 0 0 W . .                                                                           ",
"                                                                                    . . 8 0 8 8 X 0 0 8 V 0 . .                                                                             ",
"                                                                                  . . . 8 8 . q 8 0 8 . . 0 . .                                                                             ",
"                                                                                . . . . . . . . 8 g . . . . .                                                                               ",
"                                                                              . . Y g . . . . . . . . . . . .                                                                               ",
"                                                                            . . K & U . . . Z d . . . . ! . .                                                                               ",
"                                                                          . . [ & & . . ` z S Z . . . . . . .                                                                               ",
"                                                                          . .  .& & . . z z c Z Z . . ... . . . . .                                                                         ",
"                                                                        . . . . D +.. . z Z c Z Z . . # . . . . . . .                                                                       ",
"                                                                      . . 1 a . . . . z z Z Z Z . . . d . . L . 1 @..                                                                       ",
"                                                                    . . Z Z Z . . . #.z . Z Z . . . . . . #.. . . . . .                                                                     ",
"                                                                    . . Z Z Z e . . z . . . . . . . $.. . . . . . . .                                                                       ",
"                                                                    . %.h &.. j . . ` . . . . . . . # . . . s . .                                                                           ",
"                                                                    . *.. . . . . =.. . -.. . _ . . Z . . . . . .                                                                           ",
"                                                                    . . . . . . . a . . ;.@ q D . . Z .   . . .                                                                             ",
"                                                                    . . . .   . . . . >.,.'.).. . . !..                                                                                     ",
"                                                                            . . z . . ~.. {.. . . . . .                                                                                     ",
"                                                                            . . . . ].. . . . . . . . .                                                                                     ",
"                                                                          . . a . . . . . . .   . . . .                                                                                     ",
"                                                                          . . i . . .   . .     . . .                                                                                       ",
"                                                                        . . z . . .     .         . .                                                                                       ",
"                                                                      . . . . . .                 .                                                                                         ",
"                                                                      . . . .                                                                                                               ",
"                                                                      . . .                                                                                                                 ",
"                                                                                                                                                                                            ",
"                                                                                                                                                                                            ",
"                                                                                                                                                                                            ",
"                                                                                                                                                                                            ",
"                                                                                                                                                                                            ",
"                                                                                                                                                                                            ",
"                                                                                                                                                                                            ",
"                                                                                                                                                                                            ",
"                                                                                                                                                                                            ",
"                                                                                                                                                                                            ",
"                                                                                                                                                                                            ",
"                                                                                                                                                                                            ",
"                                                                                                                                                                                            ",
"                                                                                                                                                                                            ",
"                                                                                                                                                                                            ",
"                                                                                                                                                                                            ",
"                                                                                                                                                                                            ",
"                                                                                                                                                                                            ",
"                                                                                                                                                                                            ",
"                                                                                                                                                                                            ",
"                                                                                                                                                                                            "};
