/* XPM */
static const char *xpm_wR[] = {
"94 94 117 2",
"  	g None",
". 	g #5A5A5A",
"+ 	g #5B5B5B",
"@ 	g #747474",
"# 	g #6B6B6B",
"$ 	g #202020",
"% 	g #565656",
"& 	g #252525",
"* 	g #626262",
"= 	g #5F5F5F",
"- 	g #666666",
"; 	g #686868",
"> 	g #505050",
", 	g #737373",
"' 	g #656565",
") 	g #3B3B3B",
"! 	g #323232",
"~ 	g #383838",
"{ 	g #727272",
"] 	g #6D6D6D",
"^ 	g #5D5D5D",
"/ 	g #898989",
"( 	g #858585",
"_ 	g #7C7C7C",
": 	g #4A4A4A",
"< 	g #232323",
"[ 	g #353535",
"} 	g #282828",
"| 	g #5E5E5E",
"1 	g #7E7E7E",
"2 	g #B1B1B1",
"3 	g #707070",
"4 	g #525252",
"5 	g #5C5C5C",
"6 	g #6E6E6E",
"7 	g #444444",
"8 	g #4D4D4D",
"9 	g #303030",
"0 	g #515151",
"a 	g #757575",
"b 	g #838383",
"c 	g #959595",
"d 	g #6A6A6A",
"e 	g #343434",
"f 	g #6F6F6F",
"g 	g #9A9A9A",
"h 	g #606060",
"i 	g #8D8D8D",
"j 	g #8C8C8C",
"k 	g #878787",
"l 	g #585858",
"m 	g #848484",
"n 	g #8B8B8B",
"o 	g #575757",
"p 	g #616161",
"q 	g #555555",
"r 	g #4C4C4C",
"s 	g #212121",
"t 	g #808080",
"u 	g #8F8F8F",
"v 	g #A2A2A2",
"w 	g #414141",
"x 	g #A3A3A3",
"y 	g #B0B0B0",
"z 	g #595959",
"A 	g #484848",
"B 	g #2F2F2F",
"C 	g #888888",
"D 	g #272727",
"E 	g #767676",
"F 	g #3C3C3C",
"G 	g #7F7F7F",
"H 	g #ADADAD",
"I 	g #9C9C9C",
"J 	g #292929",
"K 	g #242424",
"L 	g #3A3A3A",
"M 	g #4B4B4B",
"N 	g #2C2C2C",
"O 	g #7A7A7A",
"P 	g #1D1D1D",
"Q 	g #3D3D3D",
"R 	g #828282",
"S 	g #868686",
"T 	g #404040",
"U 	g #B9B9B9",
"V 	g #3F3F3F",
"W 	g #696969",
"X 	g #1E1E1E",
"Y 	g #D7D7D7",
"Z 	g #D2D2D2",
"` 	g #7B7B7B",
" .	g #1A1A1A",
"..	g #ABABAB",
"+.	g #BABABA",
"@.	g #454545",
"#.	g #C5C5C5",
"$.	g #464646",
"%.	g #4E4E4E",
"&.	g #787878",
"*.	g #4F4F4F",
"=.	g #A1A1A1",
"-.	g #777777",
";.	g #393939",
">.	g #1F1F1F",
",.	g #222222",
"'.	g #373737",
").	g #333333",
"!.	g #989898",
"~.	g #545454",
"{.	g #939393",
"].	g #909090",
"^.	g #8A8A8A",
"/.	g #797979",
"(.	g #AAAAAA",
"_.	g #262626",
":.	g #494949",
"                                                                                                                                                                                            ",
"                                                                                                                                                                                            ",
"                                                                                                                                                                                            ",
"                                                                                                                                                                                            ",
"                                                                                                                                                                                            ",
"                                                                                                                                                                                            ",
"                                                                                                                                                                                            ",
"                                                                                                                                                                                            ",
"                                                                                                                                                                                            ",
"                                                                                                                                                                                            ",
"                                                                                                                                                                                            ",
"                                                                                                                                                                                            ",
"                                                                                                                                                                                            ",
"                                                                                                                                                                                            ",
"                                                                                                                                                                                            ",
"                                                                                                                                                                                            ",
"                                                                                                                                                                                            ",
"                                                                                                                                                                                            ",
"                                                                                                                                                                                            ",
"                                                                                                                                                                                            ",
"                                                                  . +                                                                                                                       ",
"                                                                  . @     . #             $ $ $                                                                                             ",
"                                                                  . @   . @           $ $ $ % & $ $                                                                                         ",
"                                                        .     @   * @ = . - $ $   $ $ $ @ ; ; > > $ $                                                                                       ",
"                                                          @   ,   @ ' @ $ $ $ $ $ $ $ @ ) ; ; > = ; $ $ $   $ $                                                                             ",
"                                                          . @ .   . ! $ $ , @ . @ . ; ~ ~ ; ; ; ; ; ; $ $ $ $ $ $                                                                           ",
"                                                            + { $ $ $ $ { ] ; ; @ ; ; ~ ~ ~ > ; ; ; ; ; ; ; ; ; $ $                                                                         ",
"                                                              . $ ; . . ; > ; ^ @ / / ( ~ ~ ; ; ; ; ; ; ; ; ; ^ $ $                                                                         ",
"                                                              $ $ ; @ . ; ; ; . + _ { / ~ : ; ; ; < ~ ; ; ; ; [ $ $ $                                                                       ",
"                                                              $ } ; @ . ; ; ; ; | ~ ~ ; ~ ; @ ; ; 1 ~ ~ ; ; ; ~ $ 2 $                                                                       ",
"                                                            $ $ ^ . ; . ; ; 3 ; ~ ~ 4 ~ 5 ; @ ; ; 6 & ~ ~ ~ 7 ~ $ 2 $ $                                                                     ",
"                                                          $ $ ; { > ; . ; ; ; ; ~ ; ; * ; 8 ; ; ; / / $ 9 ~ ~ [ $ / 2 $ $                                                                   ",
"                                                        $ $ ; ; 3 ; # . ; ; ; ; 0 ; @ } a / ; ; / / / / b $ $ / / / c - $                                                                   ",
"                                                        $ ; ; d * . . ; ; e & ; ; @ ) f 2 g / / / / / / / / / / / / / 2 $ $                                                                 ",
"                                                      $ $ ; ; ; @ . 5 ; h ) $ ; ; @ ~ * i / / / / / ; / / / / / / / / j 2 $ $                                                               ",
"                                                      $ $ % ; ; @ . ' ; $ / 3 * ; , ^ $ / / / / / / k / / / / / / / / / 2 2 $ $                                                             ",
"                                                      $ . $ ; ; 6 l ' ; - m ; ~ ; ; . ~ / / ; ; / / / / / / / / / / 2 2 2 2 2 $                                                             ",
"                                                    $ $ . $ ; n ; ; ; ; ; ; ~ ~ ; - . ~ $ / ; ( / / / / @ 2 / / / / / / 2 2 2 $ $                                                           ",
"                                                    $ > . $ ; ; ; o ; ; ; > > ; ; @ ; p $ / / / / / / / / / / / / / / / 2 2 2 $                                                             ",
"                                                    $ ~ = @ q + ; r $ s ; > > ; ; ; ; ; ~ $ / / / / / / / / / / / ; / 2 2 2 t $                                                             ",
"                                                    $ ~ - ; @ * > ; ~ $ ; ; ; ; s $ 5 / / / / / u / / / / / / v / / 2 2 2 2 $ $                                                             ",
"                                                    $ w ~ ; > - . ; ; ~ $ ; ; t $ x $ $ $ / / / y / / / / / 2 / 2 / 2 2 2 2 $                                                               ",
"                                                    $ $ $ ~ > p z ; ; ~ $ ; ; $ s ; k c $ $ e / / / / / / / / / / / $ $ $ $ $                                                               ",
"                                                      $ $ ~ ~ @ % ; ; A $ ; ; $ $ B ; ; ; C $ $ D / / / / E _ $ $ $ $ 2 2 $ $                                                               ",
"                                                      $ $ ~ F @ ; ; / G * ; ; > w $ $ $ & ; 3 H $ $ $ / & $ $ e I ; ; ; J $ $                                                               ",
"                                                      $ ! ~ = @ ; ; ; K ; ; ; > L > ; - $ $ $ ; ] 2 $ M N $ O ; ; $ $ $ $ } P                                                               ",
"                                                      $ w ~ ~ . ; > / / $ ; ; Q $ $ $ [ ; - $ $ $ 8 $ ) R $ $ $ $ $ R S S $ P                                                               ",
"                                                      $ $ ; ~ w ; ; ] / } T ; Q $ U L $ $ $ l ; K $ $ V / ) $ l S t $ $ $ $ $                                                               ",
"                                                      $ $ ; ; ; ; ; . ; / $ ; > $ U U U U * $ $ $ ) ; W / ; $ $ $ $ N U $ X                                                                 ",
"                                                        $ $ $ $ $ - . ; ~ * ; N $ Y Z U U U U U & $ $ / / S $ ` U U U U $  .                                                                ",
"                                                                $ @ ~ ~ M M ; > $ k Y Y Y Y U U U $ $ / / E $ ..U +.Y Y $  .                                                                ",
"                                                                $ @ ; ~ ; ; # - @.$ #.Y Y Y Y Y ) $ C / / / $.$ Y Y Y $                                                                     ",
"                                                                $ @ ; a ; ; @ . %.P $ $ Y Y Y $ $ - / / / / &.$ $ $ $ $ $                                                                   ",
"                                                                $ , ; h 0 ; @ | @.N 9 < $ $ $ $ * ; ; / / / / ] o $ m $ $                                                                   ",
"                                                                $ . ; - *.; @ $ ; F ~ ; ; ; * / / b / / / / / $ $ $ 2 $ $                                                                   ",
"                                                              $ $ . ; ~ ~ L . = K / ; ; ; { $ $ $ / / / / / / $ p $ $ $ $                                                                   ",
"                                                                $ $ ' ; ~ ~ . ; ; $ $ $ $ $ $ z $ $ $ $ $ $ $ $ $ $ $ $ $                                                                   ",
"                                                                  $ $ $ $ q ; = W ; ; ; > $ $ $ $ $ | =.g t a / m -.$ $ $                                                                   ",
"                                                                      $ $ $ $ ; ; > 4 ; ; $ , ; ; ; - ;.$ $ $ $ $ $ $ $                                                                     ",
"                                                                        5 $ $ - ; ; ; ~ ~ $ $ $ $ $ $ $ $ s >.$ $ $ $ $                                                                     ",
"                                                                        $ $ $ $ $ $ $ $ $ $ $ $ ,.$ $ $ $ $ $ $                                                                             ",
"                                                                      $ [ @ . ; $ K k & $ $ $ $ $ $ h ..2 $ '.$                                                                             ",
"                                                                      $ @ ; ; ; $ )./ / / / / / ; ; / c 2 $ / $                                                                             ",
"                                                                    $ $ @ ; ; / K $ - / / / / / / / / / 2 $ !.$ $                                                                           ",
"                                                                    $ > 3 ; / ; 2 $ ~ ~ ; / / / / / / 2 2 $ $ ] $                                                                           ",
"                                                                    $ . | ` / / =.$ @ ] ; / / / / / ..2 2 2 ..$ $ $                                                                         ",
"                                                                @ $ 9 ~.; / / 2 % $ / ; # / / / {./ c 2 2 2 2 $ $ $                                                                         ",
"                                                                  $ $ - ; s / 2 $ $ ; ; / / / / / / / ].2 2 2 $ $ $                                                                         ",
"                                                                  >.$ $ $ $ $ $ $ $ ; / / / / / / / ^.2 n 2 $ $ ) $ $                                                                       ",
"                                                                  $ '.' ; /.k ) $ $ ; / m / / / / / / / / (.$ _.; $ $                                                                       ",
"                                                                  $ 0 - ; / 2 2 2 $ / / / / / / / / / / / $ $ $ $ $ $                                                                       ",
"                                                                    $ > ; ; / 2 $ $ ; / / / / f / / / / 2 $ R / / $                                                                         ",
"                                                                    $ $ :.; ; S } $ ~ ; / / / / / / ; / 2 ,.$ $ $ $                                                                         ",
"                                                                        $ $ $ $ $ '.J } S / $ K / / 2 2 (.$ $                                                                               ",
"                                                                        $   $ >.$ $ $ $ $ $ $ $ $ $ $ $ $ & $                                                                               ",
"                                                                            $ > ; ; / / / A $ $ > ; ; ; / (.$                                                                               ",
"                                                                            $ > > ; ; / ; ; $ $ > ; ; ; / / / $                                                                             ",
"                                                                            $ $ $ $ $ $ $ $ $ $ $ $ $ $ $ $ $ $                                                                             ",
"                                                                                $               $ $                                                                                         ",
"                                                                                                                                                                                            ",
"                                                                                                                                                                                            ",
"                                                                                                                                                                                            ",
"                                                                                                                                                                                            ",
"                                                                                                                                                                                            ",
"                                                                                                                                                                                            ",
"                                                                                                                                                                                            ",
"                                                                                                                                                                                            ",
"                                                                                                                                                                                            ",
"                                                                                                                                                                                            ",
"                                                                                                                                                                                            ",
"                                                                                                                                                                                            ",
"                                                                                                                                                                                            ",
"                                                                                                                                                                                            ",
"                                                                                                                                                                                            "};
