/* XPM */
static char *_1984_b5f760cd54a82dcd1764529955e6dd2a76e34a8f06c548149aeb2ee0a1165202[] = {
/* columns rows colors chars-per-pixel */
"9 9 32 1 ",
"  c #2A2825",
". c #302D2B",
"X c #32312E",
"o c #47413D",
"O c #4C4641",
"+ c #4C4945",
"@ c #504B46",
"# c #524C47",
"$ c #59534F",
"% c #5B5651",
"& c #5F5B58",
"* c #656361",
"= c #666260",
"- c #6F6D6B",
"; c #73716F",
": c #8B8987",
"> c #8B8988",
", c #8D8C8B",
"< c #979593",
"1 c #999796",
"2 c #A09E9D",
"3 c #A8A7A6",
"4 c #ADACAB",
"5 c #AFAFAE",
"6 c #B0AFAE",
"7 c #C8C7C6",
"8 c #CBCAC9",
"9 c #DDDDDD",
"0 c #ECECEC",
"q c gray93",
"w c gray99",
"e c white",
/* pixels */
"eeeeeeeee",
"eeew>weee",
"eee8+7eee",
"eeq&@,0ee",
"ee2$*=1ee",
"ee<%##:ee",
"ee5%Oo3ee",
"ee;X. -ee",
"ee96449ee"
};
