/* XPM */
static char *_1759_8b7a002fd9a5c649c852d63f2b719fd73f7dc6ce6b6b266d6b359efe9b5cfedf[] = {
/* columns rows colors chars-per-pixel */
"9 9 39 1 ",
"  c #2A2825",
". c #302D2B",
"X c #32312E",
"o c #423D3A",
"O c #433F3A",
"+ c #44403C",
"@ c #45413C",
"# c #49443F",
"$ c #494441",
"% c #4C4641",
"& c #4C4742",
"* c #4E4844",
"= c #4E4944",
"- c #514B46",
"; c #53504C",
": c #63605E",
"> c #64605E",
", c #656261",
"< c #696766",
"1 c #6B6967",
"2 c #807E7D",
"3 c #81807E",
"4 c #8B8A89",
"5 c #A5A3A2",
"6 c #AAAAA9",
"7 c #ACABAA",
"8 c #AFAEAD",
"9 c #B4B3B2",
"0 c #B9B9B8",
"q c gray73",
"w c #C5C4C4",
"e c #CDCCCC",
"r c #D0D0CF",
"t c #D2D2D2",
"y c #DCDBDB",
"u c #F1F1F1",
"i c #FBFBFB",
"p c #FDFDFD",
"a c white",
/* pixels */
"aaaaaaaaa",
"aaaiw2qaa",
"ae>;o$1aa",
"a0+%=*3aa",
"apt4&#6aa",
"aau:-@raa",
"aa5%%O9aa",
"aa<X. ,aa",
"aay877yaa"
};
