/* XPM */
static char *_6463_aa0e4bdc0ce0ba34b9d649ba048f93c9f8f57dc4bb7674a47d4d025fe05bec8e[] = {
/* columns rows colors chars-per-pixel */
"9 9 26 1 ",
"  c #3A3735",
". c #423E3C",
"X c #4B4845",
"o c #4E4844",
"O c #4C4846",
"+ c #514B46",
"@ c #605D5A",
"# c #656362",
"$ c #686766",
"% c #6B6866",
"& c #74716E",
"* c #7B7875",
"= c #7B7979",
"- c #848281",
"; c #878583",
": c #979695",
"> c #9E9D9C",
", c #ACAAAA",
"< c #AFADAD",
"1 c #AFAEAD",
"2 c #E1E1E1",
"3 c #E2E2E2",
"4 c #E4E4E4",
"5 c gray93",
"6 c #EEEEEE",
"7 c white",
/* pixels */
"777777777",
"777516777",
"777;+%777",
"777*+%777",
"777$X#777",
"777>o:777",
"772&+@377",
"77-O. =77",
"774<,,477"
};
