/* XPM */
static char *_797_7103149ef3c4b4bd9c2eb24a340a2f9c5ae306f86032e6dcaa810244e4697baf[] = {
/* columns rows colors chars-per-pixel */
"9 9 50 1 ",
"  c #2C2B28",
". c #31302D",
"X c #353331",
"o c #433F3A",
"O c #46413D",
"+ c #47413D",
"@ c #494745",
"# c #4E4844",
"$ c #514B46",
"% c #585553",
"& c #5D5752",
"* c #5C5B5A",
"= c #615E5C",
"- c #62615F",
"; c #636260",
": c #646361",
"> c #646362",
", c #686562",
"< c #6A6562",
"1 c #706D6A",
"2 c #747372",
"3 c #7E7C7C",
"4 c #817F7D",
"5 c #827F7E",
"6 c #878686",
"7 c #888786",
"8 c #8D8A89",
"9 c #939392",
"0 c #979796",
"q c #989897",
"w c #A09F9E",
"e c #A1A09F",
"r c #A2A1A0",
"t c #A4A3A2",
"y c #A6A6A5",
"u c #AAA9A8",
"i c #ACABAA",
"p c #AFAEAD",
"a c #CCCCCB",
"s c #D0CFCF",
"d c #D6D6D5",
"f c #E4E4E4",
"g c #EAEAEA",
"h c gray92",
"j c #ECECEC",
"k c gray93",
"l c gray96",
"z c #FDFDFD",
"x c #FEFEFE",
"c c white",
/* pixels */
"ccccccccc",
"jk7x2z6hk",
"sq9g3g90a",
"c>yw-rt>c",
"c8:,@1;5c",
"cu<&$$#ec",
"cl=O+o%lc",
"cc4X. *cc",
"ccfpiidcc"
};
