/* XPM */
static char *_105_4c9ce716792ae22ed69f012fb4ae1c47f5a08d92e084b36ba60017fcf15a0363[] = {
/* columns rows colors chars-per-pixel */
"9 9 36 1 ",
"  c #2B2927",
". c #302E2D",
"X c #33302C",
"o c #33312F",
"O c #3C3937",
"+ c #413E3C",
"@ c #46413D",
"# c #47413D",
"$ c #48423F",
"% c #49433F",
"& c #4A4643",
"* c #4E4A48",
"= c #504A45",
"- c #514B46",
"; c #504C4A",
": c #6A6967",
"> c #6F6C69",
", c #6F6C6B",
"< c #746F6C",
"1 c #83807F",
"2 c #888585",
"3 c #8C8A8A",
"4 c #ADACAB",
"5 c #ADACAC",
"6 c #AEADAC",
"7 c #AFAEAD",
"8 c #B8B7B7",
"9 c #BAB9B9",
"0 c #BCBBBB",
"q c #BDBCBC",
"w c #C3C2C2",
"e c #DDDDDD",
"r c gray87",
"t c #FDFDFD",
"y c #FEFEFE",
"u c white",
/* pixels */
"uuuuuuuuu",
"uu903q8uu",
"uu2*$;1uu",
"uuw+XOwuu",
"uuy>=&tuu",
"uue<-%ruu",
"uu6>#@5uu",
"uu,o. :uu",
"uue744euu"
};
