/* XPM */
static char *_8689_e3b206b7c53d1b46aabf74949be23e9d0f115283c43ba656b44cacf1d6df3d94[] = {
/* columns rows colors chars-per-pixel */
"9 9 33 1 ",
"  c #766C57",
". c #7F745E",
"X c #827863",
"o c #9D9789",
"O c #A39D8F",
"+ c #AEA38C",
"@ c #B3A280",
"# c #B0ABA1",
"$ c #B9B2A4",
"% c #CDB587",
"& c #C3B391",
"* c #C6B89A",
"= c #D6BF90",
"- c #C1B8A7",
"; c #C4BEB1",
": c #DAC18F",
"> c #D8C195",
", c #E7CD97",
"< c #E7CE98",
"1 c #E8D09D",
"2 c #E9D09E",
"3 c #C5C1BA",
"4 c #CBC6BA",
"5 c #CAC6BE",
"6 c #CDC8BF",
"7 c #D0CABB",
"8 c #D0CBC3",
"9 c #DAD8D3",
"0 c #DBDAD5",
"q c #E7E5E3",
"w c #F1F0EF",
"e c gray99",
"r c white",
/* pixels */
"rrrrrrrrr",
"rrre$errr",
"rrr0@9rrr",
"rrw&=#wrr",
"rr41+*;rr",
"rr72,<-rr",
"rr5>:%3rr",
"rrOX. orr",
"rrq866qrr"
};
