/* XPM */
static char *_435_d2d9a84b6039920d9595858ed690869d88e1aa1da0c437861198e50d6cf7f2dc[] = {
/* columns rows colors chars-per-pixel */
"9 9 38 1 ",
"  c #6B624F",
". c #716855",
"X c #756D5A",
"o c #978A6F",
"O c #9F9683",
"+ c #999285",
"@ c #9E988B",
"# c #A59C8A",
"$ c #B6A788",
"% c #ACA79C",
"& c #B3A992",
"* c #B0ABA1",
"= c #BDB5A4",
"- c #D3BB8B",
"; c #D1BB8D",
": c #D2BC8C",
"> c #C1B39B",
", c #C4B8A4",
"< c #C4BCAD",
"1 c #C1BCB1",
"2 c #C4BFB4",
"3 c #C0BEB8",
"4 c #DAC18F",
"5 c #E0C792",
"6 c #E6CC96",
"7 c #E7CD97",
"8 c #E7CE9A",
"9 c #E8CE99",
"0 c #CDC8BF",
"q c #E3D7BC",
"w c #CAC7C0",
"e c #CCC9C2",
"r c #D0CBC3",
"t c #E7E5E3",
"y c #F6F6F5",
"u c #F8F8F8",
"i c #FEFEFE",
"p c white",
/* pixels */
"pppu3uppp",
"ppp*;%ppp",
"ppi#5Oipp",
"py<>o$=yp",
"peq877:wp",
"pp,976&pp",
"pp244-1pp",
"pp@X. +pp",
"pptr00tpp"
};
