/* XPM */
static char *_1368_58ae68da870e15730c6e6604dffe06c100e163e5314bea4249d4ed765667d9ae[] = {
/* columns rows colors chars-per-pixel */
"9 9 38 1 ",
"  c #756C56",
". c #7F745E",
"X c #827863",
"o c #B4A27C",
"O c #959082",
"+ c #9C9487",
"@ c #ABA18D",
"# c #ACA499",
"$ c #BEB095",
"% c #AFAAA0",
"& c #BBB2A0",
"* c #C0AB81",
"= c #C6B183",
"- c #CDB687",
"; c #C2B08B",
": c #CCB78B",
"> c #D6BD8C",
", c #C2B294",
"< c #DAC18F",
"1 c #DBC28F",
"2 c #DCC490",
"3 c #E2C893",
"4 c #E7CD97",
"5 c #C5C1B8",
"6 c #C8C4BC",
"7 c #CDC8BE",
"8 c #C9C6C1",
"9 c #CAC8C3",
"0 c #CBC9C6",
"q c #D0CBC2",
"w c #D4D2CE",
"e c #DDDBD6",
"r c #DBDAD9",
"t c #E7E5E3",
"y c #F4F3F3",
"u c #FBFBFB",
"i c #FDFDFD",
"p c white",
/* pixels */
"ppppppppp",
"pppuw#0pp",
"pe$;*:@pp",
"p9o133&pp",
"pir%2>6pp",
"ppy,4-rpp",
"pp5<<=8pp",
"pp+X. Opp",
"pptq77tpp"
};
