/* XPM */
static char *_255_0ae4dc48377df003ab19e2ef230710b2d1742894da89f26ee856da2cf37417fe[] = {
/* columns rows colors chars-per-pixel */
"9 9 28 1 ",
"  c #95876A",
". c #A29374",
"X c #A8987A",
"o c #968E82",
"O c #9B9485",
"+ c #AA9D81",
"@ c #AAA396",
"# c #B4AA91",
"$ c #B6AA92",
"% c #B3AC9F",
"& c #C3B291",
"* c #C4BAA4",
"= c #C0B9AE",
"- c #E2C893",
"; c #E7CD97",
": c #E7CE98",
"> c #D4C7AE",
", c #C8C2B6",
"< c #CAC6BE",
"1 c #CDC8BE",
"2 c #D3CBBC",
"3 c #D0CCC2",
"4 c #E9E8E6",
"5 c #EAE9E7",
"6 c #EBEAE8",
"7 c #F1F0EF",
"8 c #F2F1F0",
"9 c white",
/* pixels */
"999999999",
"9997<8999",
"9992:$999",
"999*;#999",
"999OXo999",
"999,-=999",
"994>;&599",
"99%+. @99",
"996311699"
};
