/* XPM */
static char *_2873_d6a4c15138499c477b13dbd1215a730f0046d4552e7a36a8b54967a9b8d03e37[] = {
/* columns rows colors chars-per-pixel */
"9 9 51 1 ",
"  c #786E58",
". c #817660",
"X c #837A65",
"o c #8B826E",
"O c #928B7D",
"+ c #918B7E",
"@ c #908B7F",
"# c #928C80",
"$ c #948F83",
"% c #959084",
"& c #97938A",
"* c #9B9790",
"= c #A49780",
"- c #B1A58A",
"; c #B3A78F",
": c #A8A49B",
"> c #ACA79B",
", c #A9A59D",
"< c #BBB099",
"1 c #AFABA5",
"2 c #BCB2A0",
"3 c #B3B0A8",
"4 c #B4B1A9",
"5 c #C6B183",
"6 c #CDB687",
"7 c #D4BC8E",
"8 c #C8BFAF",
"9 c #C2BDB4",
"0 c #C4BFB4",
"q c #E6CC96",
"w c #E7CD97",
"e c #C4C0B6",
"r c #C7C2B6",
"t c #C8C4BA",
"y c #CAC5BD",
"u c #CDC8BF",
"i c #EAD3A4",
"p c #E2D3B3",
"a c #D0CCC3",
"s c #DDDBD5",
"d c #E0DFD9",
"f c #E2E0DD",
"g c #EBEAE8",
"h c #EFEEED",
"j c #F0F0EF",
"k c #F1F1F0",
"l c #F7F7F6",
"z c gray97",
"x c #FDFDFD",
"c c #FEFEFE",
"v c white",
/* pixels */
"vvvvvvvvv",
"jk,c&x:jk",
"d41h*h13s",
"v#t0+re@v",
"v8%;o<$2v",
"vypiwq79v",
"vl-665=zv",
"vv>X. Ovv",
"vvgauufvv"
};
