/* XPM */
static char *_0575_613eb2a8cd6f3303ca3a757192e4843e2d461055987223f116e124310850b259[] = {
/* columns rows colors chars-per-pixel */
"9 9 37 1 ",
"  c #766C57",
". c #7D745E",
"X c #827863",
"o c #94866B",
"O c #9D8D6A",
"+ c #9A8D72",
"@ c #AF9F7D",
"# c #9B9386",
"$ c #A19A8D",
"% c #B1A281",
"& c #B3A484",
"* c #BFAB83",
"= c #B1ADA4",
"- c #BEB5A2",
"; c #CCB586",
": c #CDB687",
"> c #CDB888",
", c #C4BCAA",
"< c #E5CB96",
"1 c #E7CD97",
"2 c #D3C7AE",
"3 c #C6C3BD",
"4 c #CDC8BF",
"5 c #DED2BA",
"6 c #D0CBC3",
"7 c #D0CDC6",
"8 c #D2CEC9",
"9 c #D3D0CA",
"0 c #D3D0CB",
"q c #D3D1CC",
"w c #E6DAC0",
"e c #E3E3E2",
"r c #E4E4E3",
"t c #E8E6E4",
"y c #FDFDFD",
"u c #FEFEFE",
"i c white",
/* pixels */
"iiiiiiiii",
"ii98=07ii",
"ii,%*&-ii",
"iiq+Ooqii",
"iiu2<@yii",
"iiew1>rii",
"ii35:;3ii",
"ii$X. #ii",
"iit644tii"
};
