/* XPM */
static const char * xpm_char_072[] = {
"59 147 2 1 ",
"  c #000000",
". c None",
"...........................................................",
"...........................................................",
"...........................................................",
"...........................................................",
"...........................................................",
"...........................................................",
"...........................................................",
"...........................................................",
"...........................................................",
"...........................................................",
"...........................................................",
"...........................................................",
"...........................................................",
"...........................................................",
"...........................................................",
"...........................................................",
"...........................................................",
"...........................................................",
"...........................................................",
"...........................................................",
"...........................................................",
"...........................................................",
"...........................................................",
"...........................................................",
"...........................................................",
"...........................................................",
"...........................................................",
"...........................................................",
"...........................................................",
"...........................................................",
"...........................................................",
"...........................................................",
"...........................................................",
"...........................................................",
"...........................................................",
".......         ...........................         .......",
".......         ...........................         .......",
".......         ...........................         .......",
".......         ...........................         .......",
".......         ...........................         .......",
".......         ...........................         .......",
".......         ...........................         .......",
".......         ...........................         .......",
".......         ...........................         .......",
".......         ...........................         .......",
".......         ...........................         .......",
".......         ...........................         .......",
".......         ...........................         .......",
".......         ...........................         .......",
".......         ...........................         .......",
".......         ...........................         .......",
".......         ...........................         .......",
".......         ...........................         .......",
".......         ...........................         .......",
".......         ...........................         .......",
".......         ...........................         .......",
".......         ...........................         .......",
".......         ...........................         .......",
".......         ...........................         .......",
".......         ...........................         .......",
".......         ...........................         .......",
".......         ...........................         .......",
".......         ...........................         .......",
".......         ...........................         .......",
".......         ...........................         .......",
".......                                             .......",
".......                                             .......",
".......                                             .......",
".......                                             .......",
".......                                             .......",
".......                                             .......",
".......                                             .......",
".......                                             .......",
".......         ...........................         .......",
".......         ...........................         .......",
".......         ...........................         .......",
".......         ...........................         .......",
".......         ...........................         .......",
".......         ...........................         .......",
".......         ...........................         .......",
".......         ...........................         .......",
".......         ...........................         .......",
".......         ...........................         .......",
".......         ...........................         .......",
".......         ...........................         .......",
".......         ...........................         .......",
".......         ...........................         .......",
".......         ...........................         .......",
".......         ...........................         .......",
".......         ...........................         .......",
".......         ...........................         .......",
".......         ...........................         .......",
".......         ...........................         .......",
".......         ...........................         .......",
".......         ...........................         .......",
".......         ...........................         .......",
".......         ...........................         .......",
".......         ...........................         .......",
".......         ...........................         .......",
".......         ...........................         .......",
".......         ...........................         .......",
".......         ...........................         .......",
".......         ...........................         .......",
".......         ...........................         .......",
".......         ...........................         .......",
".......         ...........................         .......",
".......         ...........................         .......",
"...........................................................",
"...........................................................",
"...........................................................",
"...........................................................",
"...........................................................",
"...........................................................",
"...........................................................",
"...........................................................",
"...........................................................",
"...........................................................",
"...........................................................",
"...........................................................",
"...........................................................",
"...........................................................",
"...........................................................",
"...........................................................",
"...........................................................",
"...........................................................",
"...........................................................",
"...........................................................",
"...........................................................",
"...........................................................",
"...........................................................",
"...........................................................",
"...........................................................",
"...........................................................",
"...........................................................",
"...........................................................",
"...........................................................",
"...........................................................",
"...........................................................",
"...........................................................",
"...........................................................",
"...........................................................",
"...........................................................",
"...........................................................",
"...........................................................",
"...........................................................",
"...........................................................",
"..........................................................."
};


