/* XPM */
static const char * xpm_char_075[] = {
/* columns rows colors chars-per-pixel */
"40 100 2 1 ",
"  c #000000",
". c None",
/* pixels */
"........................................",
"........................................",
"........................................",
"........................................",
"........................................",
"........................................",
"........................................",
"........................................",
"........................................",
"........................................",
"........................................",
"........................................",
"........................................",
"........................................",
"........................................",
"........................................",
"........................................",
"........................................",
"........................................",
"........................................",
"........................................",
"........................................",
"........................................",
"........................................",
".....      .....................       .",
".....      ....................       ..",
".....      ...................       ...",
".....      ..................       ....",
".....      .................       .....",
".....      ................       ......",
".....      ...............       .......",
".....      ..............       ........",
".....      .............       .........",
".....      ............       ..........",
".....      ...........       ...........",
".....      ..........       ............",
".....      .........        ............",
".....      ........        .............",
".....      .......        ..............",
".....      ......        ...............",
".....      .....        ................",
".....      ....        .................",
".....      ...        ..................",
".....      ..        ...................",
".....      .        ....................",
".....                ...................",
".....                 ..................",
".....                  .................",
".....                   ................",
".....          ..       ................",
".....         ...        ...............",
".....        .....       ...............",
".....       .......       ..............",
".....      ........        .............",
".....      .........        ............",
".....      .........        ............",
".....      ..........        ...........",
".....      ...........       ...........",
".....      ............       ..........",
".....      ............        .........",
".....      .............       .........",
".....      .............        ........",
".....      ..............        .......",
".....      ...............       .......",
".....      ................       ......",
".....      ................        .....",
".....      .................       .....",
".....      .................        ....",
".....      ..................        ...",
".....      ...................        ..",
".....      ...................        ..",
".....      ....................        .",
".....      .....................       .",
"........................................",
"........................................",
"........................................",
"........................................",
"........................................",
"........................................",
"........................................",
"........................................",
"........................................",
"........................................",
"........................................",
"........................................",
"........................................",
"........................................",
"........................................",
"........................................",
"........................................",
"........................................",
"........................................",
"........................................",
"........................................",
"........................................",
"........................................",
"........................................",
"........................................",
"........................................",
"........................................"
};
