/* XPM */
static const char * xpm_char_050[] = {
"59 147 2 1 ",
"  c #000000",
". c None",
"...........................................................",
"...........................................................",
"...........................................................",
"...........................................................",
"...........................................................",
"...........................................................",
"...........................................................",
"...........................................................",
"...........................................................",
"...........................................................",
"...........................................................",
"...........................................................",
"...........................................................",
"...........................................................",
"...........................................................",
"...........................................................",
"...........................................................",
"...........................................................",
"...........................................................",
"...........................................................",
"...........................................................",
"...........................................................",
"...........................................................",
"...........................................................",
"...........................................................",
"...........................................................",
"...........................................................",
"...........................................................",
"...........................................................",
"...........................................................",
"...........................................................",
"...........................................................",
"...........................................................",
"...........................................................",
".....................           ...........................",
".................                   .......................",
".............                          ....................",
"...........                              ..................",
".........                                 .................",
"........                                    ...............",
"........                                     ..............",
"........                                      .............",
"........               ........               .............",
"........           ...............             ............",
"........        ...................             ...........",
"........     ........................           ...........",
"........   ...........................           ..........",
"........  ............................           ..........",
".......................................          ..........",
".......................................           .........",
"........................................          .........",
"........................................          .........",
"........................................          .........",
"........................................          .........",
"........................................          .........",
"........................................          .........",
"........................................          .........",
"........................................          .........",
"........................................          .........",
"........................................         ..........",
".......................................          ..........",
".......................................          ..........",
".......................................         ...........",
"......................................          ...........",
"......................................         ............",
".....................................          ............",
"....................................          .............",
"....................................          .............",
"...................................          ..............",
"..................................          ...............",
".................................           ...............",
".................................          ................",
"................................          .................",
"...............................          ..................",
"..............................          ...................",
".............................          ....................",
"............................           ....................",
"...........................           .....................",
"..........................           ......................",
".........................           .......................",
".........................          ........................",
"........................          .........................",
".......................          ..........................",
"......................          ...........................",
".....................          ............................",
"....................          .............................",
"...................          ..............................",
"..................          ...............................",
".................           ...............................",
"................           ................................",
"...............           .................................",
"..............           ..................................",
".............           ...................................",
"............           ....................................",
"...........           .....................................",
"...........          ......................................",
"..........          .......................................",
".........          ........................................",
"........          .........................................",
".......                                            ........",
".......                                            ........",
".......                                            ........",
".......                                            ........",
".......                                            ........",
".......                                            ........",
".......                                            ........",
".......                                            ........",
"...........................................................",
"...........................................................",
"...........................................................",
"...........................................................",
"...........................................................",
"...........................................................",
"...........................................................",
"...........................................................",
"...........................................................",
"...........................................................",
"...........................................................",
"...........................................................",
"...........................................................",
"...........................................................",
"...........................................................",
"...........................................................",
"...........................................................",
"...........................................................",
"...........................................................",
"...........................................................",
"...........................................................",
"...........................................................",
"...........................................................",
"...........................................................",
"...........................................................",
"...........................................................",
"...........................................................",
"...........................................................",
"...........................................................",
"...........................................................",
"...........................................................",
"...........................................................",
"...........................................................",
"...........................................................",
"...........................................................",
"...........................................................",
"...........................................................",
"...........................................................",
"...........................................................",
"..........................................................."
};


